;TYPE=PLATED
;Layer: PTH_Through_Via
;EasyEDA Pro Client v2.2.32.3, 2025-06-04 17:09:26
;Gerber Generator version 0.3
M48
METRIC,LZ,000.00000
;Hole size 1 = 0.30002 METRIC
T01C0.30002
;Hole size 2 = 0.30500 METRIC
T02C0.30500
%
G05
G90
T01
X-0.5Y7.39987
X0.5Y7.39987
X-0.5Y6.39988
X0.5Y6.39988
X-0.5Y5.39988
X0.5Y5.39988
X-0.5Y4.39988
X0.5Y4.39988
T02
X-4.80223Y4.9049
X-4.2Y5.8
X-4.2Y7.47
X-10.30003Y8.70001
X-10.30003Y7.7199
X3.99995Y15.85
X4.0Y15.15
X-2.00006Y15.65
X-2.0Y14.95
X5.61076Y10.80001
X6.6Y10.80001
X4.34063Y4.82518
X5.34999Y-16.0466
X-7.59998Y-15.49881
X11.95001Y-10.90001
X4.24999Y2.1
X4.24999Y-12.34998
X4.05Y2.97494
X4.91277Y-13.14997
X4.05Y3.85
X4.1Y6.87501
X6.50016Y-12.15879
X4.1Y8.17501
X3.69999Y-13.94997
X7.59998Y9.24998
X2.84999Y-14.74997
X5.79999Y-13.14997
X-1.22128Y12.19994
X4.34999Y12.39998
X-4.89999Y-6.31776
X-6.04999Y-6.31776
X0.635Y1.30784
X-2.54999Y-3.74999
X-6.371Y-16.29878
X2.69999Y0.86303
X-2.40499Y-9.44997
X-2.45Y-11.14998
X-5.6Y-13.94997
X11.95002Y-8.90001
X-0.1Y-6.31994
X1.48151Y-8.31243
X2.89999Y-9.59998
X2.89864Y-10.72998
X-8.67452Y-9.12998
X12.14998Y9.19998
X13.24997Y8.24998
X14.79997Y6.59999
X15.99997Y9.19998
X-0.67229Y11.57998
X1.7Y11.57998
X-5.44802Y4.9049
X-4.89999Y7.46999
X-4.89999Y5.8
X8.29998Y-15.89997
X-5.59999Y-13.09997
X10.29664Y-7.30001
X1.53Y10.75998
X-3.32002Y10.8999
X8.89998Y11.22998
X-15.09997Y10.39998
X-15.65927Y6.00753
X-13.89997Y5.59999
X-13.14997Y7.39701
X-11.65003Y8.65675
X-11.65003Y7.7199
X-10.95002Y8.24118
X-2.80006Y15.65
X-2.8Y14.95
X3.19995Y15.85
X3.2Y15.15
X5.61076Y11.64998
X6.6Y11.64998
X-6.10115Y9.53507
X-8.79998Y11.40001
X-10.15Y11.40001
X9.11165Y-8.88816
X18.20001Y-0.07337
X18.20001Y1.27999
X18.19996Y-3.87994
X18.19996Y-2.53658
X0.0Y-19.76997
X-2.49999Y-17.54361
X-4.09999Y-17.54361
X-16.14216Y12.47161
X18.74212Y7.96827
X-4.19917Y-5.04995
X2.92171Y-4.20999
X-0.67204Y10.17598
X10.84997Y11.25
X1.58Y0.69
X-3.39999Y6.77999
X1.65582Y-5.27765
X-4.91889Y-12.28006
X-10.24998Y-11.32661
M30