G04 Layer: DrillDrawingLayer*
G04 EasyEDA Pro v2.2.32.3, 2025-06-04 17:09:26*
G04 Gerber Generator version 0.3*
G04 Scale: 100 percent, Rotated: No, Reflected: No*
G04 Dimensions in millimeters*
G04 Leading zeros omitted, absolute positions, 3 integers and 5 decimals*
%FSLAX35Y35*%
%MOMM*%
%AMIconRect*4,1,4,0.2,-0.2,-0.2,-0.2,-0.2,0.2,0.2,0.2,0.2,-0.2,0*4,0,4,0.166667,-0.166667,0.166667,0.166667,-0.166667,0.166667,-0.166667,-0.166667,0.166667,-0.166667,0*%
%AMIconTriangle*4,1,3,-0.242567,0.171767,0.242567,0.171767,0,-0.2706,-0.242567,0.171767,0*4,0,3,-0.189767,0.1386,0,-0.1953,0.190167,0.1386,-0.189767,0.1386,0*%
%AMIconStar6*4,1,12,0.0862,0.1492,0.213233,0.123367,0.172367,0,0.213233,-0.1229,0.0862,-0.148733,0,-0.245767,-0.085767,-0.148733,-0.213267,-0.1229,-0.171933,0,-0.213267,0.1229,-0.085767,0.1492,0,0.245767,0.0862,0.1492,0*4,0,12,-0.000333,0.195333,-0.064333,0.122667,-0.169667,0.097667,-0.138333,-0.005333,-0.169667,-0.098,-0.064333,-0.122667,-0.000333,-0.195667,0.064333,-0.122667,0.169667,-0.098,0.138667,0.005,0.169667,0.098,0.064333,0.122333,-0.000333,0.195333,0*%
%AMIconStar4*4,1,8,-0.222667,0.222667,0,0.144667,0.222667,0.222667,0.144667,0,0.222667,-0.222667,0,-0.144667,-0.217433,-0.222667,-0.144667,0,-0.222667,0.222667,0*4,0,8,0.166667,-0.166667,0.108,0,0.166667,0.166667,0,0.108,-0.166667,0.166667,-0.108,0,-0.166667,-0.166667,0,-0.108,0.166667,-0.166667,0*%
%AMIconPlus*4,1,12,0.124,-0.2,-0.124,-0.2,-0.124,-0.124,-0.2,-0.124,-0.2,0.124,-0.124,0.124,-0.124,0.2,0.124,0.2,0.124,0.124,0.2,0.124,0.2,-0.124,0.124,-0.124,0.124,-0.2,0*4,0,12,0.090667,-0.166667,0.090667,-0.090667,0.166667,-0.090667,0.166667,0.090667,0.090667,0.090667,0.090667,0.166667,-0.090667,0.166667,-0.090667,0.090667,-0.166667,0.090667,-0.166667,-0.090667,-0.090667,-0.090667,-0.090667,-0.166667,0.090667,-0.166667,0*%
%ADD10IconRect*%
%ADD11C,0.44X0.373333*%
%ADD12IconTriangle*%
%ADD13IconStar6*%
%ADD14IconStar4*%
%ADD15IconPlus*%
G75*


G04 Drill Drawing Start*
G54D10*
G01X-1916996Y-329665D03*
G01X673000Y1825000D03*
G01X1243996Y-1495335D03*
G54D11*
G01X-1361000Y-1357000D03*
G01X-1233000Y-1554000D03*
G01X-1043000Y-1690000D03*
G01X-833000Y-1803000D03*
G54D12*
G01X-1928007Y470699D03*
G01X-1378008Y1423325D03*
G01X1378018Y1423301D03*
G01X1928017Y470675D03*
G54D13*
G01X-911981Y230505D03*
G01X-661982Y663517D03*
G01X661992Y663494D03*
G01X911992Y230482D03*
G54D14*
G01X-50000Y739987D03*
G01X-50000Y639988D03*
G01X-50000Y539988D03*
G01X-50000Y439988D03*
G01X50000Y739987D03*
G01X50000Y639988D03*
G01X50000Y539988D03*
G01X50000Y439988D03*
G54D15*
G01X-1614216Y1247161D03*
G01X-1565927Y600753D03*
G01X-1509997Y1039998D03*
G01X-1389997Y559999D03*
G01X-1314997Y739701D03*
G01X-1165003Y771990D03*
G01X-1165003Y865675D03*
G01X-1095002Y824118D03*
G01X-1030003Y771990D03*
G01X-1030003Y870001D03*
G01X-1024998Y-1132661D03*
G01X-1015000Y1140001D03*
G01X-879998Y1140001D03*
G01X-867452Y-912998D03*
G01X-759998Y-1549881D03*
G01X-637100Y-1629878D03*
G01X-610115Y953507D03*
G01X-604999Y-631776D03*
G01X-560000Y-1394997D03*
G01X-559999Y-1309997D03*
G01X-544802Y490490D03*
G01X-491889Y-1228006D03*
G01X-489999Y-631776D03*
G01X-489999Y580000D03*
G01X-489999Y746999D03*
G01X-480223Y490490D03*
G01X-420000Y580000D03*
G01X-420000Y747000D03*
G01X-419917Y-504995D03*
G01X-409999Y-1754361D03*
G01X-339999Y677999D03*
G01X-332002Y1089990D03*
G01X-280006Y1565000D03*
G01X-280000Y1495000D03*
G01X-254999Y-374999D03*
G01X-249999Y-1754361D03*
G01X-245000Y-1114998D03*
G01X-240499Y-944997D03*
G01X-200006Y1565000D03*
G01X-200000Y1495000D03*
G01X-122128Y1219994D03*
G01X-67229Y1157998D03*
G01X-67204Y1017598D03*
G01X-10000Y-631994D03*
G01X0Y-1976997D03*
G01X63500Y130784D03*
G01X148151Y-831243D03*
G01X153000Y1075998D03*
G01X158000Y69000D03*
G01X165582Y-527765D03*
G01X170000Y1157998D03*
G01X269999Y86303D03*
G01X284999Y-1474997D03*
G01X289864Y-1072998D03*
G01X289999Y-959998D03*
G01X292171Y-420999D03*
G01X319995Y1585000D03*
G01X320000Y1515000D03*
G01X369999Y-1394997D03*
G01X399995Y1585000D03*
G01X400000Y1515000D03*
G01X405000Y297494D03*
G01X405000Y385000D03*
G01X410000Y687501D03*
G01X410000Y817501D03*
G01X424999Y-1234998D03*
G01X424999Y210000D03*
G01X434063Y482518D03*
G01X434999Y1239998D03*
G01X491277Y-1314997D03*
G01X534999Y-1604660D03*
G01X561076Y1080001D03*
G01X561076Y1164998D03*
G01X579999Y-1314997D03*
G01X650016Y-1215879D03*
G01X660000Y1080001D03*
G01X660000Y1164998D03*
G01X759998Y924998D03*
G01X829998Y-1589997D03*
G01X889998Y1122998D03*
G01X911165Y-888816D03*
G01X1029664Y-730001D03*
G01X1084997Y1125000D03*
G01X1195001Y-1090001D03*
G01X1195002Y-890001D03*
G01X1214998Y919998D03*
G01X1324997Y824998D03*
G01X1479997Y659999D03*
G01X1599997Y919998D03*
G01X1819996Y-387994D03*
G01X1819996Y-253658D03*
G01X1820001Y-7337D03*
G01X1820001Y127999D03*
G01X1874212Y796827D03*
G04 Drill Drawing End*

M02*

