G04 Layer: InnerLayer2*
G04 EasyEDA Pro v2.2.32.3, 2025-06-04 17:09:26*
G04 Gerber Generator version 0.3*
G04 Scale: 100 percent, Rotated: No, Reflected: No*
G04 Dimensions in millimeters*
G04 Leading zeros omitted, absolute positions, 3 integers and 5 decimals*
%FSLAX35Y35*%
%MOMM*%
%ADD10C,0.2032*%
%ADD11C,0.254*%
%ADD12C,4.8*%
%ADD13C,5.0*%
%ADD14C,1.5*%
%ADD15C,2.5024*%
%ADD16C,2.49999*%
%ADD17C,1.8*%
%ADD18C,0.61*%
%ADD19C,0.6*%
G75*


G04 Copper Start*
G36*
G01X-1659746Y-230188D02*
G03X-2110020Y-132650I-257250J-99477D01*
G02X-685874Y1999840I2110020J132650D01*
G02X-338550Y1864968I93678J-273414D01*
G03X338542Y1864954I338550J185032D01*
G02X420436Y1958795I253760J-138800D01*
G03X635153Y1541703I252564J-133795D01*
G03X951828Y1887805I37847J283297D01*
G02X2074849Y-405936I-951828J-1887804D01*
G02X1784385Y-639292I-283623J55580D01*
G03X1445827Y-1225663I-9033J-385708D01*
G02X1487822Y-1366407I-247084J-150362D01*
G03X1029222Y-1322288I-243826J-128928D01*
G03X1169888Y-1761007I214775J-173047D01*
G02X-1388975Y-1593904I-1169888J1761009D01*
G02X-1445835Y-1225677I189945J217834D01*
G03X-1784369Y-639291I-329522J200674D01*
G02X-1927255Y-605288I-6675J289163D01*
G03X-1659746Y-230188I10259J275623D01*
G37*
%LPC*%
G36*
G01X-1865104Y579644D02*
G03X-1990918Y361728I-62907J-108958D01*
G03X-1865104Y579644I62907J108958D01*
G37*
G36*
G01X-1680530Y1247161D02*
G03X-1547902Y1247161I66314J0D01*
G03X-1680530Y1247161I-66314J0D01*
G37*
G36*
G01X-1632241Y600753D02*
G03X-1499613Y600753I66314J0D01*
G03X-1632241Y600753I-66314J0D01*
G37*
G36*
G01X-1576311Y1039998D02*
G03X-1443683Y1039998I66314J0D01*
G03X-1576311Y1039998I-66314J0D01*
G37*
G36*
G01X-1315105Y1532270D02*
G03X-1440919Y1314354I-62907J-108958D01*
G03X-1315105Y1532270I62907J108958D01*
G37*
G36*
G01X-1456311Y559999D02*
G03X-1323683Y559999I66314J0D01*
G03X-1456311Y559999I-66314J0D01*
G37*
G36*
G01X-1381311Y739701D02*
G03X-1248683Y739701I66314J0D01*
G03X-1381311Y739701I-66314J0D01*
G37*
G36*
G01X-1343814Y-1554000D02*
G03X-1122186Y-1554000I110814J0D01*
G03X-1343814Y-1554000I-110814J0D01*
G37*
G36*
G01X-1201304Y921170D02*
G03X-1211943Y818832I36301J-55496D01*
G03X-1196703Y713744I46940J-46842D01*
G03X-1100180Y758006I31700J58246D01*
G03X-1094782Y757804I5178J66112D01*
G03X-996847Y714560I64779J14186D01*
G03X-985326Y820995I-33156J57430D01*
G03X-994096Y925753I-44677J49005D01*
G03X-1093100Y890404I-35906J-55752D01*
G03X-1103277Y889913I-1903J-66287D01*
G03X-1201304Y921170I-61725J-24239D01*
G37*
G36*
G01X-380299Y-285628D02*
G03X-394508Y-319932I34305J-34305D01*
G01X-394508Y-640769D01*
G01X-461342Y-707604D01*
G01X-781118Y-707604D01*
G03X-815422Y-721813I0J-48514D01*
G01X-899303Y-805694D01*
G03X-913485Y-838369I34305J-34305D01*
G01X-914420Y-866184D01*
G03X-869680Y-979275I46968J-46814D01*
G03X-817447Y-869443I2228J66277D01*
G01X-817155Y-860764D01*
G01X-761022Y-804632D01*
G01X-441247Y-804632D01*
G03X-406943Y-790422I0J48514D01*
G01X-311690Y-695169D01*
G03X-303513Y-684295I-34305J34305D01*
G01X-303513Y-709706D01*
G01X-405292Y-811484D01*
G01X-529999Y-811484D01*
G03X-564304Y-825694I0J-48514D01*
G01X-671405Y-932795D01*
G03X-685614Y-967099I34305J-34305D01*
G01X-685614Y-1584668D01*
G03X-696945Y-1658446I48514J-45210D01*
G01X-717695Y-1637695D01*
G03X-752000Y-1623486I-34305J-34305D01*
G01X-954368Y-1623486D01*
G03X-1151975Y-1710102I-88632J-66514D01*
G03X-936470Y-1720514I108975J20102D01*
G01X-906999Y-1720514D01*
G03X-858776Y-1910774I73999J-82486D01*
G03X-729688Y-1762921I25776J107774D01*
G01X-722318Y-1770291D01*
G03X-688013Y-1784501I34305J34305D01*
G01X-562709Y-1784501D01*
G03X-528405Y-1770291I0J48514D01*
G01X-419624Y-1661511D01*
G01X-195997Y-1661511D01*
G03X-161692Y-1647301I0J48514D01*
G01X-14676Y-1500285D01*
G03X-466Y-1465980I-34305J34305D01*
G01X-466Y-1061692D01*
G03X-14676Y-1027387I-48514J0D01*
G01X-131371Y-910692D01*
G03X-165676Y-896483I-34305J-34305D01*
G01X-195289Y-896483D01*
G03X-306813Y-944997I-45210J-48514D01*
G03X-195289Y-993511I66314J0D01*
G01X-185771Y-993511D01*
G01X-97494Y-1081787D01*
G01X-97494Y-1445885D01*
G01X-216092Y-1564483D01*
G01X-439719Y-1564483D01*
G03X-474024Y-1578692I0J-48514D01*
G01X-582804Y-1687473D01*
G01X-604232Y-1687473D01*
G03X-588586Y-1584668I-32869J57595D01*
G01X-588586Y-1454834D01*
G03X-507629Y-1435677I28586J59836D01*
G03X-509095Y-1352498I-52371J40680D01*
G03X-495590Y-1294216I-50904J42500D01*
G03X-449515Y-1176996I3701J66211D01*
G03X-556298Y-1243787I-42374J-51010D01*
G03X-588586Y-1250161I-3701J-66211D01*
G01X-588586Y-987195D01*
G01X-509904Y-908512D01*
G01X-385197Y-908512D01*
G03X-350892Y-894303I0J48514D01*
G01X-220695Y-764106D01*
G03X-206485Y-729801I-34305J34305D01*
G01X-206485Y-420209D01*
G03X-196915Y-343003I-48514J45210D01*
G03X-267286Y-309833I-58085J-31996D01*
G01X97805Y55257D01*
G03X111834Y85381I-34305J34305D01*
G03X72264Y196516I-48334J45403D01*
G03X4959Y99630I-8764J-65732D01*
G01X-380299Y-285628D01*
G37*
G36*
G01X-1091312Y-1132661D02*
G03X-958684Y-1132661I66314J0D01*
G03X-1091312Y-1132661I-66314J0D01*
G37*
G36*
G01X-1081314Y1140001D02*
G03X-948686Y1140001I66314J0D01*
G03X-1081314Y1140001I-66314J0D01*
G37*
G36*
G01X-831581Y369763D02*
G03X-992395Y91226I-80407J-139269D01*
G03X-831581Y369763I80407J139269D01*
G37*
G36*
G01X-946312Y1140001D02*
G03X-813684Y1140001I66314J0D01*
G03X-946312Y1140001I-66314J0D01*
G37*
G36*
G01X-826313Y-1549881D02*
G03X-693684Y-1549881I66314J0D01*
G03X-826313Y-1549881I-66314J0D01*
G37*
G36*
G01X-639303Y-190695D02*
G03X-653513Y-225000I34305J-34305D01*
G01X-653513Y-586566D01*
G03X-644379Y-685131I48514J-45210D01*
G03X-547499Y-664811I39380J53355D01*
G03X-450619Y-685131I57500J33035D01*
G03X-441485Y-586566I-39380J53355D01*
G01X-441485Y-305095D01*
G01X-157697Y-21306D01*
G03X-143487Y12998I-34305J34305D01*
G01X-143487Y1157214D01*
G03X-133459Y1154655I21359J62780D01*
G03X-22019Y1109484I66230J3342D01*
G01X95761Y1109484D01*
G03X104487Y1030787I57239J-33486D01*
G01X104487Y1002350D01*
G03X118697Y968047I48514J1D01*
G01X207708Y879036D01*
G03X242012Y864827I34305J34305D01*
G01X363548Y864827D01*
G03X396863Y752501I46452J-47326D01*
G03X410000Y621187I13137J-65000D01*
G03X423137Y752501I0J66314D01*
G03X456452Y864827I-13137J65000D01*
G01X475448Y864827D01*
G01X511330Y828945D01*
G03X545634Y814735I34305J34305D01*
G01X607301Y814735D01*
G03X661986Y502691I54685J-151230D01*
G03X716671Y814735I0J160814D01*
G01X828249Y814735D01*
G03X841484Y816575I0J48514D01*
G01X841484Y545094D01*
G01X534320Y237930D01*
G03X520110Y203625I34305J-34305D01*
G01X520110Y-417809D01*
G01X458669Y-479251D01*
G01X210792Y-479251D01*
G03X113262Y-487019I-45210J-48514D01*
G03X129619Y-583480I52320J-40746D01*
G01X35210Y-583480D01*
G03X-76314Y-631994I-45210J-48514D01*
G03X35210Y-680508I66314J0D01*
G01X630296Y-680508D01*
G03X664601Y-666299I0J48514D01*
G01X1124832Y-206068D01*
G03X1139041Y-171763I-34305J34305D01*
G01X1139041Y965432D01*
G01X1217861Y1044252D01*
G01X1481369Y1044252D01*
G01X1551483Y974138D01*
G01X1551483Y965208D01*
G03X1599997Y853684I48514J-45210D01*
G03X1648511Y965208I0J66314D01*
G01X1648511Y994233D01*
G03X1634301Y1028537I-48514J0D01*
G01X1535768Y1127070D01*
G03X1501464Y1141280I-34305J-34305D01*
G01X1197765Y1141280D01*
G03X1163461Y1127070I0J-48514D01*
G01X1056223Y1019832D01*
G03X1042013Y985528I34305J-34305D01*
G01X1042013Y325118D01*
G03X751172Y230493I-130028J-94625D01*
G03X1042013Y135869I160814J0D01*
G01X1042013Y-151668D01*
G01X610201Y-583480D01*
G01X201545Y-583480D01*
G03X210792Y-576279I-35963J55716D01*
G01X478764Y-576279D01*
G03X513069Y-562069I0J48514D01*
G01X602929Y-472209D01*
G03X617138Y-437905I-34305J34305D01*
G01X617138Y183530D01*
G01X924303Y490694D01*
G03X938512Y524999I-34305J34305D01*
G01X938512Y1077788D01*
G03X889998Y1189312I-48514J45210D01*
G03X841484Y1077788I0J-66314D01*
G01X841484Y945093D01*
G01X826142Y929751D01*
G03X750986Y990697I-66144J-4753D01*
G03X695019Y911763I9013J-65699D01*
G01X565730Y911763D01*
G01X529848Y947645D01*
G03X495543Y961855I-34305J-34305D01*
G01X262107Y961855D01*
G01X201515Y1022447D01*
G01X201515Y1030789D01*
G03X211852Y1106559I-48515J45209D01*
G03X220004Y1201553I-41852J51439D01*
G03X124790Y1206512I-50005J-43556D01*
G01X-22019Y1206512D01*
G03X-55898Y1223337I-45210J-48514D01*
G03X-64069Y1252037I-66230J-3342D01*
G01X354350Y1252037D01*
G01X368726Y1237661D01*
G03X481891Y1193107I66273J2337D01*
G03X437335Y1306270I-46891J46891D01*
G01X408749Y1334856D01*
G03X374445Y1349065I-34304J-34305D01*
G01X-174064Y1349065D01*
G03X-208368Y1334855I0J-48514D01*
G01X-299291Y1243932D01*
G03X-313501Y1209628I34305J-34305D01*
G01X-313501Y1153671D01*
G03X-398316Y1089990I-18502J-63681D01*
G03X-313501Y1026309I66314J0D01*
G01X-313501Y738788D01*
G03X-353816Y742857I-26499J-60790D01*
G03X-455001Y803325I-66185J4143D01*
G03X-548772Y777712I-34998J-56327D01*
G03X-819012Y698214I-113217J-114206D01*
G03X-607454Y512221I157024J-34708D01*
G03X-587424Y439687I62652J-21732D01*
G03X-512513Y432568I42622J50803D01*
G03X-436997Y440200I32289J57922D01*
G03X-418109Y513713I-43226J50289D01*
G03X-361197Y549345I-1891J66287D01*
G03X-364573Y616406I-58803J30656D01*
G03X-313501Y617209I24573J61593D01*
G01X-313501Y135108D01*
G01X-639303Y-190695D01*
G37*
G36*
G01X-479186Y1370000D02*
G03X-750814Y1370000I-135814J0D01*
G03X-479186Y1370000I135814J0D01*
G37*
G36*
G01X-676429Y953507D02*
G03X-543801Y953507I66314J0D01*
G03X-676429Y953507I-66314J0D01*
G37*
G36*
G01X-476313Y-1754361D02*
G03X-343685Y-1754361I66314J0D01*
G03X-476313Y-1754361I-66314J0D01*
G37*
G36*
G01X135772Y1503395D02*
G03X-135436Y1510132I-135772J-3394D01*
G03X-143678Y1530004I-64565J-15132D01*
G03X-155310Y1613988I-56328J34995D01*
G03X-240006Y1617892I-44696J-48988D01*
G03X-324705Y1613984I-40000J-52892D01*
G03X-336328Y1529995I44700J-48985D01*
G03X-324696Y1446011I56328J-34995D01*
G03X-240000Y1442108I44696J48988D01*
G03X-175925Y1433210I40000J52892D01*
G03X-134760Y1483113I-24075J61789D01*
G03X135772Y1503395I134760J16887D01*
G37*
G36*
G01X-316314Y-1754361D02*
G03X-183685Y-1754361I66314J0D01*
G03X-316314Y-1754361I-66314J0D01*
G37*
G36*
G01X-311314Y-1114998D02*
G03X-178685Y-1114998I66314J0D01*
G03X-311314Y-1114998I-66314J0D01*
G37*
G36*
G01X-115814Y539988D02*
G03X-92796Y489988I65814J0D01*
G03X-96537Y393450I42796J-50000D01*
G03X0Y397192I46537J46537D01*
G03X96537Y393450I50000J42796D01*
G03X92796Y489988I-46537J46537D01*
G03X115814Y539988I-42796J50000D01*
G03X92796Y589988I-65814J0D01*
G03X115814Y639988I-42796J50000D01*
G03X92796Y689987I-65814J0D01*
G03X96537Y786525I-42796J50000D01*
G03X0Y782783I-46537J-46537D01*
G03X-96537Y786525I-50000J-42796D01*
G03X-92796Y689987I46537J-46537D01*
G03X-115814Y639988I42796J-50000D01*
G03X-92796Y589988I65814J0D01*
G03X-115814Y539988I42796J-50000D01*
G37*
G36*
G01X-66314Y-1976997D02*
G03X66314Y-1976997I66314J0D01*
G03X-66314Y-1976997I-66314J0D01*
G37*
G36*
G01X603658Y-782729D02*
G01X193361Y-782729D01*
G03X81837Y-831243I-45210J-48514D01*
G03X193361Y-879757I66314J0D01*
G01X623754Y-879757D01*
G03X658058Y-865548I0J48514D01*
G01X1249302Y-274304D01*
G03X1263512Y-240000I-34305J34305D01*
G01X1263512Y800158D01*
G03X1276483Y779788I61486J24841D01*
G01X1276483Y-284904D01*
G01X649904Y-911484D01*
G01X335209Y-911484D01*
G03X237255Y-919804I-45210J-48514D01*
G03X255214Y-1016456I52744J-40194D01*
G03X237071Y-1113129I34650J-56542D01*
G03X335074Y-1121512I52792J40131D01*
G01X836998Y-1121512D01*
G03X871303Y-1107302I0J48514D01*
G01X1514302Y-464304D01*
G03X1528511Y-429999I-34305J34305D01*
G01X1528511Y614789D01*
G03X1479997Y726313I-48514J45210D01*
G03X1431483Y614789I0J-66314D01*
G01X1431483Y-409904D01*
G01X1093529Y-747858D01*
G03X1034726Y-663880I-63864J17858D01*
G01X1359302Y-339304D01*
G03X1373511Y-304999I-34305J34305D01*
G01X1373511Y779788D01*
G03X1360618Y880933I-48514J45210D01*
G03X1263512Y849839I-35621J-55935D01*
G01X1263512Y874788D01*
G03X1214998Y986312I-48514J45210D01*
G03X1166484Y874788I0J-66314D01*
G01X1166484Y-219904D01*
G01X603658Y-782729D01*
G37*
G36*
G01X203685Y86303D02*
G03X336314Y86303I66314J0D01*
G03X203685Y86303I-66314J0D01*
G37*
G36*
G01X418289Y-1349548D02*
G03X305920Y-1412070I-48290J-45449D01*
G03X236710Y-1520446I-20921J-62927D01*
G03X349078Y-1457925I48290J45449D01*
G03X418289Y-1349548I20921J62927D01*
G37*
G36*
G01X275304Y1466012D02*
G03X360000Y1462108I44696J48988D01*
G03X444699Y1466015I40000J52892D01*
G03X456323Y1550004I-44699J48985D01*
G03X444691Y1633988I-56328J34996D01*
G03X359995Y1637892I-44696J-48988D01*
G03X275296Y1633985I-40000J-52892D01*
G03X263672Y1549996I44699J-48985D01*
G03X275304Y1466012I56328J-34996D01*
G37*
G36*
G01X439776Y145353D02*
G03X462596Y264626I-14777J64647D01*
G03X454832Y341247I-57596J32868D01*
G03X460291Y421612I-49832J43753D01*
G03X453004Y546070I-26228J60907D01*
G03X378772Y445907I-18940J-63552D01*
G03X355168Y341247I26228J-60907D01*
G03X367403Y242867I49832J-43753D01*
G03X439776Y145353I57596J-32868D01*
G37*
G36*
G01X535638Y-1265706D02*
G03X489883Y-1248698I-44361J-49292D01*
G03X382692Y-1183932I-64883J13700D01*
G03X426394Y-1301297I42307J-51066D01*
G03X458152Y-1372445I64883J-13700D01*
G03X535638Y-1364289I33125J57448D01*
G03X622172Y-1366174I44361J49292D01*
G03X636860Y-1280875I-42173J51176D01*
G03X688276Y-1161715I13156J64996D01*
G03X593154Y-1250001I-38261J-54163D01*
G03X535638Y-1265706I-13156J-64996D01*
G37*
G36*
G01X468685Y-1604660D02*
G03X601313Y-1604660I66314J0D01*
G03X468685Y-1604660I-66314J0D01*
G37*
G36*
G01X750814Y1370000D02*
G03X479186Y1370000I-135814J0D01*
G03X750814Y1370000I135814J0D01*
G37*
G36*
G01X703341Y1215189D02*
G03X610538Y1209168I-43340J-50191D01*
G03X517735Y1215189I-49462J-44170D01*
G03X510169Y1122499I43340J-50191D01*
G03X517735Y1029809I50906J-42499D01*
G03X610538Y1035830I43340J50191D01*
G03X703341Y1029809I49462J44170D01*
G03X710907Y1122499I-43340J50191D01*
G03X703341Y1215189I-50906J42499D01*
G37*
G36*
G01X763684Y-1589997D02*
G03X896312Y-1589997I66314J0D01*
G03X763684Y-1589997I-66314J0D01*
G37*
G36*
G01X1128687Y-1090001D02*
G03X1261315Y-1090001I66314J0D01*
G03X1128687Y-1090001I-66314J0D01*
G37*
G36*
G01X1128688Y-890001D02*
G03X1261316Y-890001I66314J0D01*
G03X1128688Y-890001I-66314J0D01*
G37*
G36*
G01X1440917Y1314353D02*
G03X1315103Y1532269I-62907J108958D01*
G03X1440917Y1314353I62907J-108958D01*
G37*
G36*
G01X1753682Y-253658D02*
G03X1886310Y-253658I66314J0D01*
G03X1753682Y-253658I-66314J0D01*
G37*
G36*
G01X1753687Y127999D02*
G03X1886315Y127999I66314J0D01*
G03X1753687Y127999I-66314J0D01*
G37*
G36*
G01X1753687Y-7337D02*
G03X1886315Y-7337I66314J0D01*
G03X1753687Y-7337I-66314J0D01*
G37*
G36*
G01X1990916Y361727D02*
G03X1865102Y579643I-62907J108958D01*
G03X1990916Y361727I62907J-108958D01*
G37*
G36*
G01X1807898Y796827D02*
G03X1940526Y796827I66314J0D01*
G03X1807898Y796827I-66314J0D01*
G37*
%LPD*%
G54D10*
G01X-1659746Y-230188D02*
G03X-2110020Y-132650I-257250J-99477D01*
G02X-685874Y1999840I2110020J132650D01*
G02X-338550Y1864968I93678J-273414D01*
G03X338542Y1864954I338550J185032D01*
G02X420436Y1958795I253760J-138800D01*
G03X635153Y1541703I252564J-133795D01*
G03X951828Y1887805I37847J283297D01*
G02X2074849Y-405936I-951828J-1887804D01*
G02X1784385Y-639292I-283623J55580D01*
G03X1445827Y-1225663I-9033J-385708D01*
G02X1487822Y-1366407I-247084J-150362D01*
G03X1029222Y-1322288I-243826J-128928D01*
G03X1169888Y-1761007I214775J-173047D01*
G02X-1388975Y-1593904I-1169888J1761009D01*
G02X-1445835Y-1225677I189945J217834D01*
G03X-1784369Y-639291I-329522J200674D01*
G02X-1927255Y-605288I-6675J289163D01*
G03X-1659746Y-230188I10259J275623D01*
G01X-1865104Y579644D02*
G03X-1990918Y361728I-62907J-108958D01*
G03X-1865104Y579644I62907J108958D01*
G01X-1680530Y1247161D02*
G03X-1547902Y1247161I66314J0D01*
G03X-1680530Y1247161I-66314J0D01*
G01X-1632241Y600753D02*
G03X-1499613Y600753I66314J0D01*
G03X-1632241Y600753I-66314J0D01*
G01X-1576311Y1039998D02*
G03X-1443683Y1039998I66314J0D01*
G03X-1576311Y1039998I-66314J0D01*
G01X-1315105Y1532270D02*
G03X-1440919Y1314354I-62907J-108958D01*
G03X-1315105Y1532270I62907J108958D01*
G01X-1456311Y559999D02*
G03X-1323683Y559999I66314J0D01*
G03X-1456311Y559999I-66314J0D01*
G01X-1381311Y739701D02*
G03X-1248683Y739701I66314J0D01*
G03X-1381311Y739701I-66314J0D01*
G01X-1343814Y-1554000D02*
G03X-1122186Y-1554000I110814J0D01*
G03X-1343814Y-1554000I-110814J0D01*
G01X-1201304Y921170D02*
G03X-1211943Y818832I36301J-55496D01*
G03X-1196703Y713744I46940J-46842D01*
G03X-1100180Y758006I31700J58246D01*
G03X-1094782Y757804I5178J66112D01*
G03X-996847Y714560I64779J14186D01*
G03X-985326Y820995I-33156J57430D01*
G03X-994096Y925753I-44677J49005D01*
G03X-1093100Y890404I-35906J-55752D01*
G03X-1103277Y889913I-1903J-66287D01*
G03X-1201304Y921170I-61725J-24239D01*
G01X-380299Y-285628D02*
G03X-394508Y-319932I34305J-34305D01*
G01X-394508Y-640769D01*
G01X-461342Y-707604D01*
G01X-781118Y-707604D01*
G03X-815422Y-721813I0J-48514D01*
G01X-899303Y-805694D01*
G03X-913485Y-838369I34305J-34305D01*
G01X-914420Y-866184D01*
G03X-869680Y-979275I46968J-46814D01*
G03X-817447Y-869443I2228J66277D01*
G01X-817155Y-860764D01*
G01X-761022Y-804632D01*
G01X-441247Y-804632D01*
G03X-406943Y-790422I0J48514D01*
G01X-311690Y-695169D01*
G03X-303513Y-684295I-34305J34305D01*
G01X-303513Y-709706D01*
G01X-405292Y-811484D01*
G01X-529999Y-811484D01*
G03X-564304Y-825694I0J-48514D01*
G01X-671405Y-932795D01*
G03X-685614Y-967099I34305J-34305D01*
G01X-685614Y-1584668D01*
G03X-696945Y-1658446I48514J-45210D01*
G01X-717695Y-1637695D01*
G03X-752000Y-1623486I-34305J-34305D01*
G01X-954368Y-1623486D01*
G03X-1151975Y-1710102I-88632J-66514D01*
G03X-936470Y-1720514I108975J20102D01*
G01X-906999Y-1720514D01*
G03X-858776Y-1910774I73999J-82486D01*
G03X-729688Y-1762921I25776J107774D01*
G01X-722318Y-1770291D01*
G03X-688013Y-1784501I34305J34305D01*
G01X-562709Y-1784501D01*
G03X-528405Y-1770291I0J48514D01*
G01X-419624Y-1661511D01*
G01X-195997Y-1661511D01*
G03X-161692Y-1647301I0J48514D01*
G01X-14676Y-1500285D01*
G03X-466Y-1465980I-34305J34305D01*
G01X-466Y-1061692D01*
G03X-14676Y-1027387I-48514J0D01*
G01X-131371Y-910692D01*
G03X-165676Y-896483I-34305J-34305D01*
G01X-195289Y-896483D01*
G03X-306813Y-944997I-45210J-48514D01*
G03X-195289Y-993511I66314J0D01*
G01X-185771Y-993511D01*
G01X-97494Y-1081787D01*
G01X-97494Y-1445885D01*
G01X-216092Y-1564483D01*
G01X-439719Y-1564483D01*
G03X-474024Y-1578692I0J-48514D01*
G01X-582804Y-1687473D01*
G01X-604232Y-1687473D01*
G03X-588586Y-1584668I-32869J57595D01*
G01X-588586Y-1454834D01*
G03X-507629Y-1435677I28586J59836D01*
G03X-509095Y-1352498I-52371J40680D01*
G03X-495590Y-1294216I-50904J42500D01*
G03X-449515Y-1176996I3701J66211D01*
G03X-556298Y-1243787I-42374J-51010D01*
G03X-588586Y-1250161I-3701J-66211D01*
G01X-588586Y-987195D01*
G01X-509904Y-908512D01*
G01X-385197Y-908512D01*
G03X-350892Y-894303I0J48514D01*
G01X-220695Y-764106D01*
G03X-206485Y-729801I-34305J34305D01*
G01X-206485Y-420209D01*
G03X-196915Y-343003I-48514J45210D01*
G03X-267286Y-309833I-58085J-31996D01*
G01X97805Y55257D01*
G03X111834Y85381I-34305J34305D01*
G03X72264Y196516I-48334J45403D01*
G03X4959Y99630I-8764J-65732D01*
G01X-380299Y-285628D01*
G01X-1091312Y-1132661D02*
G03X-958684Y-1132661I66314J0D01*
G03X-1091312Y-1132661I-66314J0D01*
G01X-1081314Y1140001D02*
G03X-948686Y1140001I66314J0D01*
G03X-1081314Y1140001I-66314J0D01*
G01X-831581Y369763D02*
G03X-992395Y91226I-80407J-139269D01*
G03X-831581Y369763I80407J139269D01*
G01X-946312Y1140001D02*
G03X-813684Y1140001I66314J0D01*
G03X-946312Y1140001I-66314J0D01*
G01X-826313Y-1549881D02*
G03X-693684Y-1549881I66314J0D01*
G03X-826313Y-1549881I-66314J0D01*
G01X-639303Y-190695D02*
G03X-653513Y-225000I34305J-34305D01*
G01X-653513Y-586566D01*
G03X-644379Y-685131I48514J-45210D01*
G03X-547499Y-664811I39380J53355D01*
G03X-450619Y-685131I57500J33035D01*
G03X-441485Y-586566I-39380J53355D01*
G01X-441485Y-305095D01*
G01X-157697Y-21306D01*
G03X-143487Y12998I-34305J34305D01*
G01X-143487Y1157214D01*
G03X-133459Y1154655I21359J62780D01*
G03X-22019Y1109484I66230J3342D01*
G01X95761Y1109484D01*
G03X104487Y1030787I57239J-33486D01*
G01X104487Y1002350D01*
G03X118697Y968047I48514J1D01*
G01X207708Y879036D01*
G03X242012Y864827I34305J34305D01*
G01X363548Y864827D01*
G03X396863Y752501I46452J-47326D01*
G03X410000Y621187I13137J-65000D01*
G03X423137Y752501I0J66314D01*
G03X456452Y864827I-13137J65000D01*
G01X475448Y864827D01*
G01X511330Y828945D01*
G03X545634Y814735I34305J34305D01*
G01X607301Y814735D01*
G03X661986Y502691I54685J-151230D01*
G03X716671Y814735I0J160814D01*
G01X828249Y814735D01*
G03X841484Y816575I0J48514D01*
G01X841484Y545094D01*
G01X534320Y237930D01*
G03X520110Y203625I34305J-34305D01*
G01X520110Y-417809D01*
G01X458669Y-479251D01*
G01X210792Y-479251D01*
G03X113262Y-487019I-45210J-48514D01*
G03X129619Y-583480I52320J-40746D01*
G01X35210Y-583480D01*
G03X-76314Y-631994I-45210J-48514D01*
G03X35210Y-680508I66314J0D01*
G01X630296Y-680508D01*
G03X664601Y-666299I0J48514D01*
G01X1124832Y-206068D01*
G03X1139041Y-171763I-34305J34305D01*
G01X1139041Y965432D01*
G01X1217861Y1044252D01*
G01X1481369Y1044252D01*
G01X1551483Y974138D01*
G01X1551483Y965208D01*
G03X1599997Y853684I48514J-45210D01*
G03X1648511Y965208I0J66314D01*
G01X1648511Y994233D01*
G03X1634301Y1028537I-48514J0D01*
G01X1535768Y1127070D01*
G03X1501464Y1141280I-34305J-34305D01*
G01X1197765Y1141280D01*
G03X1163461Y1127070I0J-48514D01*
G01X1056223Y1019832D01*
G03X1042013Y985528I34305J-34305D01*
G01X1042013Y325118D01*
G03X751172Y230493I-130028J-94625D01*
G03X1042013Y135869I160814J0D01*
G01X1042013Y-151668D01*
G01X610201Y-583480D01*
G01X201545Y-583480D01*
G03X210792Y-576279I-35963J55716D01*
G01X478764Y-576279D01*
G03X513069Y-562069I0J48514D01*
G01X602929Y-472209D01*
G03X617138Y-437905I-34305J34305D01*
G01X617138Y183530D01*
G01X924303Y490694D01*
G03X938512Y524999I-34305J34305D01*
G01X938512Y1077788D01*
G03X889998Y1189312I-48514J45210D01*
G03X841484Y1077788I0J-66314D01*
G01X841484Y945093D01*
G01X826142Y929751D01*
G03X750986Y990697I-66144J-4753D01*
G03X695019Y911763I9013J-65699D01*
G01X565730Y911763D01*
G01X529848Y947645D01*
G03X495543Y961855I-34305J-34305D01*
G01X262107Y961855D01*
G01X201515Y1022447D01*
G01X201515Y1030789D01*
G03X211852Y1106559I-48515J45209D01*
G03X220004Y1201553I-41852J51439D01*
G03X124790Y1206512I-50005J-43556D01*
G01X-22019Y1206512D01*
G03X-55898Y1223337I-45210J-48514D01*
G03X-64069Y1252037I-66230J-3342D01*
G01X354350Y1252037D01*
G01X368726Y1237661D01*
G03X481891Y1193107I66273J2337D01*
G03X437335Y1306270I-46891J46891D01*
G01X408749Y1334856D01*
G03X374445Y1349065I-34304J-34305D01*
G01X-174064Y1349065D01*
G03X-208368Y1334855I0J-48514D01*
G01X-299291Y1243932D01*
G03X-313501Y1209628I34305J-34305D01*
G01X-313501Y1153671D01*
G03X-398316Y1089990I-18502J-63681D01*
G03X-313501Y1026309I66314J0D01*
G01X-313501Y738788D01*
G03X-353816Y742857I-26499J-60790D01*
G03X-455001Y803325I-66185J4143D01*
G03X-548772Y777712I-34998J-56327D01*
G03X-819012Y698214I-113217J-114206D01*
G03X-607454Y512221I157024J-34708D01*
G03X-587424Y439687I62652J-21732D01*
G03X-512513Y432568I42622J50803D01*
G03X-436997Y440200I32289J57922D01*
G03X-418109Y513713I-43226J50289D01*
G03X-361197Y549345I-1891J66287D01*
G03X-364573Y616406I-58803J30656D01*
G03X-313501Y617209I24573J61593D01*
G01X-313501Y135108D01*
G01X-639303Y-190695D01*
G01X-479186Y1370000D02*
G03X-750814Y1370000I-135814J0D01*
G03X-479186Y1370000I135814J0D01*
G01X-676429Y953507D02*
G03X-543801Y953507I66314J0D01*
G03X-676429Y953507I-66314J0D01*
G01X-476313Y-1754361D02*
G03X-343685Y-1754361I66314J0D01*
G03X-476313Y-1754361I-66314J0D01*
G01X135772Y1503395D02*
G03X-135436Y1510132I-135772J-3394D01*
G03X-143678Y1530004I-64565J-15132D01*
G03X-155310Y1613988I-56328J34995D01*
G03X-240006Y1617892I-44696J-48988D01*
G03X-324705Y1613984I-40000J-52892D01*
G03X-336328Y1529995I44700J-48985D01*
G03X-324696Y1446011I56328J-34995D01*
G03X-240000Y1442108I44696J48988D01*
G03X-175925Y1433210I40000J52892D01*
G03X-134760Y1483113I-24075J61789D01*
G03X135772Y1503395I134760J16887D01*
G01X-316314Y-1754361D02*
G03X-183685Y-1754361I66314J0D01*
G03X-316314Y-1754361I-66314J0D01*
G01X-311314Y-1114998D02*
G03X-178685Y-1114998I66314J0D01*
G03X-311314Y-1114998I-66314J0D01*
G01X-115814Y539988D02*
G03X-92796Y489988I65814J0D01*
G03X-96537Y393450I42796J-50000D01*
G03X0Y397192I46537J46537D01*
G03X96537Y393450I50000J42796D01*
G03X92796Y489988I-46537J46537D01*
G03X115814Y539988I-42796J50000D01*
G03X92796Y589988I-65814J0D01*
G03X115814Y639988I-42796J50000D01*
G03X92796Y689987I-65814J0D01*
G03X96537Y786525I-42796J50000D01*
G03X0Y782783I-46537J-46537D01*
G03X-96537Y786525I-50000J-42796D01*
G03X-92796Y689987I46537J-46537D01*
G03X-115814Y639988I42796J-50000D01*
G03X-92796Y589988I65814J0D01*
G03X-115814Y539988I42796J-50000D01*
G01X-66314Y-1976997D02*
G03X66314Y-1976997I66314J0D01*
G03X-66314Y-1976997I-66314J0D01*
G01X603658Y-782729D02*
G01X193361Y-782729D01*
G03X81837Y-831243I-45210J-48514D01*
G03X193361Y-879757I66314J0D01*
G01X623754Y-879757D01*
G03X658058Y-865548I0J48514D01*
G01X1249302Y-274304D01*
G03X1263512Y-240000I-34305J34305D01*
G01X1263512Y800158D01*
G03X1276483Y779788I61486J24841D01*
G01X1276483Y-284904D01*
G01X649904Y-911484D01*
G01X335209Y-911484D01*
G03X237255Y-919804I-45210J-48514D01*
G03X255214Y-1016456I52744J-40194D01*
G03X237071Y-1113129I34650J-56542D01*
G03X335074Y-1121512I52792J40131D01*
G01X836998Y-1121512D01*
G03X871303Y-1107302I0J48514D01*
G01X1514302Y-464304D01*
G03X1528511Y-429999I-34305J34305D01*
G01X1528511Y614789D01*
G03X1479997Y726313I-48514J45210D01*
G03X1431483Y614789I0J-66314D01*
G01X1431483Y-409904D01*
G01X1093529Y-747858D01*
G03X1034726Y-663880I-63864J17858D01*
G01X1359302Y-339304D01*
G03X1373511Y-304999I-34305J34305D01*
G01X1373511Y779788D01*
G03X1360618Y880933I-48514J45210D01*
G03X1263512Y849839I-35621J-55935D01*
G01X1263512Y874788D01*
G03X1214998Y986312I-48514J45210D01*
G03X1166484Y874788I0J-66314D01*
G01X1166484Y-219904D01*
G01X603658Y-782729D01*
G01X203685Y86303D02*
G03X336314Y86303I66314J0D01*
G03X203685Y86303I-66314J0D01*
G01X418289Y-1349548D02*
G03X305920Y-1412070I-48290J-45449D01*
G03X236710Y-1520446I-20921J-62927D01*
G03X349078Y-1457925I48290J45449D01*
G03X418289Y-1349548I20921J62927D01*
G01X275304Y1466012D02*
G03X360000Y1462108I44696J48988D01*
G03X444699Y1466015I40000J52892D01*
G03X456323Y1550004I-44699J48985D01*
G03X444691Y1633988I-56328J34996D01*
G03X359995Y1637892I-44696J-48988D01*
G03X275296Y1633985I-40000J-52892D01*
G03X263672Y1549996I44699J-48985D01*
G03X275304Y1466012I56328J-34996D01*
G01X439776Y145353D02*
G03X462596Y264626I-14777J64647D01*
G03X454832Y341247I-57596J32868D01*
G03X460291Y421612I-49832J43753D01*
G03X453004Y546070I-26228J60907D01*
G03X378772Y445907I-18940J-63552D01*
G03X355168Y341247I26228J-60907D01*
G03X367403Y242867I49832J-43753D01*
G03X439776Y145353I57596J-32868D01*
G01X535638Y-1265706D02*
G03X489883Y-1248698I-44361J-49292D01*
G03X382692Y-1183932I-64883J13700D01*
G03X426394Y-1301297I42307J-51066D01*
G03X458152Y-1372445I64883J-13700D01*
G03X535638Y-1364289I33125J57448D01*
G03X622172Y-1366174I44361J49292D01*
G03X636860Y-1280875I-42173J51176D01*
G03X688276Y-1161715I13156J64996D01*
G03X593154Y-1250001I-38261J-54163D01*
G03X535638Y-1265706I-13156J-64996D01*
G01X468685Y-1604660D02*
G03X601313Y-1604660I66314J0D01*
G03X468685Y-1604660I-66314J0D01*
G01X750814Y1370000D02*
G03X479186Y1370000I-135814J0D01*
G03X750814Y1370000I135814J0D01*
G01X703341Y1215189D02*
G03X610538Y1209168I-43340J-50191D01*
G03X517735Y1215189I-49462J-44170D01*
G03X510169Y1122499I43340J-50191D01*
G03X517735Y1029809I50906J-42499D01*
G03X610538Y1035830I43340J50191D01*
G03X703341Y1029809I49462J44170D01*
G03X710907Y1122499I-43340J50191D01*
G03X703341Y1215189I-50906J42499D01*
G01X763684Y-1589997D02*
G03X896312Y-1589997I66314J0D01*
G03X763684Y-1589997I-66314J0D01*
G01X1128687Y-1090001D02*
G03X1261315Y-1090001I66314J0D01*
G03X1128687Y-1090001I-66314J0D01*
G01X1128688Y-890001D02*
G03X1261316Y-890001I66314J0D01*
G03X1128688Y-890001I-66314J0D01*
G01X1440917Y1314353D02*
G03X1315103Y1532269I-62907J108958D01*
G03X1440917Y1314353I62907J-108958D01*
G01X1753682Y-253658D02*
G03X1886310Y-253658I66314J0D01*
G03X1753682Y-253658I-66314J0D01*
G01X1753687Y127999D02*
G03X1886315Y127999I66314J0D01*
G03X1753687Y127999I-66314J0D01*
G01X1753687Y-7337D02*
G03X1886315Y-7337I66314J0D01*
G03X1753687Y-7337I-66314J0D01*
G01X1990916Y361727D02*
G03X1865102Y579643I-62907J108958D01*
G03X1990916Y361727I62907J-108958D01*
G01X1807898Y796827D02*
G03X1940526Y796827I66314J0D01*
G03X1807898Y796827I-66314J0D01*
G04 Copper End*

G04 PolygonModel Start*
G54D11*
G01X-122128Y1219994D02*
G01X-158955Y1219994D01*
G01X-192001Y1186948D01*
G01X-192001Y12998D01*
G01X-489999Y-284999D01*
G01X-489999Y-631776D01*
G01X434999Y1239998D02*
G01X374445Y1300551D01*
G01X-174064Y1300551D01*
G01X-264987Y1209628D01*
G01X-264987Y115012D01*
G01X-604999Y-225000D01*
G01X-604999Y-631776D01*
G01X63500Y130784D02*
G01X63500Y89562D01*
G01X-345994Y-319932D01*
G01X-345994Y-660865D01*
G01X-441247Y-756118D01*
G01X-781118Y-756118D01*
G01X-864998Y-839998D01*
G01X-867452Y-912998D01*
G01X-254999Y-374999D02*
G01X-254999Y-729801D01*
G01X-385197Y-859998D01*
G01X-529999Y-859998D01*
G01X-637100Y-967099D01*
G01X-637100Y-1629878D01*
G01X148151Y-831243D02*
G01X623754Y-831243D01*
G01X1214998Y-240000D01*
G01X1214998Y919998D01*
G01X289999Y-959998D02*
G01X669999Y-959998D01*
G01X1324997Y-304999D01*
G01X1324997Y824998D01*
G01X289864Y-1072998D02*
G01X836998Y-1072998D01*
G01X1479997Y-429999D01*
G01X1479997Y659999D01*
G01X-10000Y-631994D02*
G01X630296Y-631994D01*
G01X1090527Y-171763D01*
G01X1090527Y985528D01*
G01X1197765Y1092766D01*
G01X1501464Y1092766D01*
G01X1599997Y994233D01*
G01X1599997Y919998D01*
G01X153000Y1075998D02*
G01X153001Y1002351D01*
G01X242012Y913341D01*
G01X495543Y913341D01*
G01X545634Y863249D01*
G01X828249Y863249D01*
G01X889998Y924998D01*
G01X889998Y1122998D01*
G01X889998Y1119661D02*
G01X889998Y524999D01*
G01X568624Y203625D01*
G01X568624Y-437905D01*
G01X478764Y-527765D01*
G01X165367Y-527765D01*
G01X-66229Y1157998D02*
G01X170000Y1157998D01*
G01X-240499Y-944997D02*
G01X-165676Y-944997D01*
G01X-48980Y-1061692D01*
G01X-48980Y-1465980D01*
G01X-195997Y-1612997D01*
G01X-439719Y-1612997D01*
G01X-562709Y-1735987D01*
G01X-688013Y-1735987D01*
G01X-752000Y-1672000D01*
G01X-1025000Y-1672000D01*
G01X-1043000Y-1690000D01*

G04 Pad Start*
G54D12*
G01X-1916996Y-329665D03*
G01X1243996Y-1495335D03*
G54D13*
G01X673000Y1825000D03*
G54D14*
G01X-1361000Y-1357000D03*
G01X-1233000Y-1554000D03*
G01X-1043000Y-1690000D03*
G01X-833000Y-1803000D03*
G54D16*
G01X911985Y230493D03*
G01X661986Y663505D03*
G54D17*
G01X1378010Y1423311D03*
G01X1928009Y470685D03*
G54D16*
G01X-661988Y663506D03*
G01X-911988Y230494D03*
G54D17*
G01X-1928011Y470686D03*
G01X-1378012Y1423312D03*
G04 Pad End*

G04 Via Start*
G54D18*
G01X-480223Y490490D03*
G01X-420000Y580000D03*
G01X-420000Y747000D03*
G01X-1030003Y870001D03*
G01X-1030003Y771990D03*
G01X399995Y1585000D03*
G01X400000Y1515000D03*
G01X-200006Y1565000D03*
G01X-200000Y1495000D03*
G01X561076Y1080001D03*
G01X660000Y1080001D03*
G01X434063Y482518D03*
G01X534999Y-1604660D03*
G01X-759998Y-1549881D03*
G01X1195001Y-1090001D03*
G01X424999Y210000D03*
G01X424999Y-1234998D03*
G01X405000Y297494D03*
G01X491277Y-1314997D03*
G01X405000Y385000D03*
G01X410000Y687501D03*
G01X650016Y-1215879D03*
G01X410000Y817501D03*
G01X369999Y-1394997D03*
G01X759998Y924998D03*
G01X284999Y-1474997D03*
G01X579999Y-1314997D03*
G01X-122128Y1219994D03*
G01X434999Y1239998D03*
G01X-489999Y-631776D03*
G01X-604999Y-631776D03*
G01X63500Y130784D03*
G01X-254999Y-374999D03*
G01X-637100Y-1629878D03*
G01X269999Y86303D03*
G01X-240499Y-944997D03*
G01X-245000Y-1114998D03*
G01X-560000Y-1394997D03*
G01X1195002Y-890001D03*
G01X-10000Y-631994D03*
G01X148151Y-831243D03*
G01X289999Y-959998D03*
G01X289864Y-1072998D03*
G01X-867452Y-912998D03*
G01X1214998Y919998D03*
G01X1324997Y824998D03*
G01X1479997Y659999D03*
G01X1599997Y919998D03*
G01X-67229Y1157998D03*
G01X170000Y1157998D03*
G01X-544802Y490490D03*
G01X-489999Y746999D03*
G01X-489999Y580000D03*
G01X829998Y-1589997D03*
G01X-559999Y-1309997D03*
G01X1029664Y-730001D03*
G01X153000Y1075998D03*
G01X-332002Y1089990D03*
G01X889998Y1122998D03*
G01X-1509997Y1039998D03*
G01X-1565927Y600753D03*
G01X-1389997Y559999D03*
G01X-1314997Y739701D03*
G01X-1165003Y865675D03*
G01X-1165003Y771990D03*
G01X-1095002Y824118D03*
G01X-280006Y1565000D03*
G01X-280000Y1495000D03*
G01X319995Y1585000D03*
G01X320000Y1515000D03*
G01X561076Y1164998D03*
G01X660000Y1164998D03*
G01X-610115Y953507D03*
G01X-879998Y1140001D03*
G01X-1015000Y1140001D03*
G01X911165Y-888816D03*
G01X1820001Y-7337D03*
G01X1820001Y127999D03*
G01X1819996Y-387994D03*
G01X1819996Y-253658D03*
G01X0Y-1976997D03*
G01X-249999Y-1754361D03*
G01X-409999Y-1754361D03*
G01X-1614216Y1247161D03*
G01X1874212Y796827D03*
G01X-419917Y-504995D03*
G01X292171Y-420999D03*
G01X-67204Y1017598D03*
G01X1084997Y1125000D03*
G01X158000Y69000D03*
G01X-339999Y677999D03*
G01X165582Y-527765D03*
G01X-491889Y-1228006D03*
G01X-1024998Y-1132661D03*
G54D19*
G01X-50000Y739987D03*
G01X50000Y739987D03*
G01X-50000Y639988D03*
G01X50000Y639988D03*
G01X-50000Y539988D03*
G01X50000Y539988D03*
G01X-50000Y439988D03*
G01X50000Y439988D03*
G04 Via End*

M02*

