G04 Layer: TopPasteMaskLayer*
G04 EasyEDA Pro v2.2.32.3, 2025-06-04 17:09:26*
G04 Gerber Generator version 0.3*
G04 Scale: 100 percent, Rotated: No, Reflected: No*
G04 Dimensions in millimeters*
G04 Leading zeros omitted, absolute positions, 3 integers and 5 decimals*
%FSLAX35Y35*%
%MOMM*%
%AMRect*21,1,$1,$2,0,0,$3*%
%ADD10C,2.5*%
%ADD11R,6.49986X5.99948*%
%ADD12R,2.79908X1.35128*%
%ADD13R,2.79908X1.50114*%
%ADD14R,0.8X0.9*%
%ADD15R,0.9X0.8*%
%ADD16O,1.65001X0.45001*%
%ADD17O,0.45001X1.65001*%
%ADD18R,0.65001X1.7*%
%ADD19R,0.5X1.7*%
%ADD20R,0.8X0.9*%
%ADD21R,0.89992X1.0*%
%ADD22O,1.73149X0.343*%
%ADD23R,2.75001X6.19999*%
%ADD24Rect,3.49999X1.2X-135.0*%
G75*


G04 PolygonModel Start*
G36*
G01X1775001Y179501D02*
G01X1775001Y99501D01*
G01X1780003Y94500D01*
G01X1802799Y94500D01*
G01X1802799Y131500D01*
G01X1835799Y131500D01*
G01X1835799Y94500D01*
G01X1860002Y94500D01*
G01X1865001Y99501D01*
G01X1865001Y179501D01*
G01X1860002Y184500D01*
G01X1780003Y184500D01*
G01X1775001Y179501D01*
G37*
G36*
G01X1864999Y-59503D02*
G01X1864999Y20497D01*
G01X1859997Y25498D01*
G01X1837201Y25498D01*
G01X1837201Y-11502D01*
G01X1804201Y-11502D01*
G01X1804201Y25498D01*
G01X1779997Y25498D01*
G01X1774999Y20497D01*
G01X1774999Y-59503D01*
G01X1779997Y-64502D01*
G01X1859997Y-64502D01*
G01X1864999Y-59503D01*
G37*
G36*
G01X1864995Y-439496D02*
G01X1864995Y-359496D01*
G01X1859993Y-354495D01*
G01X1837197Y-354495D01*
G01X1837197Y-391495D01*
G01X1804197Y-391495D01*
G01X1804197Y-354495D01*
G01X1779994Y-354495D01*
G01X1774995Y-359496D01*
G01X1774995Y-439496D01*
G01X1779994Y-444495D01*
G01X1859993Y-444495D01*
G01X1864995Y-439496D01*
G37*
G36*
G01X1774997Y-200492D02*
G01X1774997Y-280492D01*
G01X1779999Y-285493D01*
G01X1802795Y-285493D01*
G01X1802795Y-248493D01*
G01X1835795Y-248493D01*
G01X1835795Y-285493D01*
G01X1859999Y-285493D01*
G01X1864997Y-280492D01*
G01X1864997Y-200492D01*
G01X1859999Y-195494D01*
G01X1779999Y-195494D01*
G01X1774997Y-200492D01*
G37*
G36*
G01X-1250498Y-64000D02*
G01X-1250498Y63998D01*
G01X-1245496Y68999D01*
G01X-1130495Y68999D01*
G01X-1125497Y63998D01*
G01X-1124994Y22995D01*
G01X-1169995Y22995D01*
G01X-1169995Y-22004D01*
G01X-1125994Y-22004D01*
G01X-1125497Y-64000D01*
G01X-1130495Y-69002D01*
G01X-1245496Y-69002D01*
G01X-1250498Y-64000D01*
G37*
G36*
G01X-909503Y64000D02*
G01X-909503Y-63998D01*
G01X-914504Y-68999D01*
G01X-1029505Y-68999D01*
G01X-1034504Y-63998D01*
G01X-1035007Y-22995D01*
G01X-990005Y-22995D01*
G01X-990005Y22004D01*
G01X-1034006Y22004D01*
G01X-1034504Y64000D01*
G01X-1029505Y69002D01*
G01X-914504Y69002D01*
G01X-909503Y64000D01*
G37*
G36*
G01X-980001Y-1327502D02*
G01X-980001Y-1247502D01*
G01X-985003Y-1242501D01*
G01X-1007799Y-1242501D01*
G01X-1007799Y-1279501D01*
G01X-1040799Y-1279501D01*
G01X-1040799Y-1242501D01*
G01X-1065002Y-1242501D01*
G01X-1070001Y-1247502D01*
G01X-1070001Y-1327502D01*
G01X-1065002Y-1332501D01*
G01X-985003Y-1332501D01*
G01X-980001Y-1327502D01*
G37*
G36*
G01X-1069999Y-1088498D02*
G01X-1069999Y-1168498D01*
G01X-1064997Y-1173499D01*
G01X-1042201Y-1173499D01*
G01X-1042201Y-1136499D01*
G01X-1009201Y-1136499D01*
G01X-1009201Y-1173499D01*
G01X-984998Y-1173499D01*
G01X-979999Y-1168498D01*
G01X-979999Y-1088498D01*
G01X-984998Y-1083499D01*
G01X-1064997Y-1083499D01*
G01X-1069999Y-1088498D01*
G37*

G04 Pad Start*
G54D10*
G01X610000Y1120000D03*
G01X259999Y1499997D03*
G01X-609999Y1620000D03*
G54D11*
G01X1257472Y-351778D03*
G54D12*
G01X562528Y-120892D03*
G54D13*
G01X562528Y-579108D03*
G54D14*
G01X-219997Y-504999D03*
G01X-360002Y-504999D03*
G54D15*
G01X316999Y-1899999D03*
G01X316999Y-1759994D03*
G54D16*
G01X-728149Y-1472997D03*
G01X-728149Y-1392997D03*
G01X-728149Y-1312997D03*
G01X-728149Y-1232998D03*
G01X-728149Y-1152998D03*
G01X-728149Y-1072998D03*
G01X-728149Y-992998D03*
G01X-728149Y-912998D03*
G54D17*
G01X-569999Y-756118D03*
G01X-489999Y-756118D03*
G01X-409999Y-756118D03*
G01X-329999Y-756118D03*
G01X-249999Y-756118D03*
G01X-170000Y-756118D03*
G01X-90000Y-756118D03*
G01X-10000Y-756118D03*
G54D16*
G01X148151Y-912998D03*
G01X148151Y-992998D03*
G01X148151Y-1072998D03*
G01X148151Y-1152998D03*
G01X148151Y-1232998D03*
G01X148151Y-1312997D03*
G01X148151Y-1392997D03*
G01X148151Y-1472997D03*
G54D17*
G01X-10000Y-1629878D03*
G01X-90000Y-1629878D03*
G01X-170000Y-1629878D03*
G01X-249999Y-1629878D03*
G01X-329999Y-1629878D03*
G01X-409999Y-1629878D03*
G01X-489999Y-1629878D03*
G01X-569999Y-1629878D03*
G54D18*
G01X119990Y-1911996D03*
G54D19*
G01X0Y-1911996D03*
G54D18*
G01X-119990Y-1911996D03*
G54D20*
G01X476995Y-792001D03*
G01X617000Y-792001D03*
G54D15*
G01X534999Y-1889999D03*
G01X534999Y-1749994D03*
G54D21*
G01X1195002Y-890001D03*
G01X1024999Y-890001D03*
G01X1195002Y-1090001D03*
G01X1024999Y-1090001D03*
G54D20*
G01X476995Y-998001D03*
G01X617000Y-998001D03*
G54D22*
G01X-286575Y1012504D03*
G01X-286575Y947505D03*
G01X-286575Y882507D03*
G01X-286575Y817508D03*
G01X-286575Y752510D03*
G01X-286575Y687511D03*
G01X-286575Y622487D03*
G01X-286575Y557488D03*
G01X-286575Y492490D03*
G01X-286575Y427491D03*
G01X-286575Y362493D03*
G01X-286575Y297494D03*
G01X-286575Y232495D03*
G01X-286575Y167497D03*
G01X286576Y1012504D03*
G01X286576Y947505D03*
G01X286576Y882507D03*
G01X286576Y817508D03*
G01X286576Y752510D03*
G01X286576Y687511D03*
G01X286576Y622487D03*
G01X286576Y557488D03*
G01X286576Y492490D03*
G01X286576Y427491D03*
G01X286576Y362493D03*
G01X286576Y297494D03*
G01X286576Y232495D03*
G01X286576Y167497D03*
G54D23*
G01X13Y590000D03*
G54D24*
G01X-897208Y-316208D03*
G01X-1274792Y-693792D03*
G04 Pad End*

M02*

