G04 Layer: BottomSolderMaskLayer*
G04 EasyEDA Pro v2.2.32.3, 2025-06-04 17:09:26*
G04 Gerber Generator version 0.3*
G04 Scale: 100 percent, Rotated: No, Reflected: No*
G04 Dimensions in millimeters*
G04 Leading zeros omitted, absolute positions, 3 integers and 5 decimals*
%FSLAX35Y35*%
%MOMM*%
%AMRoundRect*1,1,$1,$2,$3*1,1,$1,$4,$5*1,1,$1,0-$2,0-$3*1,1,$1,0-$4,0-$5*20,1,$1,$2,$3,$4,$5,0*20,1,$1,$4,$5,0-$2,0-$3,0*20,1,$1,0-$2,0-$3,0-$4,0-$5,0*20,1,$1,0-$4,0-$5,$2,$3,0*4,1,4,$2,$3,$4,$5,0-$2,0-$3,0-$4,0-$5,$2,$3,0*%
%ADD10C,4.902*%
%ADD11C,5.102*%
%ADD12C,1.602*%
%ADD13O,0.6704X2.05221*%
%ADD14RoundRect,0.09164X0.40518X-0.45518X-0.40518X-0.45518*%
%ADD15RoundRect,0.09286X0.78384X1.14949X1.38741X0.10408*%
%ADD16RoundRect,0.08571X0.61373X0.65126X0.87088X0.20588*%
%ADD17RoundRect,0.09286X-1.38741X0.10408X-0.78384X1.14949*%
%ADD18RoundRect,0.08571X-0.87088X0.20588X-0.61373X0.65126*%
%ADD19RoundRect,0.08121X0.16176X-0.17219X-0.16176X-0.17219*%
%ADD20RoundRect,0.09193X-0.43684X-0.50484X-0.43684X0.50484*%
%ADD21C,2.602*%
%ADD22C,1.902*%
%ADD23RoundRect,0.09422X-0.57016X0.6924X0.57016X0.6924*%
%ADD24RoundRect,0.08533X-0.21833X0.30834X0.21833X0.30834*%
%ADD25RoundRect,0.08533X0.21833X-0.30834X-0.21833X-0.30834*%
%ADD26RoundRect,0.09193X0.43684X0.50484X0.43684X-0.50484*%
%ADD27RoundRect,0.09138X0.43712X0.40835X0.43712X-0.40835*%
%ADD28RoundRect,0.09138X0.40835X-0.43712X-0.40835X-0.43712*%
%ADD29RoundRect,0.09138X-0.40835X0.43712X0.40835X0.43712*%
%ADD30RoundRect,0.09164X-0.40518X0.45518X0.40518X0.45518*%
%ADD31RoundRect,0.09138X0.43712X0.40835X0.43712X-0.40835*%
%ADD32RoundRect,0.09138X-0.43712X-0.40835X-0.43712X0.40835*%
%ADD33RoundRect,0.08573X0.25715X-0.85714X-0.25715X-0.85714*%
%ADD34RoundRect,0.09288X0.60357X-1.25357X-0.60357X-1.25357*%
G75*


G04 Pad Start*
G54D10*
G01X-1916996Y-329665D03*
G01X1243996Y-1495335D03*
G54D11*
G01X673000Y1825000D03*
G54D12*
G01X-1361000Y-1357000D03*
G01X-1233000Y-1554000D03*
G01X-1043000Y-1690000D03*
G01X-833000Y-1803000D03*
G54D13*
G01X-190500Y270510D03*
G01X-63500Y270510D03*
G01X63500Y270510D03*
G01X190500Y270510D03*
G01X-190500Y-270510D03*
G01X-63500Y-270510D03*
G01X63500Y-270510D03*
G01X190500Y-270510D03*
G54D14*
G01X-971003Y880001D03*
G01X-830998Y880001D03*
G01X-1020003Y1140001D03*
G01X-879998Y1140001D03*
G54D15*
G01X1614217Y1247150D03*
G54D16*
G01X1524777Y722107D03*
G01X1474778Y808709D03*
G01X1424778Y895311D03*
G01X1374778Y981913D03*
G54D15*
G01X1874212Y796827D03*
G54D17*
G01X-1874210Y796837D03*
G54D18*
G01X-1374789Y981902D03*
G01X-1424789Y895300D03*
G01X-1474789Y808697D03*
G01X-1524788Y722095D03*
G54D17*
G01X-1614216Y1247161D03*
G54D19*
G01X189844Y-420999D03*
G01X238155Y-420999D03*
G54D20*
G01X1820000Y125300D03*
G01X1820000Y-5000D03*
G54D21*
G01X911985Y230493D03*
G01X661986Y663505D03*
G54D22*
G01X1378010Y1423311D03*
G01X1928009Y470685D03*
G54D23*
G01X-396622Y1370000D03*
G01X-203382Y1370000D03*
G54D24*
G01X-202004Y1184994D03*
G01X-267003Y1184994D03*
G01X-332001Y1184994D03*
G54D25*
G01X-332001Y995002D03*
G01X-267003Y995002D03*
G01X-202004Y995002D03*
G54D23*
G01X203379Y1370000D03*
G01X396619Y1370000D03*
G54D24*
G01X397999Y1184996D03*
G01X333000Y1184996D03*
G01X268001Y1184996D03*
G54D25*
G01X268001Y995004D03*
G01X333000Y995004D03*
G01X397999Y995004D03*
G54D21*
G01X-661988Y663506D03*
G01X-911988Y230494D03*
G54D22*
G01X-1928011Y470686D03*
G01X-1378012Y1423312D03*
G54D26*
G01X1819996Y-385300D03*
G01X1819996Y-254700D03*
G54D27*
G01X534999Y-1755333D03*
G01X534999Y-1604660D03*
G54D28*
G01X1034664Y-730001D03*
G01X1185337Y-730001D03*
G54D29*
G01X-244663Y-1114998D03*
G01X-395336Y-1114998D03*
G01X-239663Y-944998D03*
G01X-390336Y-944998D03*
G54D14*
G01X1039998Y-545000D03*
G01X1180003Y-545000D03*
G54D30*
G01X-411997Y207000D03*
G01X-552002Y207000D03*
G01X-411998Y0D03*
G01X-552002Y0D03*
G01X-1009998Y0D03*
G01X-1150003Y0D03*
G54D31*
G01X890000Y1124663D03*
G01X890000Y1275336D03*
G54D32*
G01X1085000Y1275336D03*
G01X1085000Y1124663D03*
G54D33*
G01X-200000Y-1670008D03*
G01X-100000Y-1670008D03*
G01X200000Y-1670008D03*
G01X100000Y-1670008D03*
G01X0Y-1670008D03*
G54D34*
G01X-310007Y-2010012D03*
G01X310007Y-2009987D03*
G54D14*
G01X-1025000Y-1284997D03*
G01X-884996Y-1284997D03*
G04 Pad End*

M02*

