G04 Layer: TopSilkscreenLayer*
G04 EasyEDA Pro v2.2.32.3, 2025-06-04 17:09:26*
G04 Gerber Generator version 0.3*
G04 Scale: 100 percent, Rotated: No, Reflected: No*
G04 Dimensions in millimeters*
G04 Leading zeros omitted, absolute positions, 3 integers and 5 decimals*
%FSLAX35Y35*%
%MOMM*%
%ADD10C,0.2*%
%ADD11C,0.254*%
%ADD12C,0.1524*%
%ADD13C,0.39878*%
%ADD14C,0.3*%
%ADD15C,0.4043*%
%ADD16C,0.4*%
%ADD17C,0.15001*%
G75*


G04 Text Start*
G36*
G01X-32576Y1195301D02*
G01X-6818Y1194998D01*
G01X19546Y1195301D01*
G01X21970Y1196210D01*
G01X24394Y1197725D01*
G01X25909Y1199543D01*
G01X27121Y1201664D01*
G01X28030Y1204392D01*
G01X28333Y1233483D01*
G01X27727Y1261968D01*
G01X26818Y1263786D01*
G01X25909Y1265301D01*
G01X24697Y1266513D01*
G01X23182Y1267725D01*
G01X21364Y1268937D01*
G01X18940Y1270452D01*
G01X15909Y1272271D01*
G01X13485Y1274089D01*
G01X12955Y1274998D01*
G01X13182Y1275907D01*
G01X15303Y1277422D01*
G01X17727Y1278634D01*
G01X20152Y1280149D01*
G01X22273Y1281664D01*
G01X24091Y1283786D01*
G01X26212Y1286513D01*
G01X27424Y1290452D01*
G01X27727Y1316513D01*
G01X27121Y1341058D01*
G01X25909Y1343483D01*
G01X24394Y1345301D01*
G01X22879Y1346513D01*
G01X20758Y1347422D01*
G01X18333Y1348028D01*
G01X-7727Y1348331D01*
G01X-32879Y1348331D01*
G01X-32879Y1309543D01*
G01X-19545Y1309543D01*
G01X-19318Y1329164D01*
G01X-18636Y1335907D01*
G01X-16818Y1335907D01*
G01X-1060Y1335604D01*
G01X13788Y1335604D01*
G01X13788Y1312573D01*
G01X13561Y1295225D01*
G01X12879Y1289240D01*
G01X10455Y1287725D01*
G01X2273Y1282270D01*
G01X152Y1281361D01*
G01X-9545Y1281058D01*
G01X-18636Y1281361D01*
G01X-18636Y1281361D01*
G01X-19242Y1282574D01*
G01X-19545Y1309543D01*
G01X-32879Y1309543D01*
G01X-32879Y1271967D01*
G01X-32747Y1238634D01*
G01X-19545Y1238634D01*
G01X-19545Y1268937D01*
G01X-8939Y1268937D01*
G01X-833Y1268710D01*
G01X2273Y1268028D01*
G01X4091Y1266816D01*
G01X5909Y1265907D01*
G01X8030Y1264392D01*
G01X10455Y1262877D01*
G01X12273Y1261664D01*
G01X13788Y1260149D01*
G01X14394Y1233483D01*
G01X14394Y1207725D01*
G01X-2273Y1207725D01*
G01X-19242Y1208028D01*
G01X-19242Y1208028D01*
G01X-19545Y1238634D01*
G01X-32747Y1238634D01*
G01X-32576Y1195301D01*
G37*
G36*
G01X-453637Y1291213D02*
G01X-451970Y1290304D01*
G01X-447576Y1290001D01*
G01X-443106Y1290228D01*
G01X-441212Y1290910D01*
G01X-440606Y1293334D01*
G01X-440303Y1295758D01*
G01X-439697Y1298183D01*
G01X-439394Y1301213D01*
G01X-439091Y1303637D01*
G01X-437879Y1309698D01*
G01X-437273Y1315152D01*
G01X-436667Y1318183D01*
G01X-436061Y1321819D01*
G01X-435455Y1323940D01*
G01X-420303Y1324546D01*
G01X-409167Y1324243D01*
G01X-405455Y1323334D01*
G01X-405152Y1321213D01*
G01X-404546Y1318183D01*
G01X-403334Y1309698D01*
G01X-402728Y1306667D01*
G01X-402122Y1303031D01*
G01X-401516Y1298183D01*
G01X-400909Y1295152D01*
G01X-400606Y1293031D01*
G01X-399394Y1290910D01*
G01X-397197Y1290228D01*
G01X-393031Y1290001D01*
G01X-389015Y1290228D01*
G01X-387273Y1290910D01*
G01X-386970Y1294546D01*
G01X-387879Y1299092D01*
G01X-388485Y1302425D01*
G01X-388788Y1304849D01*
G01X-390000Y1311516D01*
G01X-390606Y1315758D01*
G01X-391212Y1318183D01*
G01X-391818Y1321819D01*
G01X-392425Y1325758D01*
G01X-393031Y1328486D01*
G01X-393637Y1332122D01*
G01X-394243Y1336365D01*
G01X-394849Y1338789D01*
G01X-395455Y1343031D01*
G01X-396667Y1349092D01*
G01X-397273Y1353334D01*
G01X-398485Y1359395D01*
G01X-398788Y1361819D01*
G01X-400000Y1367274D01*
G01X-400606Y1372122D01*
G01X-401213Y1374849D01*
G01X-401819Y1377880D01*
G01X-402122Y1380607D01*
G01X-402425Y1382728D01*
G01X-403031Y1385152D01*
G01X-403637Y1388183D01*
G01X-403940Y1390910D01*
G01X-405152Y1396971D01*
G01X-405758Y1401213D01*
G01X-406364Y1403637D01*
G01X-406970Y1407274D01*
G01X-407576Y1411516D01*
G01X-408788Y1417577D01*
G01X-409091Y1420910D01*
G01X-409697Y1423031D01*
G01X-410303Y1425758D01*
G01X-410606Y1428486D01*
G01X-410910Y1430607D01*
G01X-411516Y1433031D01*
G01X-412122Y1436365D01*
G01X-412425Y1439395D01*
G01X-413031Y1441819D01*
G01X-413334Y1443334D01*
G01X-426667Y1443334D01*
G01X-427576Y1438789D01*
G01X-428485Y1435152D01*
G01X-429091Y1431213D01*
G01X-429394Y1428486D01*
G01X-430000Y1426061D01*
G01X-430606Y1423031D01*
G01X-431212Y1419395D01*
G01X-431819Y1416364D01*
G01X-432425Y1412122D01*
G01X-433637Y1406667D01*
G01X-434243Y1401819D01*
G01X-435455Y1396364D01*
G01X-436061Y1391516D01*
G01X-437273Y1385455D01*
G01X-437879Y1381213D01*
G01X-438485Y1378789D01*
G01X-439697Y1371516D01*
G01X-440303Y1369092D01*
G01X-441212Y1362728D01*
G01X-441819Y1360304D01*
G01X-442425Y1357274D01*
G01X-442728Y1354546D01*
G01X-443940Y1348486D01*
G01X-444546Y1344243D01*
G01X-445758Y1338183D01*
G01X-445931Y1336971D01*
G01X-433637Y1336971D01*
G01X-433637Y1338789D01*
G01X-433031Y1341213D01*
G01X-432425Y1346062D01*
G01X-431819Y1350304D01*
G01X-431212Y1352728D01*
G01X-430909Y1355456D01*
G01X-430606Y1357577D01*
G01X-429394Y1363637D01*
G01X-428788Y1368486D01*
G01X-428182Y1371516D01*
G01X-427576Y1375152D01*
G01X-427273Y1377880D01*
G01X-426970Y1380001D01*
G01X-426364Y1382425D01*
G01X-426061Y1385152D01*
G01X-425758Y1387274D01*
G01X-424546Y1393334D01*
G01X-423940Y1398183D01*
G01X-423637Y1400304D01*
G01X-423031Y1402728D01*
G01X-422425Y1406364D01*
G01X-422122Y1409698D01*
G01X-421516Y1412425D01*
G01X-421061Y1413713D01*
G01X-420303Y1413940D01*
G01X-419621Y1413334D01*
G01X-419394Y1412122D01*
G01X-419091Y1409698D01*
G01X-418788Y1406971D01*
G01X-418182Y1403940D01*
G01X-417576Y1400607D01*
G01X-417273Y1397577D01*
G01X-416970Y1395152D01*
G01X-416364Y1392425D01*
G01X-415758Y1389395D01*
G01X-415455Y1386668D01*
G01X-414849Y1381819D01*
G01X-414243Y1379395D01*
G01X-413637Y1375152D01*
G01X-412425Y1367880D01*
G01X-411819Y1363334D01*
G01X-411213Y1360607D01*
G01X-410606Y1356971D01*
G01X-410000Y1352425D01*
G01X-409394Y1349698D01*
G01X-408788Y1345456D01*
G01X-408182Y1340607D01*
G01X-407576Y1338183D01*
G01X-407273Y1336668D01*
G01X-420303Y1336668D01*
G01X-433637Y1336971D01*
G01X-433637Y1336971D01*
G01X-445931Y1336971D01*
G01X-446364Y1333940D01*
G01X-446970Y1331516D01*
G01X-448182Y1324243D01*
G01X-448788Y1321819D01*
G01X-449697Y1315455D01*
G01X-450303Y1313031D01*
G01X-450909Y1309698D01*
G01X-451212Y1306667D01*
G01X-452425Y1301213D01*
G01X-453031Y1296364D01*
G01X-453637Y1293940D01*
G01X-453637Y1291213D01*
G37*
G36*
G01X779697Y1280607D02*
G01X802728Y1280000D01*
G01X824546Y1280304D01*
G01X826970Y1281213D01*
G01X829092Y1282728D01*
G01X830607Y1284243D01*
G01X831819Y1286061D01*
G01X832728Y1288182D01*
G01X833334Y1309395D01*
G01X833334Y1329698D01*
G01X831819Y1330001D01*
G01X825152Y1330304D01*
G01X820001Y1330304D01*
G01X819698Y1328789D01*
G01X819395Y1310001D01*
G01X819395Y1292728D01*
G01X785455Y1292728D01*
G01X785455Y1356667D01*
G01X785682Y1404698D01*
G01X786364Y1420910D01*
G01X788182Y1420910D01*
G01X803334Y1420607D01*
G01X818485Y1420910D01*
G01X819167Y1416819D01*
G01X819395Y1403940D01*
G01X819395Y1386667D01*
G01X832728Y1386667D01*
G01X833031Y1388182D01*
G01X833334Y1407273D01*
G01X832728Y1425758D01*
G01X831819Y1427577D01*
G01X830910Y1429092D01*
G01X828789Y1430910D01*
G01X826061Y1432425D01*
G01X823940Y1433031D01*
G01X801516Y1433334D01*
G01X779091Y1432728D01*
G01X777273Y1431819D01*
G01X775758Y1430910D01*
G01X774243Y1429092D01*
G01X772728Y1426364D01*
G01X772122Y1356061D01*
G01X772728Y1286364D01*
G01X773940Y1284546D01*
G01X775455Y1283031D01*
G01X776970Y1281819D01*
G01X779697Y1280607D01*
G37*
G36*
G01X-1161667Y-1450636D02*
G01X-1161364Y-1449121D01*
G01X-1161061Y-1446697D01*
G01X-1160455Y-1443970D01*
G01X-1160303Y-1442758D01*
G01X-1160000Y-1440939D01*
G01X-1159546Y-1438515D01*
G01X-1159243Y-1436697D01*
G01X-1158939Y-1435182D01*
G01X-1158636Y-1433364D01*
G01X-1158333Y-1431849D01*
G01X-1158030Y-1430636D01*
G01X-1157765Y-1428515D01*
G01X-1151667Y-1428515D01*
G01X-1145454Y-1428667D01*
G01X-1145454Y-1428667D01*
G01X-1138939Y-1428515D01*
G01X-1138636Y-1428212D01*
G01X-1138636Y-1427606D01*
G01X-1138939Y-1425788D01*
G01X-1139242Y-1424273D01*
G01X-1139394Y-1423212D01*
G01X-1139545Y-1421849D01*
G01X-1139848Y-1420636D01*
G01X-1140151Y-1418515D01*
G01X-1140303Y-1417000D01*
G01X-1140606Y-1415333D01*
G01X-1140909Y-1413970D01*
G01X-1141061Y-1412758D01*
G01X-1141364Y-1410636D01*
G01X-1141667Y-1409273D01*
G01X-1141970Y-1407000D01*
G01X-1142273Y-1404879D01*
G01X-1142576Y-1403667D01*
G01X-1142879Y-1401243D01*
G01X-1143485Y-1398212D01*
G01X-1143636Y-1396546D01*
G01X-1143939Y-1394727D01*
G01X-1144242Y-1393364D01*
G01X-1144394Y-1392152D01*
G01X-1144545Y-1390788D01*
G01X-1144848Y-1389727D01*
G01X-1145114Y-1389765D01*
G01X-1145303Y-1390182D01*
G01X-1145606Y-1391243D01*
G01X-1145909Y-1392758D01*
G01X-1146212Y-1394879D01*
G01X-1146515Y-1396697D01*
G01X-1146818Y-1397909D01*
G01X-1147121Y-1400333D01*
G01X-1147727Y-1403667D01*
G01X-1147879Y-1404727D01*
G01X-1148030Y-1406091D01*
G01X-1148333Y-1407303D01*
G01X-1148636Y-1409424D01*
G01X-1148788Y-1410788D01*
G01X-1149091Y-1412758D01*
G01X-1149545Y-1415182D01*
G01X-1149848Y-1417303D01*
G01X-1150152Y-1418515D01*
G01X-1150455Y-1420939D01*
G01X-1151061Y-1423970D01*
G01X-1151212Y-1425333D01*
G01X-1151515Y-1427303D01*
G01X-1151667Y-1428515D01*
G01X-1157765Y-1428515D01*
G01X-1157727Y-1428212D01*
G01X-1157121Y-1425182D01*
G01X-1156970Y-1423818D01*
G01X-1156667Y-1422303D01*
G01X-1156364Y-1421091D01*
G01X-1155909Y-1417909D01*
G01X-1155606Y-1416697D01*
G01X-1155000Y-1413061D01*
G01X-1154697Y-1411849D01*
G01X-1154394Y-1409727D01*
G01X-1153788Y-1406697D01*
G01X-1153636Y-1405182D01*
G01X-1153333Y-1403515D01*
G01X-1153030Y-1402303D01*
G01X-1152576Y-1399121D01*
G01X-1152273Y-1397909D01*
G01X-1151667Y-1394273D01*
G01X-1151364Y-1393061D01*
G01X-1151061Y-1390940D01*
G01X-1150455Y-1387909D01*
G01X-1150152Y-1385485D01*
G01X-1149545Y-1382758D01*
G01X-1149242Y-1380636D01*
G01X-1148939Y-1379273D01*
G01X-1148636Y-1377606D01*
G01X-1148182Y-1375333D01*
G01X-1141515Y-1375333D01*
G01X-1141364Y-1376091D01*
G01X-1141061Y-1377303D01*
G01X-1140757Y-1379424D01*
G01X-1140454Y-1380636D01*
G01X-1139848Y-1384273D01*
G01X-1139545Y-1385485D01*
G01X-1139394Y-1386546D01*
G01X-1139242Y-1387909D01*
G01X-1138939Y-1389424D01*
G01X-1138636Y-1390637D01*
G01X-1138333Y-1393061D01*
G01X-1137727Y-1396091D01*
G01X-1137424Y-1398212D01*
G01X-1137121Y-1399424D01*
G01X-1136818Y-1401546D01*
G01X-1136515Y-1403364D01*
G01X-1136212Y-1404727D01*
G01X-1135909Y-1406697D01*
G01X-1135606Y-1408515D01*
G01X-1135303Y-1409727D01*
G01X-1135000Y-1411849D01*
G01X-1134394Y-1414879D01*
G01X-1134091Y-1417000D01*
G01X-1133788Y-1418212D01*
G01X-1133485Y-1420333D01*
G01X-1133182Y-1422152D01*
G01X-1132879Y-1423364D01*
G01X-1132576Y-1425485D01*
G01X-1132273Y-1427303D01*
G01X-1131970Y-1428667D01*
G01X-1131667Y-1430636D01*
G01X-1131363Y-1432455D01*
G01X-1131060Y-1433667D01*
G01X-1130757Y-1436091D01*
G01X-1130151Y-1438818D01*
G01X-1129848Y-1441242D01*
G01X-1129545Y-1442455D01*
G01X-1128939Y-1446091D01*
G01X-1128636Y-1447303D01*
G01X-1128182Y-1450485D01*
G01X-1128485Y-1451545D01*
G01X-1129204Y-1451886D01*
G01X-1130757Y-1452000D01*
G01X-1133788Y-1451849D01*
G01X-1134621Y-1451545D01*
G01X-1135000Y-1450939D01*
G01X-1135303Y-1449121D01*
G01X-1135606Y-1447606D01*
G01X-1136212Y-1443364D01*
G01X-1136515Y-1442000D01*
G01X-1136818Y-1439727D01*
G01X-1137121Y-1437606D01*
G01X-1137424Y-1436394D01*
G01X-1137576Y-1435333D01*
G01X-1139432Y-1434879D01*
G01X-1145000Y-1434727D01*
G01X-1150606Y-1434841D01*
G01X-1152576Y-1435182D01*
G01X-1152879Y-1436091D01*
G01X-1153182Y-1438515D01*
G01X-1153485Y-1439879D01*
G01X-1153788Y-1442152D01*
G01X-1154091Y-1444273D01*
G01X-1154394Y-1445485D01*
G01X-1154545Y-1446697D01*
G01X-1154697Y-1448212D01*
G01X-1155000Y-1449424D01*
G01X-1155152Y-1450485D01*
G01X-1155455Y-1451545D01*
G01X-1156364Y-1451886D01*
G01X-1158485Y-1452000D01*
G01X-1161515Y-1451849D01*
G01X-1161667Y-1450636D01*
G37*
G36*
G01X-1202424Y-1414121D02*
G01X-1202422Y-1413515D01*
G01X-1195455Y-1413515D01*
G01X-1195303Y-1445485D01*
G01X-1190152Y-1445636D01*
G01X-1190152Y-1445636D01*
G01X-1184394Y-1445485D01*
G01X-1183182Y-1445182D01*
G01X-1181970Y-1444727D01*
G01X-1180455Y-1443818D01*
G01X-1179091Y-1442455D01*
G01X-1178333Y-1440939D01*
G01X-1177879Y-1439576D01*
G01X-1177576Y-1413970D01*
G01X-1177727Y-1388515D01*
G01X-1178030Y-1387455D01*
G01X-1178485Y-1386091D01*
G01X-1179091Y-1385030D01*
G01X-1179546Y-1384273D01*
G01X-1180152Y-1383667D01*
G01X-1180909Y-1383061D01*
G01X-1181970Y-1382303D01*
G01X-1183182Y-1381849D01*
G01X-1194091Y-1381546D01*
G01X-1195000Y-1381546D01*
G01X-1195341Y-1389614D01*
G01X-1195455Y-1413515D01*
G01X-1202422Y-1413515D01*
G01X-1202273Y-1376091D01*
G01X-1202121Y-1375333D01*
G01X-1192576Y-1375333D01*
G01X-1182576Y-1375485D01*
G01X-1181364Y-1375788D01*
G01X-1179697Y-1376242D01*
G01X-1178333Y-1376849D01*
G01X-1177121Y-1377455D01*
G01X-1176061Y-1378212D01*
G01X-1173333Y-1380939D01*
G01X-1172576Y-1382000D01*
G01X-1171818Y-1383364D01*
G01X-1171364Y-1384576D01*
G01X-1170758Y-1387606D01*
G01X-1170606Y-1413212D01*
G01X-1170758Y-1438818D01*
G01X-1170909Y-1439879D01*
G01X-1171212Y-1441546D01*
G01X-1171667Y-1443061D01*
G01X-1172121Y-1444121D01*
G01X-1173333Y-1446242D01*
G01X-1174091Y-1447152D01*
G01X-1175606Y-1448667D01*
G01X-1176818Y-1449576D01*
G01X-1178333Y-1450485D01*
G01X-1179697Y-1451091D01*
G01X-1181364Y-1451545D01*
G01X-1182879Y-1451849D01*
G01X-1192576Y-1452000D01*
G01X-1202121Y-1451697D01*
G01X-1202424Y-1414121D01*
G37*
G36*
G01X-1241515Y-1451242D02*
G01X-1242424Y-1450636D01*
G01X-1243182Y-1449879D01*
G01X-1243788Y-1448970D01*
G01X-1244242Y-1447909D01*
G01X-1244545Y-1437758D01*
G01X-1244242Y-1427455D01*
G01X-1243295Y-1427000D01*
G01X-1241061Y-1426849D01*
G01X-1238788Y-1426962D01*
G01X-1237727Y-1427303D01*
G01X-1237386Y-1429614D01*
G01X-1237273Y-1435636D01*
G01X-1237424Y-1444576D01*
G01X-1237576Y-1445636D01*
G01X-1221212Y-1445636D01*
G01X-1221212Y-1437000D01*
G01X-1221364Y-1427606D01*
G01X-1221970Y-1426546D01*
G01X-1223485Y-1424727D01*
G01X-1224697Y-1423212D01*
G01X-1227727Y-1419576D01*
G01X-1228939Y-1418061D01*
G01X-1231970Y-1414424D01*
G01X-1233182Y-1412909D01*
G01X-1236212Y-1409273D01*
G01X-1237424Y-1407758D01*
G01X-1240454Y-1404121D01*
G01X-1241667Y-1402606D01*
G01X-1242576Y-1401546D01*
G01X-1243333Y-1400333D01*
G01X-1243939Y-1398970D01*
G01X-1244394Y-1397606D01*
G01X-1244545Y-1388818D01*
G01X-1244242Y-1379879D01*
G01X-1243788Y-1378515D01*
G01X-1243182Y-1377455D01*
G01X-1242424Y-1376697D01*
G01X-1241667Y-1376091D01*
G01X-1240757Y-1375636D01*
G01X-1229848Y-1375333D01*
G01X-1218939Y-1375485D01*
G01X-1217727Y-1375788D01*
G01X-1216667Y-1376242D01*
G01X-1215909Y-1376849D01*
G01X-1215151Y-1377758D01*
G01X-1214545Y-1378818D01*
G01X-1214242Y-1388212D01*
G01X-1214394Y-1397909D01*
G01X-1214545Y-1398667D01*
G01X-1217121Y-1398667D01*
G01X-1220455Y-1398515D01*
G01X-1221212Y-1398364D01*
G01X-1221212Y-1381697D01*
G01X-1228485Y-1381697D01*
G01X-1236212Y-1381546D01*
G01X-1237121Y-1381546D01*
G01X-1237424Y-1382000D01*
G01X-1237273Y-1388970D01*
G01X-1237424Y-1396394D01*
G01X-1237273Y-1397606D01*
G01X-1236667Y-1398667D01*
G01X-1232879Y-1403212D01*
G01X-1232121Y-1403970D01*
G01X-1231515Y-1404727D01*
G01X-1230758Y-1405788D01*
G01X-1229848Y-1406849D01*
G01X-1226818Y-1410485D01*
G01X-1225606Y-1412000D01*
G01X-1222576Y-1415636D01*
G01X-1220758Y-1417758D01*
G01X-1219545Y-1419273D01*
G01X-1218788Y-1420030D01*
G01X-1216364Y-1423061D01*
G01X-1215606Y-1424121D01*
G01X-1215000Y-1425333D01*
G01X-1214545Y-1426394D01*
G01X-1214242Y-1437000D01*
G01X-1214394Y-1447606D01*
G01X-1214848Y-1448818D01*
G01X-1215455Y-1449879D01*
G01X-1216061Y-1450636D01*
G01X-1217121Y-1451394D01*
G01X-1218333Y-1451849D01*
G01X-1229242Y-1452000D01*
G01X-1240303Y-1451697D01*
G01X-1241515Y-1451242D01*
G37*
G36*
G01X-1027879Y-1582848D02*
G01X-1016818Y-1583000D01*
G01X-1005909Y-1582848D01*
G01X-1004697Y-1582394D01*
G01X-1003637Y-1581636D01*
G01X-1002879Y-1580879D01*
G01X-1002273Y-1579970D01*
G01X-1001818Y-1578909D01*
G01X-1001515Y-1568455D01*
G01X-1001629Y-1560879D01*
G01X-1001970Y-1558152D01*
G01X-1005303Y-1557849D01*
G01X-1008182Y-1557849D01*
G01X-1008485Y-1558758D01*
G01X-1008788Y-1567849D01*
G01X-1008637Y-1576333D01*
G01X-1010644Y-1576561D01*
G01X-1016970Y-1576636D01*
G01X-1025455Y-1576636D01*
G01X-1025455Y-1544667D01*
G01X-1025341Y-1520652D01*
G01X-1025000Y-1512546D01*
G01X-1024091Y-1512546D01*
G01X-1016515Y-1512697D01*
G01X-1009091Y-1512546D01*
G01X-1008637Y-1512849D01*
G01X-1008637Y-1513758D01*
G01X-1008788Y-1521485D01*
G01X-1008485Y-1529212D01*
G01X-1007462Y-1529553D01*
G01X-1005000Y-1529667D01*
G01X-1001818Y-1529667D01*
G01X-1001667Y-1528909D01*
G01X-1001515Y-1519364D01*
G01X-1001818Y-1510121D01*
G01X-1002273Y-1509212D01*
G01X-1002727Y-1508455D01*
G01X-1003788Y-1507545D01*
G01X-1005152Y-1506788D01*
G01X-1006212Y-1506485D01*
G01X-1017424Y-1506333D01*
G01X-1028636Y-1506636D01*
G01X-1029546Y-1507091D01*
G01X-1030303Y-1507545D01*
G01X-1031061Y-1508455D01*
G01X-1031818Y-1509818D01*
G01X-1032121Y-1511182D01*
G01X-1032273Y-1512243D01*
G01X-1032424Y-1545121D01*
G01X-1032273Y-1578000D01*
G01X-1031970Y-1579212D01*
G01X-1031212Y-1580727D01*
G01X-1030152Y-1581788D01*
G01X-1029091Y-1582394D01*
G01X-1027879Y-1582848D01*
G37*
G36*
G01X-1070303Y-1582697D02*
G01X-1059242Y-1583000D01*
G01X-1048333Y-1582848D01*
G01X-1047121Y-1582394D01*
G01X-1046061Y-1581636D01*
G01X-1045455Y-1580879D01*
G01X-1044849Y-1579818D01*
G01X-1044394Y-1578606D01*
G01X-1044243Y-1568000D01*
G01X-1044546Y-1557394D01*
G01X-1045000Y-1556333D01*
G01X-1045606Y-1555121D01*
G01X-1046364Y-1554061D01*
G01X-1048788Y-1551030D01*
G01X-1049546Y-1550273D01*
G01X-1050758Y-1548758D01*
G01X-1052576Y-1546636D01*
G01X-1055606Y-1543000D01*
G01X-1056818Y-1541485D01*
G01X-1059849Y-1537849D01*
G01X-1060758Y-1536788D01*
G01X-1061515Y-1535727D01*
G01X-1062121Y-1534970D01*
G01X-1062879Y-1534212D01*
G01X-1066667Y-1529667D01*
G01X-1067273Y-1528606D01*
G01X-1067424Y-1527394D01*
G01X-1067273Y-1519970D01*
G01X-1067424Y-1513000D01*
G01X-1067121Y-1512546D01*
G01X-1066212Y-1512546D01*
G01X-1058485Y-1512697D01*
G01X-1051212Y-1512697D01*
G01X-1051212Y-1529364D01*
G01X-1050455Y-1529515D01*
G01X-1047121Y-1529667D01*
G01X-1044546Y-1529667D01*
G01X-1044394Y-1528909D01*
G01X-1044243Y-1519212D01*
G01X-1044546Y-1509818D01*
G01X-1045152Y-1508758D01*
G01X-1045909Y-1507849D01*
G01X-1046667Y-1507242D01*
G01X-1047727Y-1506788D01*
G01X-1048939Y-1506485D01*
G01X-1059849Y-1506333D01*
G01X-1070758Y-1506636D01*
G01X-1071667Y-1507091D01*
G01X-1072424Y-1507697D01*
G01X-1073182Y-1508455D01*
G01X-1073788Y-1509515D01*
G01X-1074242Y-1510879D01*
G01X-1074545Y-1519818D01*
G01X-1074394Y-1528606D01*
G01X-1073939Y-1529970D01*
G01X-1073333Y-1531333D01*
G01X-1072576Y-1532546D01*
G01X-1071667Y-1533606D01*
G01X-1070455Y-1535121D01*
G01X-1067424Y-1538758D01*
G01X-1066212Y-1540273D01*
G01X-1063182Y-1543909D01*
G01X-1061970Y-1545424D01*
G01X-1058939Y-1549061D01*
G01X-1057727Y-1550576D01*
G01X-1054697Y-1554212D01*
G01X-1053485Y-1555727D01*
G01X-1051970Y-1557546D01*
G01X-1051364Y-1558606D01*
G01X-1051212Y-1568000D01*
G01X-1051212Y-1576636D01*
G01X-1067576Y-1576636D01*
G01X-1067424Y-1575576D01*
G01X-1067273Y-1566636D01*
G01X-1067386Y-1560614D01*
G01X-1067727Y-1558303D01*
G01X-1068788Y-1557962D01*
G01X-1071061Y-1557849D01*
G01X-1073296Y-1558000D01*
G01X-1074242Y-1558455D01*
G01X-1074545Y-1568758D01*
G01X-1074242Y-1578909D01*
G01X-1073788Y-1579970D01*
G01X-1073182Y-1580879D01*
G01X-1072424Y-1581636D01*
G01X-1071515Y-1582242D01*
G01X-1070303Y-1582697D01*
G37*
G36*
G01X-989546Y-1582848D02*
G01X-977727Y-1583000D01*
G01X-968864Y-1582886D01*
G01X-965606Y-1582545D01*
G01X-965265Y-1581599D01*
G01X-965151Y-1579667D01*
G01X-965303Y-1577773D01*
G01X-965758Y-1576939D01*
G01X-974697Y-1576636D01*
G01X-983030Y-1576636D01*
G01X-983030Y-1506636D01*
G01X-983788Y-1506485D01*
G01X-986970Y-1506333D01*
G01X-989394Y-1506333D01*
G01X-989546Y-1507091D01*
G01X-989697Y-1545273D01*
G01X-989546Y-1582848D01*
G37*
G36*
G01X-1321273Y-1197273D02*
G01X-1321268Y-1196061D01*
G01X-1314606Y-1196061D01*
G01X-1314455Y-1227879D01*
G01X-1314152Y-1228485D01*
G01X-1309151Y-1228636D01*
G01X-1309151Y-1228636D01*
G01X-1303545Y-1228485D01*
G01X-1302333Y-1228182D01*
G01X-1301273Y-1227879D01*
G01X-1300363Y-1227424D01*
G01X-1299454Y-1226818D01*
G01X-1298545Y-1226061D01*
G01X-1297939Y-1225303D01*
G01X-1297485Y-1224242D01*
G01X-1297030Y-1223030D01*
G01X-1296727Y-1197121D01*
G01X-1296879Y-1171212D01*
G01X-1297182Y-1170000D01*
G01X-1297636Y-1168788D01*
G01X-1298091Y-1167879D01*
G01X-1298697Y-1167121D01*
G01X-1299454Y-1166364D01*
G01X-1300515Y-1165606D01*
G01X-1301879Y-1165000D01*
G01X-1307636Y-1164697D01*
G01X-1313242Y-1164546D01*
G01X-1314152Y-1164546D01*
G01X-1314492Y-1172500D01*
G01X-1314606Y-1196061D01*
G01X-1321268Y-1196061D01*
G01X-1321121Y-1159091D01*
G01X-1320970Y-1158333D01*
G01X-1311576Y-1158333D01*
G01X-1301727Y-1158485D01*
G01X-1300363Y-1158788D01*
G01X-1298848Y-1159242D01*
G01X-1297485Y-1159849D01*
G01X-1296273Y-1160455D01*
G01X-1295363Y-1161061D01*
G01X-1293848Y-1162273D01*
G01X-1292636Y-1163788D01*
G01X-1291879Y-1164697D01*
G01X-1291272Y-1165758D01*
G01X-1290818Y-1166818D01*
G01X-1290363Y-1168030D01*
G01X-1290060Y-1169243D01*
G01X-1289909Y-1170303D01*
G01X-1289757Y-1196212D01*
G01X-1289909Y-1222121D01*
G01X-1290212Y-1224242D01*
G01X-1290515Y-1225303D01*
G01X-1290969Y-1226667D01*
G01X-1292030Y-1228788D01*
G01X-1293242Y-1230303D01*
G01X-1293848Y-1230909D01*
G01X-1294606Y-1231515D01*
G01X-1295363Y-1232273D01*
G01X-1296273Y-1232879D01*
G01X-1298697Y-1234091D01*
G01X-1300363Y-1234545D01*
G01X-1302030Y-1234848D01*
G01X-1311576Y-1235000D01*
G01X-1320970Y-1234848D01*
G01X-1321273Y-1197273D01*
G37*
G36*
G01X-1405515Y-1234091D02*
G01X-1406273Y-1233485D01*
G01X-1407030Y-1232727D01*
G01X-1407636Y-1231818D01*
G01X-1407939Y-1196970D01*
G01X-1407636Y-1161818D01*
G01X-1406879Y-1160455D01*
G01X-1406121Y-1159545D01*
G01X-1405364Y-1159091D01*
G01X-1404454Y-1158636D01*
G01X-1393394Y-1158333D01*
G01X-1381727Y-1158485D01*
G01X-1380212Y-1158939D01*
G01X-1379303Y-1159545D01*
G01X-1378545Y-1160152D01*
G01X-1377939Y-1160909D01*
G01X-1377485Y-1161818D01*
G01X-1377182Y-1162727D01*
G01X-1377030Y-1171667D01*
G01X-1377182Y-1180909D01*
G01X-1377333Y-1181667D01*
G01X-1384000Y-1181667D01*
G01X-1384000Y-1164697D01*
G01X-1391727Y-1164697D01*
G01X-1399909Y-1164546D01*
G01X-1400818Y-1164546D01*
G01X-1401159Y-1172651D01*
G01X-1401273Y-1196667D01*
G01X-1401273Y-1228636D01*
G01X-1384000Y-1228636D01*
G01X-1384000Y-1202576D01*
G01X-1387333Y-1202576D01*
G01X-1391424Y-1202424D01*
G01X-1392182Y-1202273D01*
G01X-1392182Y-1196515D01*
G01X-1385363Y-1196515D01*
G01X-1377788Y-1196667D01*
G01X-1377030Y-1196818D01*
G01X-1377030Y-1212727D01*
G01X-1377182Y-1229697D01*
G01X-1377485Y-1231212D01*
G01X-1377788Y-1232121D01*
G01X-1378394Y-1232879D01*
G01X-1379151Y-1233636D01*
G01X-1380212Y-1234394D01*
G01X-1381424Y-1234848D01*
G01X-1392485Y-1235000D01*
G01X-1404151Y-1234697D01*
G01X-1405515Y-1234091D01*
G37*
G36*
G01X-1365212Y-1197424D02*
G01X-1365061Y-1159394D01*
G01X-1364909Y-1158333D01*
G01X-1362636Y-1158333D01*
G01X-1360061Y-1158636D01*
G01X-1359454Y-1159545D01*
G01X-1359000Y-1160909D01*
G01X-1358545Y-1162121D01*
G01X-1358091Y-1163182D01*
G01X-1357636Y-1164546D01*
G01X-1356424Y-1167879D01*
G01X-1355970Y-1169091D01*
G01X-1355667Y-1170152D01*
G01X-1355212Y-1171364D01*
G01X-1354606Y-1172879D01*
G01X-1354000Y-1174546D01*
G01X-1353545Y-1175758D01*
G01X-1353242Y-1176818D01*
G01X-1351879Y-1180455D01*
G01X-1351424Y-1181818D01*
G01X-1350515Y-1184242D01*
G01X-1350061Y-1185606D01*
G01X-1349455Y-1187121D01*
G01X-1348848Y-1188788D01*
G01X-1347485Y-1192424D01*
G01X-1347182Y-1193485D01*
G01X-1345818Y-1197121D01*
G01X-1345364Y-1198485D01*
G01X-1344000Y-1202121D01*
G01X-1343545Y-1203485D01*
G01X-1342636Y-1205909D01*
G01X-1342182Y-1207273D01*
G01X-1340818Y-1210909D01*
G01X-1340364Y-1211818D01*
G01X-1340136Y-1205417D01*
G01X-1340061Y-1185909D01*
G01X-1339909Y-1159091D01*
G01X-1339758Y-1158333D01*
G01X-1337333Y-1158333D01*
G01X-1334152Y-1158485D01*
G01X-1333394Y-1158636D01*
G01X-1333394Y-1196364D01*
G01X-1333697Y-1234545D01*
G01X-1334227Y-1234886D01*
G01X-1335212Y-1235000D01*
G01X-1337182Y-1234848D01*
G01X-1338394Y-1234091D01*
G01X-1339000Y-1232879D01*
G01X-1340364Y-1229242D01*
G01X-1340970Y-1227727D01*
G01X-1341424Y-1226364D01*
G01X-1341727Y-1225303D01*
G01X-1342182Y-1224091D01*
G01X-1342788Y-1222576D01*
G01X-1343394Y-1220909D01*
G01X-1343848Y-1219697D01*
G01X-1344151Y-1218636D01*
G01X-1345515Y-1215000D01*
G01X-1346727Y-1211667D01*
G01X-1347182Y-1210606D01*
G01X-1347485Y-1209545D01*
G01X-1348848Y-1205909D01*
G01X-1349758Y-1203182D01*
G01X-1350364Y-1201667D01*
G01X-1350970Y-1200000D01*
G01X-1351424Y-1198788D01*
G01X-1351727Y-1197727D01*
G01X-1352182Y-1196515D01*
G01X-1352788Y-1195000D01*
G01X-1353394Y-1193333D01*
G01X-1354758Y-1189697D01*
G01X-1355061Y-1188636D01*
G01X-1355515Y-1187424D01*
G01X-1356121Y-1185909D01*
G01X-1357030Y-1183182D01*
G01X-1357636Y-1181515D01*
G01X-1358242Y-1180606D01*
G01X-1358470Y-1187197D01*
G01X-1358545Y-1207273D01*
G01X-1358848Y-1234545D01*
G01X-1359758Y-1234886D01*
G01X-1361879Y-1235000D01*
G01X-1364909Y-1234697D01*
G01X-1365212Y-1197424D01*
G37*
G36*
G01X-879939Y-1688394D02*
G01X-879636Y-1689303D01*
G01X-873879Y-1689303D01*
G01X-873424Y-1688545D01*
G01X-872970Y-1686727D01*
G01X-872818Y-1685212D01*
G01X-872515Y-1683697D01*
G01X-872212Y-1681879D01*
G01X-871909Y-1680212D01*
G01X-871606Y-1678848D01*
G01X-871303Y-1676424D01*
G01X-871151Y-1675363D01*
G01X-870848Y-1674151D01*
G01X-870545Y-1672636D01*
G01X-870394Y-1671273D01*
G01X-870242Y-1670212D01*
G01X-869939Y-1669000D01*
G01X-869636Y-1667333D01*
G01X-869485Y-1665818D01*
G01X-868879Y-1663091D01*
G01X-868576Y-1660363D01*
G01X-868273Y-1659151D01*
G01X-867667Y-1655515D01*
G01X-867364Y-1654303D01*
G01X-867060Y-1651879D01*
G01X-866454Y-1648848D01*
G01X-866000Y-1645667D01*
G01X-865697Y-1644454D01*
G01X-865394Y-1642788D01*
G01X-865242Y-1641273D01*
G01X-864636Y-1637939D01*
G01X-864485Y-1636879D01*
G01X-864182Y-1635667D01*
G01X-863879Y-1634151D01*
G01X-863727Y-1632788D01*
G01X-863576Y-1631727D01*
G01X-863273Y-1630515D01*
G01X-862970Y-1628848D01*
G01X-862818Y-1627333D01*
G01X-862212Y-1624303D01*
G01X-861757Y-1621121D01*
G01X-861454Y-1619909D01*
G01X-861151Y-1618242D01*
G01X-861000Y-1616727D01*
G01X-860697Y-1615212D01*
G01X-860394Y-1613394D01*
G01X-860470Y-1612788D01*
G01X-861000Y-1612485D01*
G01X-864182Y-1612333D01*
G01X-866606Y-1612333D01*
G01X-867060Y-1614606D01*
G01X-867364Y-1616424D01*
G01X-867667Y-1617939D01*
G01X-867970Y-1620667D01*
G01X-868576Y-1624000D01*
G01X-868879Y-1626424D01*
G01X-869182Y-1627939D01*
G01X-869485Y-1630060D01*
G01X-869788Y-1632030D01*
G01X-870091Y-1633394D01*
G01X-870394Y-1636121D01*
G01X-870545Y-1637182D01*
G01X-870848Y-1638394D01*
G01X-871151Y-1640212D01*
G01X-871303Y-1641879D01*
G01X-871606Y-1644000D01*
G01X-871909Y-1645212D01*
G01X-872060Y-1646576D01*
G01X-872515Y-1649757D01*
G01X-872818Y-1651273D01*
G01X-873121Y-1653394D01*
G01X-873424Y-1654909D01*
G01X-873727Y-1657333D01*
G01X-874030Y-1659454D01*
G01X-874333Y-1660666D01*
G01X-874485Y-1662030D01*
G01X-874939Y-1665212D01*
G01X-875242Y-1666424D01*
G01X-875394Y-1667939D01*
G01X-875545Y-1669151D01*
G01X-876151Y-1672485D01*
G01X-876303Y-1673545D01*
G01X-876379Y-1673962D01*
G01X-876606Y-1674000D01*
G01X-876909Y-1672788D01*
G01X-877060Y-1671273D01*
G01X-877363Y-1668848D01*
G01X-877667Y-1667636D01*
G01X-877970Y-1665515D01*
G01X-878273Y-1663242D01*
G01X-878576Y-1661879D01*
G01X-878879Y-1659757D01*
G01X-879182Y-1657030D01*
G01X-879485Y-1655818D01*
G01X-880091Y-1651576D01*
G01X-880394Y-1650060D01*
G01X-880545Y-1648697D01*
G01X-880697Y-1647636D01*
G01X-881000Y-1646424D01*
G01X-881151Y-1645060D01*
G01X-881303Y-1644000D01*
G01X-881606Y-1641576D01*
G01X-881909Y-1640363D01*
G01X-882212Y-1638242D01*
G01X-882515Y-1635970D01*
G01X-882818Y-1634606D01*
G01X-883424Y-1629757D01*
G01X-883727Y-1628545D01*
G01X-883879Y-1627182D01*
G01X-884030Y-1626121D01*
G01X-884333Y-1624606D01*
G01X-884636Y-1622788D01*
G01X-884788Y-1621273D01*
G01X-884939Y-1620061D01*
G01X-885242Y-1618848D01*
G01X-885545Y-1617030D01*
G01X-885697Y-1615364D01*
G01X-885848Y-1614303D01*
G01X-886303Y-1613091D01*
G01X-886606Y-1612333D01*
G01X-892970Y-1612333D01*
G01X-892970Y-1613394D01*
G01X-892818Y-1614909D01*
G01X-892515Y-1616121D01*
G01X-892364Y-1617485D01*
G01X-892212Y-1618545D01*
G01X-891909Y-1619757D01*
G01X-891606Y-1621576D01*
G01X-891303Y-1623545D01*
G01X-891000Y-1624909D01*
G01X-890697Y-1626727D01*
G01X-890394Y-1629000D01*
G01X-890091Y-1630364D01*
G01X-889788Y-1632182D01*
G01X-889333Y-1634606D01*
G01X-889030Y-1636576D01*
G01X-888879Y-1637939D01*
G01X-888273Y-1640667D01*
G01X-887970Y-1643091D01*
G01X-887667Y-1644303D01*
G01X-887364Y-1646121D01*
G01X-887061Y-1648091D01*
G01X-886757Y-1649454D01*
G01X-886151Y-1653697D01*
G01X-885848Y-1654909D01*
G01X-885545Y-1657030D01*
G01X-885242Y-1658848D01*
G01X-884939Y-1660060D01*
G01X-884788Y-1661424D01*
G01X-884636Y-1662485D01*
G01X-884333Y-1663697D01*
G01X-884030Y-1665515D01*
G01X-883727Y-1667485D01*
G01X-883424Y-1668848D01*
G01X-883121Y-1670666D01*
G01X-882818Y-1672788D01*
G01X-882515Y-1674000D01*
G01X-881909Y-1678242D01*
G01X-881606Y-1679454D01*
G01X-881303Y-1681576D01*
G01X-881000Y-1683394D01*
G01X-880697Y-1684606D01*
G01X-880545Y-1685969D01*
G01X-880394Y-1687030D01*
G01X-879939Y-1688394D01*
G37*
G36*
G01X-847212Y-1688697D02*
G01X-835697Y-1689000D01*
G01X-824636Y-1688848D01*
G01X-823424Y-1688394D01*
G01X-822364Y-1687636D01*
G01X-821606Y-1686879D01*
G01X-821000Y-1685818D01*
G01X-820545Y-1684606D01*
G01X-820242Y-1674303D01*
G01X-820394Y-1666841D01*
G01X-820848Y-1664151D01*
G01X-824182Y-1663848D01*
G01X-826303Y-1664000D01*
G01X-827212Y-1664454D01*
G01X-827515Y-1673545D01*
G01X-827364Y-1682333D01*
G01X-829371Y-1682561D01*
G01X-835697Y-1682636D01*
G01X-844182Y-1682636D01*
G01X-844182Y-1650666D01*
G01X-844068Y-1626651D01*
G01X-843727Y-1618545D01*
G01X-842818Y-1618545D01*
G01X-835242Y-1618697D01*
G01X-827818Y-1618545D01*
G01X-827591Y-1620515D01*
G01X-827515Y-1626727D01*
G01X-827401Y-1633053D01*
G01X-827061Y-1635364D01*
G01X-823576Y-1635667D01*
G01X-820545Y-1635667D01*
G01X-820394Y-1634909D01*
G01X-820242Y-1625515D01*
G01X-820545Y-1616424D01*
G01X-821000Y-1615364D01*
G01X-821606Y-1614454D01*
G01X-822364Y-1613697D01*
G01X-823576Y-1612939D01*
G01X-824939Y-1612485D01*
G01X-836151Y-1612333D01*
G01X-847515Y-1612636D01*
G01X-848727Y-1613242D01*
G01X-849788Y-1614303D01*
G01X-850545Y-1615667D01*
G01X-851000Y-1617333D01*
G01X-851151Y-1651424D01*
G01X-850848Y-1685060D01*
G01X-850394Y-1686121D01*
G01X-849939Y-1686879D01*
G01X-848879Y-1687788D01*
G01X-847212Y-1688697D01*
G37*
G36*
G01X-804182Y-1688848D02*
G01X-793121Y-1689000D01*
G01X-782212Y-1688848D01*
G01X-781000Y-1688394D01*
G01X-779939Y-1687636D01*
G01X-779182Y-1686879D01*
G01X-778576Y-1685969D01*
G01X-778121Y-1684909D01*
G01X-777818Y-1674454D01*
G01X-777932Y-1666879D01*
G01X-778273Y-1664151D01*
G01X-781606Y-1663848D01*
G01X-784485Y-1663848D01*
G01X-784788Y-1664757D01*
G01X-785091Y-1673848D01*
G01X-784939Y-1682333D01*
G01X-786947Y-1682561D01*
G01X-793273Y-1682636D01*
G01X-801758Y-1682636D01*
G01X-801758Y-1650666D01*
G01X-801644Y-1626651D01*
G01X-801303Y-1618545D01*
G01X-800394Y-1618545D01*
G01X-792818Y-1618697D01*
G01X-785394Y-1618545D01*
G01X-784939Y-1618848D01*
G01X-784939Y-1619757D01*
G01X-785091Y-1627485D01*
G01X-784788Y-1635212D01*
G01X-783765Y-1635553D01*
G01X-781303Y-1635667D01*
G01X-778121Y-1635667D01*
G01X-777970Y-1634909D01*
G01X-777818Y-1625364D01*
G01X-778121Y-1616121D01*
G01X-778576Y-1615212D01*
G01X-779030Y-1614454D01*
G01X-780091Y-1613545D01*
G01X-781454Y-1612788D01*
G01X-782515Y-1612485D01*
G01X-793727Y-1612333D01*
G01X-804939Y-1612636D01*
G01X-805849Y-1613091D01*
G01X-806606Y-1613545D01*
G01X-807364Y-1614454D01*
G01X-808121Y-1615818D01*
G01X-808424Y-1617182D01*
G01X-808576Y-1618242D01*
G01X-808727Y-1651121D01*
G01X-808576Y-1684000D01*
G01X-808273Y-1685212D01*
G01X-807515Y-1686727D01*
G01X-806455Y-1687788D01*
G01X-805394Y-1688394D01*
G01X-804182Y-1688848D01*
G37*
G36*
G01X-791000Y113000D02*
G01X-620818Y113000D01*
G01X-620818Y247545D01*
G01X-791000Y247545D01*
G01X-791000Y227182D01*
G01X-763727Y227182D01*
G01X-763727Y229000D01*
G01X-760636Y229000D01*
G01X-756636Y228818D01*
G01X-755909Y228364D01*
G01X-755545Y227364D01*
G01X-755182Y224818D01*
G01X-754818Y223000D01*
G01X-754454Y220091D01*
G01X-754091Y218454D01*
G01X-753727Y215727D01*
G01X-753363Y213182D01*
G01X-753000Y211727D01*
G01X-752636Y208818D01*
G01X-752273Y206273D01*
G01X-751909Y204455D01*
G01X-751545Y201545D01*
G01X-751182Y199000D01*
G01X-750818Y197545D01*
G01X-750636Y196273D01*
G01X-750454Y194636D01*
G01X-750091Y192455D01*
G01X-749727Y190636D01*
G01X-749545Y189182D01*
G01X-749363Y187364D01*
G01X-749000Y185909D01*
G01X-748636Y183364D01*
G01X-748273Y180455D01*
G01X-747909Y178818D01*
G01X-747545Y176091D01*
G01X-747182Y173546D01*
G01X-746818Y172091D01*
G01X-746636Y170818D01*
G01X-746454Y168818D01*
G01X-746091Y166636D01*
G01X-745727Y165182D01*
G01X-745364Y161909D01*
G01X-744636Y157909D01*
G01X-744454Y156091D01*
G01X-744091Y154636D01*
G01X-743818Y154773D01*
G01X-743545Y157182D01*
G01X-743364Y159182D01*
G01X-743000Y161364D01*
G01X-742636Y162818D01*
G01X-742454Y164091D01*
G01X-742091Y167364D01*
G01X-741727Y169000D01*
G01X-741364Y171364D01*
G01X-741000Y173909D01*
G01X-740636Y175727D01*
G01X-740273Y178636D01*
G01X-739545Y182636D01*
G01X-739364Y184091D01*
G01X-739182Y185909D01*
G01X-738818Y187364D01*
G01X-738454Y189909D01*
G01X-738091Y192818D01*
G01X-737727Y194455D01*
G01X-737364Y197182D01*
G01X-737000Y199727D01*
G01X-736636Y201182D01*
G01X-736273Y204455D01*
G01X-735545Y208454D01*
G01X-735182Y211727D01*
G01X-734454Y215364D01*
G01X-734273Y217182D01*
G01X-733909Y219727D01*
G01X-733364Y222636D01*
G01X-733000Y225545D01*
G01X-732454Y227909D01*
G01X-732091Y229000D01*
G01X-728818Y229000D01*
G01X-725000Y228636D01*
G01X-724636Y227909D01*
G01X-725000Y226454D01*
G01X-725364Y224091D01*
G01X-725727Y221909D01*
G01X-726091Y220454D01*
G01X-726454Y217545D01*
G01X-727182Y213909D01*
G01X-727545Y211364D01*
G01X-728273Y207727D01*
G01X-728454Y205909D01*
G01X-728818Y203909D01*
G01X-729182Y202455D01*
G01X-729727Y198636D01*
G01X-730091Y197000D01*
G01X-730454Y194636D01*
G01X-730818Y192455D01*
G01X-731182Y191000D01*
G01X-731545Y188091D01*
G01X-732273Y184455D01*
G01X-732454Y183182D01*
G01X-713182Y183182D01*
G01X-713182Y229000D01*
G01X-704818Y229000D01*
G01X-704818Y182273D01*
G01X-689545Y182273D01*
G01X-689364Y228091D01*
G01X-689182Y229000D01*
G01X-686636Y229000D01*
G01X-683727Y228636D01*
G01X-683000Y227545D01*
G01X-682273Y225727D01*
G01X-681545Y223727D01*
G01X-681000Y222273D01*
G01X-680636Y221000D01*
G01X-680091Y219545D01*
G01X-679364Y217727D01*
G01X-678636Y215727D01*
G01X-678091Y214273D01*
G01X-676818Y210454D01*
G01X-675364Y206818D01*
G01X-674818Y205182D01*
G01X-674455Y203909D01*
G01X-672818Y199545D01*
G01X-672091Y197727D01*
G01X-671364Y195727D01*
G01X-670818Y194273D01*
G01X-670455Y193000D01*
G01X-668273Y187182D01*
G01X-667727Y185364D01*
G01X-666273Y181727D01*
G01X-665727Y180091D01*
G01X-664636Y177182D01*
G01X-664273Y175909D01*
G01X-662091Y170091D01*
G01X-661545Y168455D01*
G01X-660818Y166455D01*
G01X-660091Y165182D01*
G01X-659818Y172727D01*
G01X-659727Y195727D01*
G01X-659545Y227727D01*
G01X-659364Y229000D01*
G01X-656454Y229000D01*
G01X-652636Y228818D01*
G01X-651727Y228636D01*
G01X-651727Y183364D01*
G01X-652091Y137546D01*
G01X-652682Y137136D01*
G01X-653727Y137000D01*
G01X-656273Y137182D01*
G01X-657273Y137455D01*
G01X-657727Y137909D01*
G01X-658273Y139182D01*
G01X-659000Y141000D01*
G01X-659727Y143182D01*
G01X-661182Y147182D01*
G01X-661909Y149000D01*
G01X-663000Y152273D01*
G01X-665182Y158091D01*
G01X-665909Y159909D01*
G01X-666455Y161546D01*
G01X-666818Y162818D01*
G01X-667364Y164273D01*
G01X-668091Y166091D01*
G01X-668818Y168091D01*
G01X-670455Y172455D01*
G01X-670818Y173727D01*
G01X-671364Y175182D01*
G01X-672091Y177000D01*
G01X-672818Y179000D01*
G01X-673364Y180455D01*
G01X-673727Y181727D01*
G01X-674273Y183182D01*
G01X-675000Y185000D01*
G01X-675545Y186636D01*
G01X-675909Y187909D01*
G01X-676455Y189364D01*
G01X-677182Y191182D01*
G01X-677909Y193182D01*
G01X-679546Y197545D01*
G01X-680091Y199182D01*
G01X-680818Y201182D01*
G01X-681545Y202273D01*
G01X-681818Y194364D01*
G01X-681909Y170273D01*
G01X-682273Y137546D01*
G01X-683364Y137136D01*
G01X-685909Y137000D01*
G01X-689364Y137182D01*
G01X-689364Y137182D01*
G01X-689545Y182273D01*
G01X-704818Y182273D01*
G01X-704818Y137364D01*
G01X-713182Y137364D01*
G01X-713182Y183182D01*
G01X-713182Y183182D01*
G01X-732454Y183182D01*
G01X-732636Y181909D01*
G01X-733364Y178273D01*
G01X-733545Y176636D01*
G01X-733909Y174455D01*
G01X-734454Y171727D01*
G01X-734818Y169182D01*
G01X-735182Y167727D01*
G01X-735545Y165182D01*
G01X-736273Y161546D01*
G01X-736636Y158636D01*
G01X-737364Y155000D01*
G01X-737727Y152455D01*
G01X-738454Y148818D01*
G01X-738636Y147000D01*
G01X-739000Y145000D01*
G01X-739364Y143546D01*
G01X-739545Y141909D01*
G01X-739909Y139727D01*
G01X-740454Y137546D01*
G01X-740818Y136637D01*
G01X-744273Y136637D01*
G01X-747909Y136818D01*
G01X-747909Y136818D01*
G01X-748273Y137727D01*
G01X-748636Y139000D01*
G01X-748818Y140636D01*
G01X-749182Y142455D01*
G01X-749545Y143909D01*
G01X-749727Y145546D01*
G01X-750091Y147364D01*
G01X-750818Y151727D01*
G01X-751182Y153182D01*
G01X-751909Y158273D01*
G01X-752273Y159727D01*
G01X-752636Y162273D01*
G01X-753000Y164455D01*
G01X-753363Y166091D01*
G01X-753727Y168455D01*
G01X-754091Y170636D01*
G01X-754454Y172091D01*
G01X-754818Y175000D01*
G01X-755545Y179000D01*
G01X-755727Y180636D01*
G01X-756091Y182455D01*
G01X-756454Y183909D01*
G01X-756636Y185182D01*
G01X-756818Y186818D01*
G01X-757182Y188636D01*
G01X-757545Y190273D01*
G01X-757909Y193182D01*
G01X-758273Y195182D01*
G01X-758818Y197909D01*
G01X-759182Y200091D01*
G01X-759545Y202091D01*
G01X-759909Y204455D01*
G01X-760273Y205909D01*
G01X-760636Y208454D01*
G01X-760818Y210091D01*
G01X-761182Y211909D01*
G01X-761545Y213364D01*
G01X-762091Y217182D01*
G01X-762454Y218818D01*
G01X-762818Y221182D01*
G01X-763182Y223364D01*
G01X-763545Y224818D01*
G01X-763727Y227182D01*
G01X-791000Y227182D01*
G01X-791000Y113000D01*
G37*
G36*
G01X637000Y402000D02*
G01X807182Y402000D01*
G01X807182Y536545D01*
G01X637000Y536545D01*
G01X637000Y516182D01*
G01X664273Y516182D01*
G01X664273Y518000D01*
G01X667364Y518000D01*
G01X671364Y517818D01*
G01X672091Y517364D01*
G01X672455Y516364D01*
G01X672818Y513818D01*
G01X673182Y512000D01*
G01X673546Y509091D01*
G01X673909Y507454D01*
G01X674273Y504727D01*
G01X674636Y502182D01*
G01X675000Y500727D01*
G01X675364Y497818D01*
G01X675727Y495273D01*
G01X676091Y493454D01*
G01X676455Y490545D01*
G01X676818Y488000D01*
G01X677182Y486545D01*
G01X677364Y485273D01*
G01X677546Y483636D01*
G01X677909Y481454D01*
G01X678273Y479636D01*
G01X678455Y478182D01*
G01X678636Y476364D01*
G01X679000Y474909D01*
G01X679364Y472364D01*
G01X679727Y469454D01*
G01X680091Y467818D01*
G01X680455Y465091D01*
G01X680818Y462545D01*
G01X681182Y461091D01*
G01X681364Y459818D01*
G01X681546Y457818D01*
G01X681909Y455636D01*
G01X682273Y454182D01*
G01X682636Y450909D01*
G01X683364Y446909D01*
G01X683545Y445091D01*
G01X683909Y443636D01*
G01X684182Y443773D01*
G01X684455Y446182D01*
G01X684636Y448182D01*
G01X685000Y450364D01*
G01X685364Y451818D01*
G01X685545Y453091D01*
G01X685909Y456364D01*
G01X686273Y458000D01*
G01X686636Y460364D01*
G01X687000Y462909D01*
G01X687364Y464727D01*
G01X687727Y467636D01*
G01X688455Y471636D01*
G01X688636Y473091D01*
G01X688818Y474909D01*
G01X689182Y476364D01*
G01X689545Y478909D01*
G01X689909Y481818D01*
G01X690273Y483454D01*
G01X690636Y486182D01*
G01X691000Y488727D01*
G01X691364Y490182D01*
G01X691727Y493454D01*
G01X692455Y497454D01*
G01X692818Y500727D01*
G01X693545Y504363D01*
G01X693727Y506182D01*
G01X694091Y508727D01*
G01X694636Y511636D01*
G01X695000Y514545D01*
G01X695545Y516909D01*
G01X695909Y518000D01*
G01X699182Y518000D01*
G01X703000Y517636D01*
G01X703364Y516909D01*
G01X703000Y515454D01*
G01X702636Y513091D01*
G01X702273Y510909D01*
G01X701909Y509454D01*
G01X701545Y506545D01*
G01X700818Y502909D01*
G01X700455Y500363D01*
G01X699727Y496727D01*
G01X699545Y494909D01*
G01X699182Y492909D01*
G01X698818Y491454D01*
G01X698273Y487636D01*
G01X697909Y486000D01*
G01X697545Y483636D01*
G01X697182Y481454D01*
G01X696818Y480000D01*
G01X696455Y477091D01*
G01X695727Y473454D01*
G01X695545Y472182D01*
G01X714818Y472182D01*
G01X714818Y518000D01*
G01X723182Y518000D01*
G01X723182Y471273D01*
G01X738454Y471273D01*
G01X738636Y517091D01*
G01X738818Y518000D01*
G01X741364Y518000D01*
G01X744273Y517636D01*
G01X745000Y516545D01*
G01X745727Y514727D01*
G01X746454Y512727D01*
G01X747000Y511273D01*
G01X747364Y510000D01*
G01X747909Y508545D01*
G01X748636Y506727D01*
G01X749364Y504727D01*
G01X749909Y503273D01*
G01X751182Y499454D01*
G01X752636Y495818D01*
G01X753182Y494182D01*
G01X753545Y492909D01*
G01X755182Y488545D01*
G01X755909Y486727D01*
G01X756636Y484727D01*
G01X757182Y483273D01*
G01X757545Y482000D01*
G01X759727Y476182D01*
G01X760273Y474364D01*
G01X761727Y470727D01*
G01X762273Y469091D01*
G01X763364Y466182D01*
G01X763727Y464909D01*
G01X765909Y459091D01*
G01X766455Y457455D01*
G01X767182Y455455D01*
G01X767909Y454182D01*
G01X768182Y461727D01*
G01X768273Y484727D01*
G01X768455Y516727D01*
G01X768636Y518000D01*
G01X771546Y518000D01*
G01X775364Y517818D01*
G01X776273Y517636D01*
G01X776273Y472364D01*
G01X775909Y426546D01*
G01X775318Y426136D01*
G01X774273Y426000D01*
G01X771727Y426182D01*
G01X770727Y426455D01*
G01X770273Y426909D01*
G01X769727Y428182D01*
G01X769000Y430000D01*
G01X768273Y432182D01*
G01X766818Y436182D01*
G01X766091Y438000D01*
G01X765000Y441273D01*
G01X762818Y447091D01*
G01X762091Y448909D01*
G01X761545Y450545D01*
G01X761182Y451818D01*
G01X760636Y453273D01*
G01X759909Y455091D01*
G01X759182Y457091D01*
G01X757545Y461455D01*
G01X757182Y462727D01*
G01X756636Y464182D01*
G01X755909Y466000D01*
G01X755182Y468000D01*
G01X754636Y469454D01*
G01X754273Y470727D01*
G01X753727Y472182D01*
G01X753000Y474000D01*
G01X752455Y475636D01*
G01X752091Y476909D01*
G01X751545Y478364D01*
G01X750818Y480182D01*
G01X750091Y482182D01*
G01X748454Y486545D01*
G01X747909Y488182D01*
G01X747182Y490182D01*
G01X746454Y491273D01*
G01X746182Y483364D01*
G01X746091Y459273D01*
G01X745727Y426546D01*
G01X744636Y426136D01*
G01X742091Y426000D01*
G01X738636Y426182D01*
G01X738636Y426182D01*
G01X738454Y471273D01*
G01X723182Y471273D01*
G01X723182Y426364D01*
G01X714818Y426364D01*
G01X714818Y472182D01*
G01X714818Y472182D01*
G01X695545Y472182D01*
G01X695364Y470909D01*
G01X694636Y467273D01*
G01X694455Y465636D01*
G01X694091Y463454D01*
G01X693545Y460727D01*
G01X693182Y458182D01*
G01X692818Y456727D01*
G01X692455Y454182D01*
G01X691727Y450545D01*
G01X691364Y447636D01*
G01X690636Y444000D01*
G01X690273Y441455D01*
G01X689545Y437818D01*
G01X689364Y436000D01*
G01X689000Y434000D01*
G01X688636Y432545D01*
G01X688455Y430909D01*
G01X688091Y428727D01*
G01X687545Y426546D01*
G01X687182Y425636D01*
G01X683727Y425636D01*
G01X680091Y425818D01*
G01X680091Y425818D01*
G01X679727Y426727D01*
G01X679364Y428000D01*
G01X679182Y429636D01*
G01X678818Y431455D01*
G01X678455Y432909D01*
G01X678273Y434545D01*
G01X677909Y436364D01*
G01X677182Y440727D01*
G01X676818Y442182D01*
G01X676091Y447273D01*
G01X675727Y448727D01*
G01X675364Y451273D01*
G01X675000Y453455D01*
G01X674636Y455091D01*
G01X674273Y457455D01*
G01X673909Y459636D01*
G01X673546Y461091D01*
G01X673182Y464000D01*
G01X672455Y468000D01*
G01X672273Y469636D01*
G01X671909Y471454D01*
G01X671546Y472909D01*
G01X671364Y474182D01*
G01X671182Y475818D01*
G01X670818Y477636D01*
G01X670455Y479273D01*
G01X670091Y482182D01*
G01X669727Y484182D01*
G01X669182Y486909D01*
G01X668818Y489091D01*
G01X668455Y491091D01*
G01X668091Y493454D01*
G01X667727Y494909D01*
G01X667364Y497454D01*
G01X667182Y499091D01*
G01X666818Y500909D01*
G01X666455Y502363D01*
G01X665909Y506182D01*
G01X665546Y507818D01*
G01X665182Y510182D01*
G01X664818Y512364D01*
G01X664455Y513818D01*
G01X664273Y516182D01*
G01X637000Y516182D01*
G01X637000Y402000D01*
G37*
G36*
G01X-493333Y-147788D02*
G01X-493049Y-88034D01*
G01X-492197Y-67863D01*
G01X-489924Y-67863D01*
G01X-467576Y-68242D01*
G01X-446364Y-68242D01*
G01X-446364Y-228091D01*
G01X-469470Y-228091D01*
G01X-492955Y-227712D01*
G01X-493333Y-147788D01*
G37*
G36*
G01X-610000Y-13697D02*
G01X323333Y-13697D01*
G01X323333Y-294000D01*
G01X-610000Y-294000D01*
G01X-610000Y-52333D01*
G01X-594848Y-52333D01*
G01X-594848Y-147788D01*
G01X-594470Y-243621D01*
G01X-586894Y-244000D01*
G01X-586894Y-244000D01*
G01X-581307Y-243716D01*
G01X-578939Y-242864D01*
G01X-578182Y-198924D01*
G01X-578182Y-156121D01*
G01X-576288Y-155742D01*
G01X-555833Y-155364D01*
G01X-537273Y-155364D01*
G01X-537273Y-149303D01*
G01X-510000Y-149303D01*
G01X-509243Y-236045D01*
G01X-507727Y-238318D01*
G01X-505833Y-240212D01*
G01X-503561Y-241727D01*
G01X-500152Y-243242D01*
G01X-469470Y-244000D01*
G01X-469470Y-244000D01*
G01X-439924Y-243621D01*
G01X-436894Y-242485D01*
G01X-434242Y-240591D01*
G01X-432349Y-238697D01*
G01X-430833Y-236424D01*
G01X-430076Y-233773D01*
G01X-429705Y-148924D01*
G01X-399394Y-148924D01*
G01X-399015Y-230742D01*
G01X-398636Y-233394D01*
G01X-397879Y-236045D01*
G01X-396364Y-238318D01*
G01X-394470Y-240212D01*
G01X-392576Y-241727D01*
G01X-389167Y-243242D01*
G01X-360379Y-244000D01*
G01X-360379Y-244000D01*
G01X-333106Y-243621D01*
G01X-330076Y-242485D01*
G01X-327424Y-240591D01*
G01X-325530Y-238697D01*
G01X-324015Y-236424D01*
G01X-322879Y-233773D01*
G01X-322121Y-207636D01*
G01X-322405Y-188697D01*
G01X-323258Y-181879D01*
G01X-331591Y-181121D01*
G01X-338788Y-181121D01*
G01X-339545Y-183394D01*
G01X-340303Y-206121D01*
G01X-339924Y-227333D01*
G01X-344943Y-227901D01*
G01X-360758Y-228091D01*
G01X-381970Y-228091D01*
G01X-381970Y-150060D01*
G01X-244091Y-150060D01*
G01X-243333Y-234151D01*
G01X-242197Y-236803D01*
G01X-241061Y-238697D01*
G01X-238409Y-240970D01*
G01X-234242Y-243242D01*
G01X-205455Y-244000D01*
G01X-205455Y-244000D01*
G01X-177803Y-243621D01*
G01X-174773Y-242485D01*
G01X-172121Y-240591D01*
G01X-170227Y-238697D01*
G01X-168712Y-236045D01*
G01X-167576Y-233015D01*
G01X-166818Y-207257D01*
G01X-167197Y-188602D01*
G01X-167565Y-186424D01*
G01X-139546Y-186424D01*
G01X-139167Y-234530D01*
G01X-138030Y-237182D01*
G01X-136136Y-239833D01*
G01X-132727Y-242106D01*
G01X-124773Y-242958D01*
G01X-124773Y-242958D01*
G01X-105455Y-243242D01*
G01X-78939Y-242485D01*
G01X-75909Y-240970D01*
G01X-74015Y-239076D01*
G01X-72879Y-236803D01*
G01X-71743Y-232258D01*
G01X-71381Y-184152D01*
G01X-44849Y-184152D01*
G01X-44849Y-243242D01*
G01X-28939Y-243242D01*
G01X-28939Y-140212D01*
G01X-18712Y-140212D01*
G01X-7348Y-139833D01*
G01X606Y-139454D01*
G01X7424Y-139454D01*
G01X7424Y-243242D01*
G01X23333Y-243242D01*
G01X23333Y-188318D01*
G01X22586Y-132636D01*
G01X40758Y-132636D01*
G01X41515Y-138318D01*
G01X43788Y-139170D01*
G01X49091Y-139454D01*
G01X55909Y-139454D01*
G01X55530Y-142106D01*
G01X55152Y-187939D01*
G01X55530Y-232258D01*
G01X56288Y-235288D01*
G01X58182Y-239076D01*
G01X61591Y-241727D01*
G01X64621Y-243242D01*
G01X78636Y-244000D01*
G01X78636Y-244000D01*
G01X91515Y-244000D01*
G01X91894Y-242106D01*
G01X92273Y-234909D01*
G01X92273Y-229606D01*
G01X89621Y-229227D01*
G01X80151Y-228848D01*
G01X72576Y-229227D01*
G01X72007Y-218242D01*
G01X71818Y-184530D01*
G01X71818Y-184152D01*
G01X113485Y-184152D01*
G01X113485Y-243242D01*
G01X129394Y-243242D01*
G01X129394Y-184530D01*
G01X196061Y-184530D01*
G01X196818Y-235667D01*
G01X198333Y-238697D01*
G01X200985Y-241349D01*
G01X203636Y-242864D01*
G01X229773Y-243242D01*
G01X229773Y-243242D01*
G01X256667Y-242485D01*
G01X259318Y-240970D01*
G01X261591Y-238318D01*
G01X263106Y-235288D01*
G01X263864Y-231500D01*
G01X264242Y-182257D01*
G01X263969Y-147788D01*
G01X291515Y-147788D01*
G01X291515Y-243242D01*
G01X307424Y-243242D01*
G01X307424Y-52333D01*
G01X291515Y-52333D01*
G01X291515Y-147788D01*
G01X291515Y-147788D01*
G01X263969Y-147788D01*
G01X263864Y-134530D01*
G01X262727Y-131500D01*
G01X260833Y-128848D01*
G01X258939Y-127333D01*
G01X256288Y-126197D01*
G01X253258Y-125439D01*
G01X228636Y-125060D01*
G01X203636Y-125818D01*
G01X200606Y-127333D01*
G01X198333Y-129985D01*
G01X196818Y-133394D01*
G01X196061Y-184530D01*
G01X129394Y-184530D01*
G01X129394Y-140212D01*
G01X137727Y-140212D01*
G01X147197Y-139833D01*
G01X153636Y-139454D01*
G01X158939Y-139454D01*
G01X158939Y-163697D01*
G01X175606Y-163697D01*
G01X175606Y-150818D01*
G01X175227Y-136803D01*
G01X174849Y-133773D01*
G01X174091Y-130742D01*
G01X172576Y-128470D01*
G01X169924Y-126197D01*
G01X165379Y-124682D01*
G01X157803Y-124303D01*
G01X151742Y-124682D01*
G01X141136Y-126197D01*
G01X136591Y-126955D01*
G01X131288Y-127712D01*
G01X129867Y-127617D01*
G01X129394Y-126576D01*
G01X127405Y-125439D01*
G01X121439Y-125060D01*
G01X113485Y-125060D01*
G01X113485Y-184152D01*
G01X113485Y-184152D01*
G01X71818Y-184152D01*
G01X71818Y-139454D01*
G01X91515Y-139454D01*
G01X91894Y-137561D01*
G01X92273Y-130363D01*
G01X92273Y-125060D01*
G01X90379Y-124682D01*
G01X80151Y-124303D01*
G01X71818Y-124303D01*
G01X71818Y-87939D01*
G01X55909Y-87939D01*
G01X55530Y-90591D01*
G01X55152Y-108015D01*
G01X55530Y-123545D01*
G01X54110Y-124114D01*
G01X49091Y-124303D01*
G01X42273Y-124303D01*
G01X41515Y-126197D01*
G01X40758Y-132636D01*
G01X22586Y-132636D01*
G01X22576Y-131879D01*
G01X20682Y-128470D01*
G01X18030Y-126197D01*
G01X15000Y-125060D01*
G01X6288Y-124303D01*
G01X-2045Y-124682D01*
G01X-8864Y-125439D01*
G01X-14167Y-126197D01*
G01X-26288Y-127712D01*
G01X-28182Y-127712D01*
G01X-29318Y-126197D01*
G01X-31496Y-125345D01*
G01X-37273Y-125060D01*
G01X-44849Y-125060D01*
G01X-44849Y-184152D01*
G01X-44849Y-184152D01*
G01X-71381Y-184152D01*
G01X-71364Y-181879D01*
G01X-71743Y-133773D01*
G01X-72879Y-131121D01*
G01X-74773Y-128848D01*
G01X-76667Y-127333D01*
G01X-80076Y-125818D01*
G01X-106591Y-125060D01*
G01X-131970Y-125818D01*
G01X-134621Y-127333D01*
G01X-136515Y-129227D01*
G01X-138030Y-131500D01*
G01X-139167Y-136045D01*
G01X-139546Y-186424D01*
G01X-167565Y-186424D01*
G01X-168333Y-181879D01*
G01X-176667Y-181121D01*
G01X-181970Y-181500D01*
G01X-184242Y-182636D01*
G01X-185000Y-205364D01*
G01X-184621Y-227333D01*
G01X-189640Y-227901D01*
G01X-205455Y-228091D01*
G01X-226667Y-228091D01*
G01X-226667Y-148167D01*
G01X-226383Y-88129D01*
G01X-225530Y-67863D01*
G01X-223258Y-67863D01*
G01X-204318Y-68242D01*
G01X-185758Y-67863D01*
G01X-185189Y-72788D01*
G01X-185000Y-88318D01*
G01X-184716Y-104132D01*
G01X-183864Y-109909D01*
G01X-175152Y-110667D01*
G01X-167576Y-110667D01*
G01X-167197Y-108773D01*
G01X-166818Y-85288D01*
G01X-167576Y-62560D01*
G01X-168712Y-59909D01*
G01X-170227Y-57636D01*
G01X-172121Y-55742D01*
G01X-175152Y-53849D01*
G01X-178561Y-52712D01*
G01X-206591Y-52333D01*
G01X-235000Y-53091D01*
G01X-238030Y-54606D01*
G01X-240682Y-57257D01*
G01X-242576Y-60667D01*
G01X-243712Y-64833D01*
G01X-244091Y-150060D01*
G01X-381970Y-150060D01*
G01X-381970Y-148167D01*
G01X-381686Y-88129D01*
G01X-380833Y-67863D01*
G01X-378561Y-67863D01*
G01X-359621Y-68242D01*
G01X-341061Y-67863D01*
G01X-339924Y-68621D01*
G01X-339924Y-70894D01*
G01X-340303Y-90212D01*
G01X-339545Y-109530D01*
G01X-336989Y-110383D01*
G01X-330833Y-110667D01*
G01X-322879Y-110667D01*
G01X-322500Y-108773D01*
G01X-322121Y-84909D01*
G01X-322879Y-61803D01*
G01X-324015Y-59530D01*
G01X-325151Y-57636D01*
G01X-327803Y-55364D01*
G01X-331212Y-53470D01*
G01X-333864Y-52712D01*
G01X-361894Y-52333D01*
G01X-389924Y-53091D01*
G01X-392197Y-54227D01*
G01X-394091Y-55364D01*
G01X-395985Y-57636D01*
G01X-397879Y-61045D01*
G01X-398636Y-64455D01*
G01X-399015Y-67106D01*
G01X-399394Y-148924D01*
G01X-429705Y-148924D01*
G01X-429697Y-147030D01*
G01X-430455Y-60288D01*
G01X-431970Y-58015D01*
G01X-433864Y-56121D01*
G01X-435758Y-54606D01*
G01X-438030Y-53470D01*
G01X-440682Y-52712D01*
G01X-470985Y-52333D01*
G01X-501288Y-53091D01*
G01X-503561Y-54227D01*
G01X-505455Y-55742D01*
G01X-507348Y-57636D01*
G01X-508864Y-59909D01*
G01X-509621Y-62560D01*
G01X-510000Y-149303D01*
G01X-537273Y-149303D01*
G01X-537273Y-140212D01*
G01X-540682Y-139833D01*
G01X-559621Y-139454D01*
G01X-576288Y-139833D01*
G01X-577235Y-139644D01*
G01X-577803Y-138318D01*
G01X-578182Y-102333D01*
G01X-577898Y-76670D01*
G01X-577046Y-67863D01*
G01X-574773Y-67863D01*
G01X-554318Y-68242D01*
G01X-539640Y-67958D01*
G01X-534243Y-67106D01*
G01X-533485Y-59530D01*
G01X-533485Y-53091D01*
G01X-535379Y-52712D01*
G01X-566061Y-52333D01*
G01X-594848Y-52333D01*
G01X-610000Y-52333D01*
G01X-610000Y-13697D01*
G37*
G36*
G01X-123636Y-183773D02*
G01X-123636Y-138697D01*
G01X-87273Y-138697D01*
G01X-87273Y-229606D01*
G01X-105076Y-229606D01*
G01X-123258Y-229227D01*
G01X-123636Y-183773D01*
G37*
G36*
G01X211970Y-183773D02*
G01X211970Y-138697D01*
G01X247576Y-138697D01*
G01X247576Y-229606D01*
G01X230151Y-229606D01*
G01X212349Y-229227D01*
G01X211970Y-183773D01*
G37*
G36*
G01X-1712333Y333D02*
G01X-1712333Y42333D01*
G01X-1709167Y42333D01*
G01X-1705667Y42000D01*
G01X-1705167Y41167D01*
G01X-1704834Y39667D01*
G01X-1704333Y37667D01*
G01X-1703834Y36167D01*
G01X-1703667Y35000D01*
G01X-1703333Y33833D01*
G01X-1702834Y32167D01*
G01X-1702500Y30500D01*
G01X-1701834Y28167D01*
G01X-1701667Y27000D01*
G01X-1701333Y25833D01*
G01X-1700834Y23833D01*
G01X-1700333Y21666D01*
G01X-1699667Y19000D01*
G01X-1699167Y17333D01*
G01X-1698834Y15833D01*
G01X-1698167Y13500D01*
G01X-1698000Y12333D01*
G01X-1697667Y11167D01*
G01X-1697167Y9167D01*
G01X-1696667Y7000D01*
G01X-1695000Y333D01*
G01X-1694500Y-1500D01*
G01X-1694000Y-3667D01*
G01X-1693500Y-5167D01*
G01X-1693333Y-6333D01*
G01X-1692500Y-9667D01*
G01X-1692000Y-11333D01*
G01X-1691333Y-11333D01*
G01X-1690834Y-10500D01*
G01X-1690667Y-9333D01*
G01X-1690333Y-8000D01*
G01X-1689834Y-6167D01*
G01X-1689333Y-4000D01*
G01X-1688834Y-2167D01*
G01X-1688500Y-833D01*
G01X-1688167Y666D01*
G01X-1687667Y2666D01*
G01X-1687167Y4167D01*
G01X-1687000Y5333D01*
G01X-1686667Y6833D01*
G01X-1686167Y8167D01*
G01X-1686000Y9500D01*
G01X-1685667Y10833D01*
G01X-1685167Y12666D01*
G01X-1684667Y14833D01*
G01X-1684167Y16500D01*
G01X-1683834Y17833D01*
G01X-1683500Y19333D01*
G01X-1683000Y21333D01*
G01X-1682500Y22833D01*
G01X-1682333Y24167D01*
G01X-1682000Y25500D01*
G01X-1681500Y27167D01*
G01X-1681167Y28833D01*
G01X-1680500Y31167D01*
G01X-1680333Y32333D01*
G01X-1680000Y33500D01*
G01X-1679500Y35167D01*
G01X-1679000Y37333D01*
G01X-1678500Y39167D01*
G01X-1678000Y41167D01*
G01X-1677667Y42333D01*
G01X-1671000Y42333D01*
G01X-1671000Y1000D01*
G01X-1671167Y-41167D01*
G01X-1671333Y-42000D01*
G01X-1673500Y-42000D01*
G01X-1676833Y-41834D01*
G01X-1678000Y-41667D01*
G01X-1678000Y-15167D01*
G01X-1678167Y11833D01*
G01X-1678333Y12125D01*
G01X-1678520Y11985D01*
G01X-1679000Y11000D01*
G01X-1679500Y9167D01*
G01X-1680000Y7167D01*
G01X-1680500Y5833D01*
G01X-1680667Y4666D01*
G01X-1681000Y3500D01*
G01X-1681500Y1666D01*
G01X-1682333Y-1667D01*
G01X-1682667Y-2833D01*
G01X-1683167Y-4500D01*
G01X-1683667Y-6667D01*
G01X-1684167Y-8167D01*
G01X-1684333Y-9333D01*
G01X-1684667Y-10500D01*
G01X-1685167Y-12167D01*
G01X-1685667Y-14000D01*
G01X-1686333Y-16667D01*
G01X-1686834Y-18333D01*
G01X-1687333Y-20333D01*
G01X-1687834Y-21833D01*
G01X-1688000Y-23000D01*
G01X-1688333Y-24167D01*
G01X-1688834Y-25667D01*
G01X-1689167Y-27167D01*
G01X-1690000Y-30500D01*
G01X-1690667Y-32834D01*
G01X-1691083Y-33708D01*
G01X-1691667Y-34000D01*
G01X-1692208Y-33834D01*
G01X-1692500Y-33333D01*
G01X-1693000Y-32000D01*
G01X-1694000Y-28333D01*
G01X-1694500Y-26333D01*
G01X-1695500Y-22667D01*
G01X-1696000Y-20667D01*
G01X-1697000Y-17000D01*
G01X-1697667Y-14333D01*
G01X-1698167Y-12500D01*
G01X-1699167Y-9167D01*
G01X-1699667Y-7000D01*
G01X-1700167Y-5167D01*
G01X-1700834Y-2500D01*
G01X-1701333Y-667D01*
G01X-1701834Y833D01*
G01X-1702000Y2000D01*
G01X-1702333Y3167D01*
G01X-1702834Y4833D01*
G01X-1703333Y6833D01*
G01X-1703834Y8500D01*
G01X-1704500Y11167D01*
G01X-1705000Y12167D01*
G01X-1705250Y5625D01*
G01X-1705333Y-14333D01*
G01X-1705667Y-41500D01*
G01X-1706667Y-41875D01*
G01X-1709000Y-42000D01*
G01X-1712167Y-41834D01*
G01X-1712333Y333D01*
G37*
G36*
G01X-1528667Y-41000D02*
G01X-1529667Y-40333D01*
G01X-1530333Y-39667D01*
G01X-1530833Y-38834D01*
G01X-1531333Y-37667D01*
G01X-1531667Y-26500D01*
G01X-1531500Y-15167D01*
G01X-1531333Y-14333D01*
G01X-1528500Y-14333D01*
G01X-1524833Y-14500D01*
G01X-1524000Y-14667D01*
G01X-1524000Y-35000D01*
G01X-1505667Y-35000D01*
G01X-1505667Y-22333D01*
G01X-1505833Y-12667D01*
G01X-1506333Y-9000D01*
G01X-1507500Y-8000D01*
G01X-1508333Y-7333D01*
G01X-1509167Y-6833D01*
G01X-1510000Y-6167D01*
G01X-1511167Y-5167D01*
G01X-1512833Y-4000D01*
G01X-1514500Y-2667D01*
G01X-1515833Y-1667D01*
G01X-1517000Y-833D01*
G01X-1518500Y333D01*
G01X-1519833Y1333D01*
G01X-1520334Y2500D01*
G01X-1520125Y3292D01*
G01X-1519500Y4000D01*
G01X-1518167Y5000D01*
G01X-1517333Y5666D01*
G01X-1516167Y6500D01*
G01X-1514500Y7666D01*
G01X-1510500Y10666D01*
G01X-1509667Y11333D01*
G01X-1507333Y13000D01*
G01X-1506333Y13666D01*
G01X-1505833Y16583D01*
G01X-1505667Y24666D01*
G01X-1505667Y35333D01*
G01X-1513500Y35333D01*
G01X-1522500Y35500D01*
G01X-1523667Y35667D01*
G01X-1523667Y27333D01*
G01X-1523833Y17833D01*
G01X-1524000Y16666D01*
G01X-1527333Y16666D01*
G01X-1531167Y17000D01*
G01X-1531542Y19666D01*
G01X-1531667Y27000D01*
G01X-1531333Y37333D01*
G01X-1530833Y38833D01*
G01X-1530167Y40000D01*
G01X-1529333Y40833D01*
G01X-1528500Y41500D01*
G01X-1527500Y42000D01*
G01X-1515000Y42333D01*
G01X-1502333Y42000D01*
G01X-1500833Y41333D01*
G01X-1499667Y40500D01*
G01X-1499000Y39500D01*
G01X-1498500Y38500D01*
G01X-1498167Y37500D01*
G01X-1498000Y26833D01*
G01X-1498167Y15500D01*
G01X-1498500Y13500D01*
G01X-1499000Y12167D01*
G01X-1499667Y11167D01*
G01X-1500333Y10333D01*
G01X-1501000Y9666D01*
G01X-1503333Y8000D01*
G01X-1505333Y6666D01*
G01X-1506500Y5833D01*
G01X-1508167Y4666D01*
G01X-1509667Y3666D01*
G01X-1510083Y3167D01*
G01X-1510000Y2333D01*
G01X-1509167Y1000D01*
G01X-1506833Y-667D01*
G01X-1506000Y-1333D01*
G01X-1503500Y-3000D01*
G01X-1502167Y-3833D01*
G01X-1501333Y-4500D01*
G01X-1500500Y-5333D01*
G01X-1499667Y-6000D01*
G01X-1499000Y-6833D01*
G01X-1498333Y-8500D01*
G01X-1497833Y-10167D01*
G01X-1497667Y-23167D01*
G01X-1498000Y-36667D01*
G01X-1498833Y-39167D01*
G01X-1499833Y-40333D01*
G01X-1501333Y-41333D01*
G01X-1502500Y-41834D01*
G01X-1514667Y-42000D01*
G01X-1527167Y-41667D01*
G01X-1528667Y-41000D01*
G37*
G36*
G01X-1654667Y-41000D02*
G01X-1655500Y-40333D01*
G01X-1656333Y-39500D01*
G01X-1657000Y-38500D01*
G01X-1657333Y-27000D01*
G01X-1657167Y-15167D01*
G01X-1657000Y-14333D01*
G01X-1654333Y-14333D01*
G01X-1650833Y-14500D01*
G01X-1650000Y-14667D01*
G01X-1650000Y-35000D01*
G01X-1640667Y-35000D01*
G01X-1633708Y-34917D01*
G01X-1631500Y-34667D01*
G01X-1631667Y-22833D01*
G01X-1631500Y-10833D01*
G01X-1631667Y-9667D01*
G01X-1632667Y-8667D01*
G01X-1633667Y-7833D01*
G01X-1634833Y-6833D01*
G01X-1636500Y-5667D01*
G01X-1645833Y1333D01*
G01X-1646334Y2333D01*
G01X-1646000Y3333D01*
G01X-1645334Y4000D01*
G01X-1644500Y4666D01*
G01X-1643167Y5666D01*
G01X-1641833Y6500D01*
G01X-1641000Y7167D01*
G01X-1639833Y8167D01*
G01X-1638167Y9333D01*
G01X-1634167Y12333D01*
G01X-1633334Y13000D01*
G01X-1632334Y13666D01*
G01X-1631833Y16583D01*
G01X-1631667Y24666D01*
G01X-1631667Y35333D01*
G01X-1639500Y35333D01*
G01X-1648500Y35500D01*
G01X-1649667Y35667D01*
G01X-1649667Y27000D01*
G01X-1649833Y17500D01*
G01X-1650000Y16666D01*
G01X-1657333Y16666D01*
G01X-1657333Y27000D01*
G01X-1657000Y38167D01*
G01X-1656333Y39500D01*
G01X-1655667Y40500D01*
G01X-1654667Y41333D01*
G01X-1653500Y42000D01*
G01X-1641334Y42333D01*
G01X-1629167Y42167D01*
G01X-1627833Y41833D01*
G01X-1626667Y41333D01*
G01X-1625833Y40667D01*
G01X-1625000Y39667D01*
G01X-1624333Y38333D01*
G01X-1624000Y26666D01*
G01X-1624167Y14500D01*
G01X-1624667Y12666D01*
G01X-1625500Y11167D01*
G01X-1626500Y10000D01*
G01X-1630000Y7500D01*
G01X-1631500Y6500D01*
G01X-1635000Y4000D01*
G01X-1635833Y3500D01*
G01X-1636125Y3125D01*
G01X-1636000Y2333D01*
G01X-1635167Y1000D01*
G01X-1632833Y-667D01*
G01X-1630833Y-2000D01*
G01X-1628500Y-3667D01*
G01X-1627667Y-4333D01*
G01X-1626500Y-5167D01*
G01X-1625167Y-6500D01*
G01X-1624333Y-8167D01*
G01X-1623833Y-9500D01*
G01X-1623667Y-23167D01*
G01X-1624000Y-37000D01*
G01X-1624500Y-38500D01*
G01X-1625167Y-39667D01*
G01X-1626000Y-40500D01*
G01X-1627167Y-41333D01*
G01X-1628500Y-41834D01*
G01X-1640500Y-42000D01*
G01X-1653167Y-41667D01*
G01X-1654667Y-41000D01*
G37*
G36*
G01X-1593000Y-39500D02*
G01X-1592333Y-38167D01*
G01X-1591000Y-35167D01*
G01X-1590333Y-33834D01*
G01X-1589667Y-32167D01*
G01X-1588333Y-29500D01*
G01X-1587667Y-27834D01*
G01X-1586333Y-25167D01*
G01X-1585667Y-23500D01*
G01X-1585000Y-22167D01*
G01X-1583667Y-19167D01*
G01X-1583000Y-17833D01*
G01X-1582333Y-16333D01*
G01X-1582167Y-14833D01*
G01X-1582667Y-13167D01*
G01X-1583333Y-11833D01*
G01X-1584333Y-9500D01*
G01X-1585000Y-8167D01*
G01X-1585667Y-6500D01*
G01X-1586333Y-5167D01*
G01X-1587333Y-2833D01*
G01X-1588000Y-1500D01*
G01X-1588667Y167D01*
G01X-1589333Y1500D01*
G01X-1590333Y3833D01*
G01X-1591000Y5167D01*
G01X-1591667Y6833D01*
G01X-1592333Y8167D01*
G01X-1592833Y9500D01*
G01X-1593000Y10333D01*
G01X-1589667Y10333D01*
G01X-1586000Y10000D01*
G01X-1585333Y8833D01*
G01X-1584000Y5833D01*
G01X-1582667Y2500D01*
G01X-1582000Y1000D01*
G01X-1581500Y-334D01*
G01X-1579000Y-6167D01*
G01X-1578500Y-7500D01*
G01X-1578292Y-8084D01*
G01X-1578000Y-8167D01*
G01X-1577333Y-7500D01*
G01X-1571333Y6500D01*
G01X-1570667Y7833D01*
G01X-1569667Y10333D01*
G01X-1566167Y10333D01*
G01X-1563625Y10208D01*
G01X-1563000Y9833D01*
G01X-1563667Y8500D01*
G01X-1565000Y5500D01*
G01X-1565667Y4167D01*
G01X-1567000Y1167D01*
G01X-1567667Y-167D01*
G01X-1568333Y-1833D01*
G01X-1569667Y-4500D01*
G01X-1570333Y-6167D01*
G01X-1571000Y-7500D01*
G01X-1572000Y-9833D01*
G01X-1572667Y-11167D01*
G01X-1573333Y-12667D01*
G01X-1573834Y-14000D01*
G01X-1573834Y-15167D01*
G01X-1573333Y-16500D01*
G01X-1572667Y-18167D01*
G01X-1572000Y-19500D01*
G01X-1569333Y-25500D01*
G01X-1568667Y-26833D01*
G01X-1568000Y-28500D01*
G01X-1567333Y-29834D01*
G01X-1566333Y-32167D01*
G01X-1565667Y-33500D01*
G01X-1565000Y-35167D01*
G01X-1564333Y-36500D01*
G01X-1563000Y-39500D01*
G01X-1562500Y-40834D01*
G01X-1562333Y-41667D01*
G01X-1565667Y-41667D01*
G01X-1568292Y-41500D01*
G01X-1569500Y-41000D01*
G01X-1570333Y-39500D01*
G01X-1571000Y-37834D01*
G01X-1572333Y-34834D01*
G01X-1573000Y-33167D01*
G01X-1573667Y-31667D01*
G01X-1574167Y-30333D01*
G01X-1576667Y-24500D01*
G01X-1577333Y-23000D01*
G01X-1578000Y-21833D01*
G01X-1578500Y-22167D01*
G01X-1579000Y-23167D01*
G01X-1582000Y-30167D01*
G01X-1582667Y-31500D01*
G01X-1583333Y-33167D01*
G01X-1584667Y-36167D01*
G01X-1585333Y-37834D01*
G01X-1586667Y-40834D01*
G01X-1587000Y-41667D01*
G01X-1594000Y-41667D01*
G01X-1593667Y-41000D01*
G01X-1593000Y-39500D01*
G37*
G36*
G01X-1543000Y-154500D02*
G01X-1543000Y-119000D01*
G01X-1535333Y-119000D01*
G01X-1535333Y-154333D01*
G01X-1535167Y-189834D01*
G01X-1530333Y-190000D01*
G01X-1530333Y-190000D01*
G01X-1525167Y-189834D01*
G01X-1524000Y-189667D01*
G01X-1522167Y-189333D01*
G01X-1520500Y-188667D01*
G01X-1519500Y-188167D01*
G01X-1518667Y-187500D01*
G01X-1517833Y-186667D01*
G01X-1517000Y-185500D01*
G01X-1516333Y-184000D01*
G01X-1516000Y-155333D01*
G01X-1516167Y-126167D01*
G01X-1516667Y-124500D01*
G01X-1517167Y-123333D01*
G01X-1517833Y-122333D01*
G01X-1518667Y-121500D01*
G01X-1519667Y-120667D01*
G01X-1520833Y-120000D01*
G01X-1522333Y-119500D01*
G01X-1523833Y-119167D01*
G01X-1529833Y-119000D01*
G01X-1535333Y-119000D01*
G01X-1543000Y-119000D01*
G01X-1543000Y-112667D01*
G01X-1532000Y-112667D01*
G01X-1519833Y-113000D01*
G01X-1518167Y-113500D01*
G01X-1516833Y-114000D01*
G01X-1515500Y-114667D01*
G01X-1514333Y-115333D01*
G01X-1513333Y-116167D01*
G01X-1511333Y-118167D01*
G01X-1510333Y-119667D01*
G01X-1509667Y-120833D01*
G01X-1509000Y-122333D01*
G01X-1508500Y-123833D01*
G01X-1508333Y-153500D01*
G01X-1508500Y-184167D01*
G01X-1509000Y-186333D01*
G01X-1509667Y-187834D01*
G01X-1510333Y-189167D01*
G01X-1511000Y-190333D01*
G01X-1511833Y-191333D01*
G01X-1513833Y-193333D01*
G01X-1515333Y-194333D01*
G01X-1516500Y-195000D01*
G01X-1518167Y-195667D01*
G01X-1519833Y-196167D01*
G01X-1531666Y-196333D01*
G01X-1543000Y-196333D01*
G01X-1543000Y-154500D01*
G37*
G36*
G01X-1680333Y-194167D02*
G01X-1681167Y-192667D01*
G01X-1681500Y-191500D01*
G01X-1681667Y-155167D01*
G01X-1681500Y-118500D01*
G01X-1681167Y-116833D01*
G01X-1680667Y-115500D01*
G01X-1680000Y-114500D01*
G01X-1679167Y-113667D01*
G01X-1678167Y-113000D01*
G01X-1665167Y-112667D01*
G01X-1651833Y-112833D01*
G01X-1650333Y-113333D01*
G01X-1649000Y-114333D01*
G01X-1648000Y-115667D01*
G01X-1647500Y-116833D01*
G01X-1647333Y-127667D01*
G01X-1647333Y-138000D01*
G01X-1655000Y-138000D01*
G01X-1655000Y-119000D01*
G01X-1674000Y-119000D01*
G01X-1674000Y-190000D01*
G01X-1655000Y-190000D01*
G01X-1655000Y-160667D01*
G01X-1664000Y-160667D01*
G01X-1664000Y-154667D01*
G01X-1647333Y-154667D01*
G01X-1647333Y-172167D01*
G01X-1647500Y-191167D01*
G01X-1648000Y-193167D01*
G01X-1648500Y-194167D01*
G01X-1649167Y-195000D01*
G01X-1650500Y-195833D01*
G01X-1654417Y-196208D01*
G01X-1664500Y-196333D01*
G01X-1674625Y-196167D01*
G01X-1678667Y-195667D01*
G01X-1680333Y-194167D01*
G37*
G36*
G01X-1612667Y-154500D02*
G01X-1612667Y-112667D01*
G01X-1610000Y-112667D01*
G01X-1607000Y-113000D01*
G01X-1606333Y-114000D01*
G01X-1605833Y-115500D01*
G01X-1604833Y-118167D01*
G01X-1604333Y-119667D01*
G01X-1603667Y-121333D01*
G01X-1603000Y-123333D01*
G01X-1602333Y-125000D01*
G01X-1601833Y-126500D01*
G01X-1600833Y-129167D01*
G01X-1600333Y-130667D01*
G01X-1599667Y-132333D01*
G01X-1599000Y-134333D01*
G01X-1598333Y-136000D01*
G01X-1597833Y-137500D01*
G01X-1596833Y-140167D01*
G01X-1596333Y-141667D01*
G01X-1595667Y-143333D01*
G01X-1595000Y-145333D01*
G01X-1594333Y-147000D01*
G01X-1593333Y-150000D01*
G01X-1592667Y-151667D01*
G01X-1592000Y-153667D01*
G01X-1591333Y-155333D01*
G01X-1590833Y-156833D01*
G01X-1589833Y-159500D01*
G01X-1589333Y-161000D01*
G01X-1588667Y-162667D01*
G01X-1588000Y-164667D01*
G01X-1587333Y-166333D01*
G01X-1586833Y-167833D01*
G01X-1585833Y-170500D01*
G01X-1585333Y-171500D01*
G01X-1585083Y-164250D01*
G01X-1585000Y-142167D01*
G01X-1585000Y-112667D01*
G01X-1578000Y-112667D01*
G01X-1578000Y-196333D01*
G01X-1580667Y-196333D01*
G01X-1582708Y-196167D01*
G01X-1583500Y-195667D01*
G01X-1584000Y-194333D01*
G01X-1584667Y-192667D01*
G01X-1585333Y-190667D01*
G01X-1586000Y-189000D01*
G01X-1586500Y-187500D01*
G01X-1587500Y-184834D01*
G01X-1588000Y-183333D01*
G01X-1588667Y-181667D01*
G01X-1589333Y-179667D01*
G01X-1590000Y-178000D01*
G01X-1590500Y-176500D01*
G01X-1591500Y-173833D01*
G01X-1592000Y-172333D01*
G01X-1592667Y-170667D01*
G01X-1593333Y-168667D01*
G01X-1594000Y-167000D01*
G01X-1594500Y-165500D01*
G01X-1595500Y-162833D01*
G01X-1596000Y-161333D01*
G01X-1596667Y-159667D01*
G01X-1597333Y-157667D01*
G01X-1598000Y-156000D01*
G01X-1598500Y-154500D01*
G01X-1599500Y-151833D01*
G01X-1600000Y-150333D01*
G01X-1600667Y-148667D01*
G01X-1601333Y-146667D01*
G01X-1602000Y-145000D01*
G01X-1602500Y-143500D01*
G01X-1603500Y-140833D01*
G01X-1604000Y-139333D01*
G01X-1604500Y-138000D01*
G01X-1605000Y-137167D01*
G01X-1605250Y-144458D01*
G01X-1605333Y-166667D01*
G01X-1605333Y-196333D01*
G01X-1612667Y-196333D01*
G01X-1612667Y-154500D01*
G37*
G36*
G01X885749Y-314995D02*
G01X886615Y-315687D01*
G01X887481Y-316553D01*
G01X888174Y-317592D01*
G01X888520Y-359849D01*
G01X888520Y-401586D01*
G01X885576Y-401586D01*
G01X881766Y-401412D01*
G01X880900Y-401239D01*
G01X880900Y-321229D01*
G01X871375Y-321229D01*
G01X860984Y-321402D01*
G01X860118Y-321576D01*
G01X860118Y-360715D01*
G01X859945Y-400720D01*
G01X859772Y-401586D01*
G01X857001Y-401586D01*
G01X853364Y-401412D01*
G01X852498Y-401239D01*
G01X852498Y-359849D01*
G01X852845Y-317939D01*
G01X853537Y-316727D01*
G01X854750Y-315341D01*
G01X856308Y-314475D01*
G01X857521Y-314129D01*
G01X870509Y-313956D01*
G01X884191Y-314302D01*
G01X885749Y-314995D01*
G37*
G36*
G01X836046Y-315341D02*
G01X837431Y-316727D01*
G01X838124Y-318285D01*
G01X838471Y-319671D01*
G01X838644Y-357251D01*
G01X838471Y-395178D01*
G01X838124Y-396910D01*
G01X837605Y-398468D01*
G01X836739Y-399681D01*
G01X835700Y-400547D01*
G01X834487Y-401239D01*
G01X822191Y-401586D01*
G01X809376Y-401412D01*
G01X807298Y-400720D01*
G01X805912Y-399681D01*
G01X805046Y-398642D01*
G01X804354Y-397429D01*
G01X804007Y-386346D01*
G01X804007Y-375955D01*
G01X807125Y-375955D01*
G01X811108Y-376128D01*
G01X811974Y-376301D01*
G01X811974Y-385480D01*
G01X812060Y-392321D01*
G01X812320Y-394485D01*
G01X820633Y-394312D01*
G01X829119Y-394485D01*
G01X830158Y-394485D01*
G01X830547Y-390372D01*
G01X830677Y-378379D01*
G01X830677Y-362447D01*
G01X820806Y-362447D01*
G01X810415Y-362273D01*
G01X808856Y-362100D01*
G01X807125Y-361581D01*
G01X805912Y-360715D01*
G01X805046Y-359849D01*
G01X804354Y-358810D01*
G01X804007Y-357597D01*
G01X803834Y-356385D01*
G01X803661Y-338721D01*
G01X803832Y-321229D01*
G01X811627Y-321229D01*
G01X811627Y-337508D01*
G01X811801Y-354653D01*
G01X811974Y-355519D01*
G01X820460Y-355519D01*
G01X829811Y-355346D01*
G01X830677Y-355173D01*
G01X830677Y-338374D01*
G01X830504Y-321402D01*
G01X820979Y-321229D01*
G01X820979Y-321229D01*
G01X811627Y-321229D01*
G01X803832Y-321229D01*
G01X803834Y-321056D01*
G01X804181Y-318632D01*
G01X804527Y-317419D01*
G01X805220Y-316380D01*
G01X806086Y-315514D01*
G01X807298Y-314648D01*
G01X808683Y-314129D01*
G01X821152Y-313956D01*
G01X834141Y-314302D01*
G01X836046Y-315341D01*
G37*
G36*
G01X-61637Y-551273D02*
G01X-63196Y-550061D01*
G01X-64235Y-548676D01*
G01X-64754Y-547463D01*
G01X-64927Y-532050D01*
G01X-64908Y-530318D01*
G01X-56961Y-530318D01*
G01X-56788Y-544692D01*
G01X-46917Y-544866D01*
G01X-46917Y-544866D01*
G01X-37218Y-544866D01*
G01X-37218Y-530838D01*
G01X-37348Y-520144D01*
G01X-37738Y-516117D01*
G01X-38950Y-515078D01*
G01X-42067Y-513000D01*
G01X-43453Y-512134D01*
G01X-44665Y-511268D01*
G01X-46051Y-510402D01*
G01X-47436Y-510056D01*
G01X-48475Y-510576D01*
G01X-49514Y-511268D01*
G01X-50900Y-512134D01*
G01X-52632Y-513346D01*
G01X-56268Y-515771D01*
G01X-56788Y-519581D01*
G01X-56961Y-530318D01*
G01X-64908Y-530318D01*
G01X-64754Y-516637D01*
G01X-64408Y-514905D01*
G01X-63715Y-513346D01*
G01X-61983Y-511615D01*
G01X-58866Y-509536D01*
G01X-57481Y-508671D01*
G01X-55749Y-507631D01*
G01X-54363Y-506766D01*
G01X-54104Y-506376D01*
G01X-54363Y-505900D01*
G01X-55749Y-504861D01*
G01X-59212Y-502782D01*
G01X-62330Y-500704D01*
G01X-63542Y-499492D01*
G01X-64235Y-498280D01*
G01X-64581Y-483732D01*
G01X-56961Y-483732D01*
G01X-56615Y-496375D01*
G01X-55749Y-497414D01*
G01X-54363Y-498280D01*
G01X-49687Y-501397D01*
G01X-48475Y-502090D01*
G01X-46570Y-501916D01*
G01X-44319Y-501051D01*
G01X-44319Y-501051D01*
G01X-39643Y-497933D01*
G01X-38257Y-497067D01*
G01X-37738Y-493647D01*
G01X-37565Y-484079D01*
G01X-37695Y-474640D01*
G01X-38084Y-471610D01*
G01X-46743Y-471783D01*
G01X-55402Y-471610D01*
G01X-56442Y-471610D01*
G01X-56831Y-474727D01*
G01X-56961Y-483732D01*
G01X-64581Y-483732D01*
G01X-64408Y-469185D01*
G01X-64062Y-467973D01*
G01X-63369Y-466934D01*
G01X-62503Y-466068D01*
G01X-61637Y-465375D01*
G01X-60425Y-464856D01*
G01X-47956Y-464509D01*
G01X-34967Y-464682D01*
G01X-32889Y-465375D01*
G01X-31503Y-466414D01*
G01X-30637Y-467453D01*
G01X-29945Y-468666D01*
G01X-29598Y-482866D01*
G01X-29772Y-496894D01*
G01X-30291Y-498280D01*
G01X-30984Y-499492D01*
G01X-31677Y-500358D01*
G01X-32889Y-501397D01*
G01X-37045Y-503995D01*
G01X-38084Y-504687D01*
G01X-39470Y-505553D01*
G01X-40032Y-506073D01*
G01X-39989Y-506592D01*
G01X-38950Y-507458D01*
G01X-37911Y-508151D01*
G01X-36699Y-509017D01*
G01X-34967Y-510056D01*
G01X-33408Y-511095D01*
G01X-32023Y-511961D01*
G01X-30984Y-512827D01*
G01X-30118Y-514039D01*
G01X-29598Y-515425D01*
G01X-29425Y-516637D01*
G01X-29252Y-530665D01*
G01X-29425Y-545385D01*
G01X-29772Y-547463D01*
G01X-30464Y-549195D01*
G01X-31850Y-550754D01*
G01X-33408Y-551620D01*
G01X-34621Y-551966D01*
G01X-47263Y-552139D01*
G01X-60078Y-551966D01*
G01X-61637Y-551273D01*
G37*
G36*
G01X-110301Y-551100D02*
G01X-111167Y-550407D01*
G01X-112033Y-549541D01*
G01X-112726Y-548502D01*
G01X-113072Y-508671D01*
G01X-112726Y-468492D01*
G01X-111860Y-466934D01*
G01X-110994Y-465895D01*
G01X-110128Y-465375D01*
G01X-109089Y-464856D01*
G01X-96273Y-464509D01*
G01X-83458Y-464682D01*
G01X-82246Y-465029D01*
G01X-80687Y-465895D01*
G01X-79475Y-466934D01*
G01X-78955Y-467800D01*
G01X-78436Y-468839D01*
G01X-78089Y-479403D01*
G01X-78262Y-490313D01*
G01X-78436Y-491179D01*
G01X-86056Y-491179D01*
G01X-86056Y-481308D01*
G01X-86186Y-473947D01*
G01X-86575Y-471610D01*
G01X-95234Y-471783D01*
G01X-103893Y-471610D01*
G01X-104932Y-471610D01*
G01X-105322Y-480875D01*
G01X-105452Y-508324D01*
G01X-105452Y-544866D01*
G01X-86056Y-544866D01*
G01X-86056Y-534994D01*
G01X-85882Y-524257D01*
G01X-85709Y-523391D01*
G01X-82765Y-523391D01*
G01X-78955Y-523564D01*
G01X-78089Y-523737D01*
G01X-78089Y-535341D01*
G01X-78436Y-547463D01*
G01X-78955Y-548676D01*
G01X-79648Y-549715D01*
G01X-80514Y-550581D01*
G01X-81726Y-551446D01*
G01X-83112Y-551966D01*
G01X-95581Y-552139D01*
G01X-108742Y-551793D01*
G01X-110301Y-551100D01*
G37*
G36*
G01X340960Y-1646968D02*
G01X344424Y-1647141D01*
G01X346892Y-1646968D01*
G01X348061Y-1646448D01*
G01X348753Y-1644890D01*
G01X349100Y-1642812D01*
G01X349619Y-1640907D01*
G01X349966Y-1639521D01*
G01X350139Y-1638309D01*
G01X350832Y-1635192D01*
G01X351524Y-1632420D01*
G01X351871Y-1630689D01*
G01X352390Y-1628784D01*
G01X352737Y-1627398D01*
G01X352910Y-1626186D01*
G01X353603Y-1623415D01*
G01X353949Y-1621510D01*
G01X354468Y-1619432D01*
G01X354815Y-1617873D01*
G01X354988Y-1616488D01*
G01X355508Y-1614756D01*
G01X356027Y-1612505D01*
G01X356373Y-1610946D01*
G01X356720Y-1609214D01*
G01X357239Y-1607309D01*
G01X357586Y-1605924D01*
G01X357759Y-1604712D01*
G01X358452Y-1601594D01*
G01X358798Y-1599862D01*
G01X359318Y-1597957D01*
G01X359664Y-1596399D01*
G01X359837Y-1595013D01*
G01X360357Y-1593282D01*
G01X360876Y-1591030D01*
G01X361223Y-1589472D01*
G01X361569Y-1587567D01*
G01X362088Y-1585662D01*
G01X362435Y-1584276D01*
G01X362608Y-1582890D01*
G01X363301Y-1580120D01*
G01X363993Y-1576656D01*
G01X364859Y-1573192D01*
G01X365379Y-1570768D01*
G01X365898Y-1568517D01*
G01X366418Y-1566092D01*
G01X366938Y-1564014D01*
G01X367284Y-1561762D01*
G01X367111Y-1560507D01*
G01X366591Y-1559857D01*
G01X349273Y-1559511D01*
G01X332648Y-1559511D01*
G01X332474Y-1560377D01*
G01X332301Y-1570248D01*
G01X332301Y-1579254D01*
G01X333513Y-1579427D01*
G01X337323Y-1579600D01*
G01X339921Y-1579600D01*
G01X340094Y-1578734D01*
G01X340268Y-1572153D01*
G01X340268Y-1566438D01*
G01X341480Y-1566612D01*
G01X350312Y-1566785D01*
G01X358278Y-1566612D01*
G01X358538Y-1566698D01*
G01X358625Y-1567304D01*
G01X358278Y-1568690D01*
G01X357932Y-1569902D01*
G01X357759Y-1571114D01*
G01X357066Y-1574232D01*
G01X356720Y-1575963D01*
G01X356200Y-1577868D01*
G01X355854Y-1579427D01*
G01X355681Y-1580812D01*
G01X355161Y-1582371D01*
G01X354815Y-1584103D01*
G01X354642Y-1585315D01*
G01X354122Y-1587047D01*
G01X353603Y-1589472D01*
G01X352910Y-1592935D01*
G01X352390Y-1594840D01*
G01X352044Y-1596225D01*
G01X351871Y-1597438D01*
G01X351178Y-1600209D01*
G01X350832Y-1601940D01*
G01X350312Y-1603845D01*
G01X349966Y-1605404D01*
G01X349793Y-1606790D01*
G01X349273Y-1608522D01*
G01X348753Y-1610773D01*
G01X348407Y-1612332D01*
G01X348061Y-1614237D01*
G01X347541Y-1616142D01*
G01X347195Y-1617527D01*
G01X347022Y-1618912D01*
G01X346329Y-1621337D01*
G01X345983Y-1623762D01*
G01X345463Y-1625320D01*
G01X345117Y-1627052D01*
G01X344424Y-1629823D01*
G01X344251Y-1631035D01*
G01X343558Y-1633806D01*
G01X343212Y-1635711D01*
G01X342692Y-1637616D01*
G01X342346Y-1639002D01*
G01X342173Y-1640387D01*
G01X341480Y-1643158D01*
G01X341133Y-1644890D01*
G01X340787Y-1646448D01*
G01X340960Y-1646968D01*
G37*
G36*
G01X291257Y-1646795D02*
G01X304419Y-1647141D01*
G01X316888Y-1646968D01*
G01X318273Y-1646448D01*
G01X319486Y-1645582D01*
G01X320352Y-1644717D01*
G01X321044Y-1643677D01*
G01X321564Y-1642465D01*
G01X321910Y-1630342D01*
G01X321910Y-1618739D01*
G01X321044Y-1618566D01*
G01X317234Y-1618393D01*
G01X314290Y-1618393D01*
G01X314117Y-1619259D01*
G01X313944Y-1629996D01*
G01X313944Y-1639867D01*
G01X294548Y-1639867D01*
G01X294548Y-1603326D01*
G01X294677Y-1575877D01*
G01X295067Y-1566612D01*
G01X296106Y-1566612D01*
G01X304765Y-1566785D01*
G01X313424Y-1566612D01*
G01X313814Y-1568949D01*
G01X313944Y-1576310D01*
G01X313944Y-1586181D01*
G01X321564Y-1586181D01*
G01X321737Y-1585315D01*
G01X321910Y-1574405D01*
G01X321564Y-1563840D01*
G01X321044Y-1562802D01*
G01X320525Y-1561935D01*
G01X319313Y-1560897D01*
G01X317754Y-1560030D01*
G01X316542Y-1559684D01*
G01X303726Y-1559511D01*
G01X290911Y-1559857D01*
G01X289872Y-1560377D01*
G01X289006Y-1560897D01*
G01X288140Y-1561935D01*
G01X287274Y-1563494D01*
G01X286928Y-1603672D01*
G01X287274Y-1643504D01*
G01X287967Y-1644543D01*
G01X288833Y-1645409D01*
G01X289698Y-1646102D01*
G01X291257Y-1646795D01*
G37*
G36*
G01X-322743Y-1243791D02*
G01X-309061Y-1244137D01*
G01X-296073Y-1243964D01*
G01X-294860Y-1243618D01*
G01X-293302Y-1242752D01*
G01X-292089Y-1241367D01*
G01X-291397Y-1240154D01*
G01X-291050Y-1198244D01*
G01X-291050Y-1156854D01*
G01X-291916Y-1156681D01*
G01X-295553Y-1156507D01*
G01X-298324Y-1156507D01*
G01X-298497Y-1157373D01*
G01X-298670Y-1197378D01*
G01X-298670Y-1236517D01*
G01X-299536Y-1236691D01*
G01X-309927Y-1236864D01*
G01X-319452Y-1236864D01*
G01X-319452Y-1156854D01*
G01X-320318Y-1156681D01*
G01X-324128Y-1156507D01*
G01X-327072Y-1156507D01*
G01X-327072Y-1198244D01*
G01X-326726Y-1240501D01*
G01X-326033Y-1241540D01*
G01X-325167Y-1242406D01*
G01X-324301Y-1243098D01*
G01X-322743Y-1243791D01*
G37*
G36*
G01X-275810Y-1243964D02*
G01X-272173Y-1244137D01*
G01X-269619Y-1244008D01*
G01X-268537Y-1243618D01*
G01X-268190Y-1199976D01*
G01X-268190Y-1156854D01*
G01X-269056Y-1156681D01*
G01X-272173Y-1156507D01*
G01X-274425Y-1156507D01*
G01X-274771Y-1157720D01*
G01X-275291Y-1159798D01*
G01X-275637Y-1162222D01*
G01X-275983Y-1164301D01*
G01X-276330Y-1165686D01*
G01X-276676Y-1168111D01*
G01X-277196Y-1170362D01*
G01X-277542Y-1172094D01*
G01X-277715Y-1173652D01*
G01X-278408Y-1176770D01*
G01X-278581Y-1178155D01*
G01X-279274Y-1181272D01*
G01X-279447Y-1182658D01*
G01X-279360Y-1183091D01*
G01X-278754Y-1183351D01*
G01X-277023Y-1183524D01*
G01X-276157Y-1183524D01*
G01X-276157Y-1213657D01*
G01X-275810Y-1243964D01*
G37*
G36*
G01X1918100Y15032D02*
G01X1921564Y14859D01*
G01X1924118Y14989D01*
G01X1925201Y15379D01*
G01X1925547Y55557D01*
G01X1925677Y85344D01*
G01X1926067Y95389D01*
G01X1927106Y95389D01*
G01X1936111Y95216D01*
G01X1944943Y95389D01*
G01X1945203Y91492D01*
G01X1945290Y79456D01*
G01X1945290Y63350D01*
G01X1944077Y63523D01*
G01X1937497Y63697D01*
G01X1933340Y63567D01*
G01X1931608Y63177D01*
G01X1930916Y61792D01*
G01X1931089Y60060D01*
G01X1931608Y58328D01*
G01X1933687Y52786D01*
G01X1935245Y48110D01*
G01X1935765Y46725D01*
G01X1936111Y45512D01*
G01X1936631Y43954D01*
G01X1937323Y42222D01*
G01X1939402Y35987D01*
G01X1940094Y34256D01*
G01X1940614Y32524D01*
G01X1941653Y29753D01*
G01X1941999Y28541D01*
G01X1943038Y25423D01*
G01X1943558Y24038D01*
G01X1944251Y22133D01*
G01X1945290Y19016D01*
G01X1945982Y17284D01*
G01X1946502Y15898D01*
G01X1946935Y15336D01*
G01X1947887Y15032D01*
G01X1951697Y14859D01*
G01X1954642Y15206D01*
G01X1954642Y16245D01*
G01X1953256Y20055D01*
G01X1952217Y22826D01*
G01X1951178Y25943D01*
G01X1950658Y27328D01*
G01X1950312Y28541D01*
G01X1949792Y29926D01*
G01X1949100Y31831D01*
G01X1948407Y33563D01*
G01X1947368Y36680D01*
G01X1945290Y42222D01*
G01X1944251Y45339D01*
G01X1943558Y47071D01*
G01X1943038Y48803D01*
G01X1940960Y54345D01*
G01X1940614Y55557D01*
G01X1940614Y56423D01*
G01X1941480Y56769D01*
G01X1942692Y56596D01*
G01X1944770Y56423D01*
G01X1946848Y56596D01*
G01X1948580Y57116D01*
G01X1950312Y57808D01*
G01X1951351Y58501D01*
G01X1952217Y59540D01*
G01X1952910Y60926D01*
G01X1953256Y62484D01*
G01X1953429Y63870D01*
G01X1953602Y79976D01*
G01X1953429Y96082D01*
G01X1953083Y97813D01*
G01X1952563Y99372D01*
G01X1951871Y100238D01*
G01X1950658Y101277D01*
G01X1948753Y102143D01*
G01X1932821Y102489D01*
G01X1917927Y102489D01*
G01X1917927Y58847D01*
G01X1918100Y15032D01*
G37*
G36*
G01X1987892Y15032D02*
G01X2005037Y14859D01*
G01X2021836Y14859D01*
G01X2022009Y15725D01*
G01X2022182Y19189D01*
G01X2022182Y21787D01*
G01X2021317Y21960D01*
G01X2008847Y22133D01*
G01X1997244Y22133D01*
G01X1997417Y22826D01*
G01X1997937Y24038D01*
G01X2000015Y28194D01*
G01X2001401Y31312D01*
G01X2004518Y37546D01*
G01X2005557Y39971D01*
G01X2007635Y44127D01*
G01X2008328Y45686D01*
G01X2009713Y48457D01*
G01X2010406Y50015D01*
G01X2011792Y52786D01*
G01X2012484Y54345D01*
G01X2013177Y55730D01*
G01X2013870Y57289D01*
G01X2016641Y62831D01*
G01X2017333Y64389D01*
G01X2018026Y65775D01*
G01X2018719Y67333D01*
G01X2020104Y70104D01*
G01X2020797Y71836D01*
G01X2021490Y73914D01*
G01X2022009Y75646D01*
G01X2022182Y87076D01*
G01X2021836Y98506D01*
G01X2021143Y99718D01*
G01X2020277Y100757D01*
G01X2019412Y101450D01*
G01X2018199Y101970D01*
G01X2016814Y102316D01*
G01X2004864Y102489D01*
G01X1992742Y102143D01*
G01X1991529Y101450D01*
G01X1990490Y100584D01*
G01X1989624Y99372D01*
G01X1988932Y97467D01*
G01X1988585Y86210D01*
G01X1988585Y76166D01*
G01X1989451Y75992D01*
G01X1993434Y75819D01*
G01X1996552Y75819D01*
G01X1996552Y85517D01*
G01X1996682Y92834D01*
G01X1997071Y95389D01*
G01X1998110Y95389D01*
G01X2005903Y95216D01*
G01X2013697Y95389D01*
G01X2014086Y92834D01*
G01X2014216Y84825D01*
G01X2013870Y73568D01*
G01X2011792Y69412D01*
G01X2010406Y66294D01*
G01X2006942Y59367D01*
G01X2006423Y58155D01*
G01X2005384Y56077D01*
G01X2004864Y54864D01*
G01X2003306Y51747D01*
G01X2002613Y50188D01*
G01X2001574Y48110D01*
G01X2001054Y46898D01*
G01X1997764Y40317D01*
G01X1997244Y39105D01*
G01X1996552Y37546D01*
G01X1993781Y32004D01*
G01X1993088Y30446D01*
G01X1992395Y29060D01*
G01X1991702Y27502D01*
G01X1990317Y24731D01*
G01X1989624Y23172D01*
G01X1988239Y20401D01*
G01X1987719Y18842D01*
G01X1987546Y16591D01*
G01X1987892Y15032D01*
G37*
G36*
G01X1967803Y15032D02*
G01X1971440Y14859D01*
G01X1973995Y14989D01*
G01X1975077Y15379D01*
G01X1975423Y59021D01*
G01X1975423Y102143D01*
G01X1974557Y102316D01*
G01X1971440Y102489D01*
G01X1969189Y102489D01*
G01X1968842Y101277D01*
G01X1968323Y99199D01*
G01X1967977Y96774D01*
G01X1967630Y94696D01*
G01X1967284Y93311D01*
G01X1966937Y90886D01*
G01X1966418Y88635D01*
G01X1966072Y86903D01*
G01X1965898Y85344D01*
G01X1965206Y82227D01*
G01X1965032Y80842D01*
G01X1964340Y77724D01*
G01X1964167Y76339D01*
G01X1964253Y75906D01*
G01X1964859Y75646D01*
G01X1966591Y75473D01*
G01X1967457Y75473D01*
G01X1967457Y45339D01*
G01X1967803Y15032D01*
G37*
G36*
G01X1454798Y812928D02*
G01X1456293Y809991D01*
G01X1457553Y808069D01*
G01X1458388Y807401D01*
G01X1485558Y822688D01*
G01X1505495Y834049D01*
G01X1512214Y837478D01*
G01X1512093Y836908D01*
G01X1511511Y836272D01*
G01X1510270Y834956D01*
G01X1508967Y833404D01*
G01X1507814Y831938D01*
G01X1506874Y830795D01*
G01X1505784Y829566D01*
G01X1502963Y826138D01*
G01X1502087Y825232D01*
G01X1501147Y824089D01*
G01X1499843Y822537D01*
G01X1498690Y821071D01*
G01X1497750Y819928D01*
G01X1496873Y819022D01*
G01X1494993Y816737D01*
G01X1493903Y815508D01*
G01X1491596Y812576D01*
G01X1490356Y811260D01*
G01X1486596Y806689D01*
G01X1485719Y805783D01*
G01X1482899Y802355D01*
G01X1481595Y800803D01*
G01X1480442Y799337D01*
G01X1479352Y798108D01*
G01X1477472Y795822D01*
G01X1476382Y794593D01*
G01X1473562Y791165D01*
G01X1472685Y790259D01*
G01X1471745Y789116D01*
G01X1470591Y787651D01*
G01X1470273Y786817D01*
G01X1470471Y785781D01*
G01X1471533Y783595D01*
G01X1472143Y782797D01*
G01X1472762Y782505D01*
G01X1510731Y804026D01*
G01X1548075Y825587D01*
G01X1547792Y826423D01*
G01X1546211Y829509D01*
G01X1545043Y831185D01*
G01X1544139Y831713D01*
G01X1517869Y816946D01*
G01X1492009Y801816D01*
G01X1491709Y801643D01*
G01X1491536Y801943D01*
G01X1492089Y803062D01*
G01X1493179Y804291D01*
G01X1495786Y807396D01*
G01X1498607Y810824D01*
G01X1499483Y811730D01*
G01X1500573Y812960D01*
G01X1501727Y814425D01*
G01X1502667Y815568D01*
G01X1503543Y816474D01*
G01X1506364Y819902D01*
G01X1507667Y821455D01*
G01X1508820Y822920D01*
G01X1509761Y824063D01*
G01X1510637Y824969D01*
G01X1511577Y826112D01*
G01X1512881Y827664D01*
G01X1514034Y829130D01*
G01X1516214Y831589D01*
G01X1520915Y837302D01*
G01X1521791Y838208D01*
G01X1522731Y839351D01*
G01X1524035Y840903D01*
G01X1525188Y842369D01*
G01X1528008Y845797D01*
G01X1528885Y846703D01*
G01X1529975Y847932D01*
G01X1531128Y849398D01*
G01X1532069Y850541D01*
G01X1532772Y851747D01*
G01X1532612Y852804D01*
G01X1531750Y854556D01*
G01X1530538Y856656D01*
G01X1529701Y856373D01*
G01X1491820Y834702D01*
G01X1454798Y812928D01*
G37*
G36*
G01X1432694Y851559D02*
G01X1438975Y839987D01*
G01X1445359Y829275D01*
G01X1446502Y828335D01*
G01X1447858Y827718D01*
G01X1449041Y827401D01*
G01X1450287Y827321D01*
G01X1451597Y827477D01*
G01X1462269Y833239D01*
G01X1472317Y839040D01*
G01X1472034Y839877D01*
G01X1470279Y843263D01*
G01X1468807Y845813D01*
G01X1467971Y845530D01*
G01X1458585Y840311D01*
G01X1450036Y835375D01*
G01X1440338Y852173D01*
G01X1471984Y870444D01*
G01X1495821Y884056D01*
G01X1504039Y888351D01*
G01X1504559Y887451D01*
G01X1508739Y879866D01*
G01X1513218Y872453D01*
G01X1511388Y870947D01*
G01X1505079Y867154D01*
G01X1496530Y862218D01*
G01X1500340Y855619D01*
G01X1501177Y855902D01*
G01X1510712Y861208D01*
G01X1519688Y866790D01*
G01X1520328Y867759D01*
G01X1520818Y868642D01*
G01X1521112Y870211D01*
G01X1521082Y871994D01*
G01X1520776Y873217D01*
G01X1514518Y884402D01*
G01X1507811Y895327D01*
G01X1506841Y895968D01*
G01X1505958Y896458D01*
G01X1504625Y896688D01*
G01X1502843Y896659D01*
G01X1467874Y876869D01*
G01X1433552Y856654D01*
G01X1432998Y855534D01*
G01X1432682Y854351D01*
G01X1432515Y853255D01*
G01X1432694Y851559D01*
G37*
G36*
G01X1478610Y771683D02*
G01X1486946Y756898D01*
G01X1493401Y745977D01*
G01X1495969Y742310D01*
G01X1499141Y743742D01*
G01X1501691Y745214D01*
G01X1501408Y746051D01*
G01X1495323Y756936D01*
G01X1489522Y766984D01*
G01X1490358Y767267D01*
G01X1491818Y767510D01*
G01X1497230Y767835D01*
G01X1498926Y768014D01*
G01X1500472Y768107D01*
G01X1502168Y768287D01*
G01X1508740Y768681D01*
G01X1510049Y768837D01*
G01X1511746Y769017D01*
G01X1514838Y769202D01*
G01X1516534Y769382D01*
G01X1519627Y769567D01*
G01X1521323Y769747D01*
G01X1524415Y769932D01*
G01X1526111Y770112D01*
G01X1527657Y770205D01*
G01X1529354Y770384D01*
G01X1535539Y770755D01*
G01X1537235Y770934D01*
G01X1538781Y771027D01*
G01X1540477Y771207D01*
G01X1542023Y771299D01*
G01X1543720Y771479D01*
G01X1545716Y771832D01*
G01X1547625Y772334D01*
G01X1549148Y772813D01*
G01X1558233Y777859D01*
G01X1567146Y783204D01*
G01X1568086Y784347D01*
G01X1568789Y785553D01*
G01X1569083Y787122D01*
G01X1569030Y789292D01*
G01X1563009Y800414D01*
G01X1556561Y810889D01*
G01X1555505Y811679D01*
G01X1554472Y812083D01*
G01X1553376Y812250D01*
G01X1551980Y812243D01*
G01X1550520Y812000D01*
G01X1540835Y806609D01*
G01X1531686Y801326D01*
G01X1535496Y794727D01*
G01X1536333Y795010D01*
G01X1544968Y799796D01*
G01X1552767Y804299D01*
G01X1553396Y802862D01*
G01X1557403Y795577D01*
G01X1561103Y789514D01*
G01X1558983Y787990D01*
G01X1551978Y783846D01*
G01X1541906Y778431D01*
G01X1536494Y778106D01*
G01X1533875Y777793D01*
G01X1527690Y777422D01*
G01X1526380Y777266D01*
G01X1524061Y777127D01*
G01X1522751Y776971D01*
G01X1518113Y776692D01*
G01X1516416Y776513D01*
G01X1513324Y776327D01*
G01X1511628Y776148D01*
G01X1508535Y775962D01*
G01X1506839Y775783D01*
G01X1505293Y775690D01*
G01X1503597Y775510D01*
G01X1497412Y775139D01*
G01X1495716Y774960D01*
G01X1494170Y774867D01*
G01X1492474Y774688D01*
G01X1485902Y774293D01*
G01X1484593Y774137D01*
G01X1483046Y774044D01*
G01X1480473Y772959D01*
G01X1478610Y771683D01*
G37*
G36*
G01X-1426062Y804809D02*
G01X-1424267Y807572D01*
G01X-1423232Y809624D01*
G01X-1423072Y810681D01*
G01X-1449895Y826567D01*
G01X-1469702Y838153D01*
G01X-1476032Y842257D01*
G01X-1475478Y842437D01*
G01X-1474635Y842251D01*
G01X-1472876Y841835D01*
G01X-1470880Y841483D01*
G01X-1469034Y841217D01*
G01X-1467574Y840974D01*
G01X-1465964Y840644D01*
G01X-1461585Y839916D01*
G01X-1460362Y839610D01*
G01X-1458903Y839367D01*
G01X-1456907Y839015D01*
G01X-1455061Y838749D01*
G01X-1453601Y838506D01*
G01X-1452378Y838199D01*
G01X-1449459Y837714D01*
G01X-1447849Y837385D01*
G01X-1444157Y836853D01*
G01X-1442397Y836436D01*
G01X-1436559Y835465D01*
G01X-1435335Y835159D01*
G01X-1430957Y834431D01*
G01X-1428961Y834078D01*
G01X-1427115Y833812D01*
G01X-1425505Y833483D01*
G01X-1422586Y832997D01*
G01X-1420976Y832668D01*
G01X-1416597Y831940D01*
G01X-1415374Y831633D01*
G01X-1413915Y831391D01*
G01X-1412069Y831125D01*
G01X-1411187Y831266D01*
G01X-1410389Y831955D01*
G01X-1409027Y833968D01*
G01X-1408642Y834895D01*
G01X-1408698Y835578D01*
G01X-1446319Y857699D01*
G01X-1483664Y879260D01*
G01X-1484247Y878596D01*
G01X-1486129Y875683D01*
G01X-1486996Y873834D01*
G01X-1487001Y872787D01*
G01X-1461078Y857421D01*
G01X-1435045Y842590D01*
G01X-1434745Y842417D01*
G01X-1434918Y842117D01*
G01X-1436164Y842037D01*
G01X-1437774Y842366D01*
G01X-1441766Y843071D01*
G01X-1446145Y843800D01*
G01X-1447368Y844106D01*
G01X-1448978Y844435D01*
G01X-1450824Y844701D01*
G01X-1452283Y844944D01*
G01X-1453506Y845250D01*
G01X-1457885Y845979D01*
G01X-1459881Y846331D01*
G01X-1461727Y846597D01*
G01X-1463187Y846840D01*
G01X-1464410Y847146D01*
G01X-1465870Y847389D01*
G01X-1467866Y847741D01*
G01X-1469712Y848007D01*
G01X-1472931Y848666D01*
G01X-1480229Y849880D01*
G01X-1481452Y850186D01*
G01X-1482912Y850429D01*
G01X-1484908Y850782D01*
G01X-1486754Y851048D01*
G01X-1491133Y851776D01*
G01X-1492356Y852082D01*
G01X-1493966Y852412D01*
G01X-1495812Y852678D01*
G01X-1497272Y852920D01*
G01X-1498668Y852927D01*
G01X-1499503Y852259D01*
G01X-1500590Y850637D01*
G01X-1501802Y848537D01*
G01X-1501139Y847954D01*
G01X-1463430Y825983D01*
G01X-1426062Y804809D01*
G37*
G36*
G01X-1448466Y766350D02*
G01X-1441585Y777576D01*
G01X-1435501Y788461D01*
G01X-1435258Y789920D01*
G01X-1435401Y791403D01*
G01X-1435718Y792586D01*
G01X-1436272Y793706D01*
G01X-1437062Y794762D01*
G01X-1447387Y801123D01*
G01X-1457436Y806925D01*
G01X-1458019Y806261D01*
G01X-1460074Y803048D01*
G01X-1461546Y800499D01*
G01X-1460883Y799916D01*
G01X-1451671Y794397D01*
G01X-1443122Y789461D01*
G01X-1452820Y772664D01*
G01X-1484466Y790934D01*
G01X-1508173Y804771D01*
G01X-1516002Y809741D01*
G01X-1515482Y810641D01*
G01X-1511003Y818054D01*
G01X-1506823Y825639D01*
G01X-1504604Y824808D01*
G01X-1498165Y821240D01*
G01X-1489616Y816304D01*
G01X-1485806Y822904D01*
G01X-1486469Y823487D01*
G01X-1495831Y829092D01*
G01X-1505153Y834074D01*
G01X-1506313Y834143D01*
G01X-1507322Y834126D01*
G01X-1508828Y833596D01*
G01X-1510358Y832679D01*
G01X-1511264Y831803D01*
G01X-1517821Y820791D01*
G01X-1523929Y809519D01*
G01X-1523999Y808359D01*
G01X-1523982Y807350D01*
G01X-1523515Y806080D01*
G01X-1522598Y804551D01*
G01X-1487976Y784162D01*
G01X-1453307Y764546D01*
G01X-1452061Y764626D01*
G01X-1450878Y764943D01*
G01X-1449845Y765347D01*
G01X-1448466Y766350D01*
G37*
G36*
G01X-1400841Y848839D02*
G01X-1398809Y851666D01*
G01X-1397644Y853943D01*
G01X-1397441Y855075D01*
G01X-1435063Y877196D01*
G01X-1472407Y898757D01*
G01X-1472990Y898094D01*
G01X-1474613Y895631D01*
G01X-1475285Y894119D01*
G01X-1475225Y893185D01*
G01X-1473535Y891609D01*
G01X-1471545Y889860D01*
G01X-1470068Y888608D01*
G01X-1468955Y887765D01*
G01X-1466602Y885606D01*
G01X-1464675Y884094D01*
G01X-1462022Y881762D01*
G01X-1460095Y880250D01*
G01X-1459069Y879258D01*
G01X-1457442Y877918D01*
G01X-1456052Y876516D01*
G01X-1455592Y876101D01*
G01X-1455066Y876147D01*
G01X-1453900Y877473D01*
G01X-1453294Y878523D01*
G01X-1452157Y878067D01*
G01X-1426124Y863237D01*
G01X-1400841Y848839D01*
G37*
G36*
G01X-295402Y-1946963D02*
G01X-291938Y-1947136D01*
G01X-289340Y-1946963D01*
G01X-288128Y-1946443D01*
G01X-287262Y-1944712D01*
G01X-286743Y-1942980D01*
G01X-286223Y-1941594D01*
G01X-285704Y-1940035D01*
G01X-285357Y-1938650D01*
G01X-283799Y-1933974D01*
G01X-283106Y-1931723D01*
G01X-282413Y-1929818D01*
G01X-281894Y-1928259D01*
G01X-281547Y-1926874D01*
G01X-278949Y-1919080D01*
G01X-278257Y-1916829D01*
G01X-277564Y-1914924D01*
G01X-277044Y-1913539D01*
G01X-276352Y-1912673D01*
G01X-275919Y-1912803D01*
G01X-275659Y-1913539D01*
G01X-275139Y-1915270D01*
G01X-274447Y-1917175D01*
G01X-273754Y-1919427D01*
G01X-273234Y-1921159D01*
G01X-272715Y-1922544D01*
G01X-271156Y-1927220D01*
G01X-270810Y-1928605D01*
G01X-270290Y-1929991D01*
G01X-269598Y-1932069D01*
G01X-268559Y-1935533D01*
G01X-267866Y-1937438D01*
G01X-267346Y-1938997D01*
G01X-267000Y-1940382D01*
G01X-265441Y-1945058D01*
G01X-264749Y-1946443D01*
G01X-263536Y-1946963D01*
G01X-260073Y-1947136D01*
G01X-258038Y-1947006D01*
G01X-257129Y-1946617D01*
G01X-257129Y-1945404D01*
G01X-260765Y-1934494D01*
G01X-261285Y-1933108D01*
G01X-262324Y-1929991D01*
G01X-262844Y-1928605D01*
G01X-263883Y-1925488D01*
G01X-264922Y-1922718D01*
G01X-267519Y-1914924D01*
G01X-268039Y-1913539D01*
G01X-268385Y-1912327D01*
G01X-270637Y-1905573D01*
G01X-271329Y-1903840D01*
G01X-271676Y-1901763D01*
G01X-271503Y-1899858D01*
G01X-270983Y-1898472D01*
G01X-270290Y-1896567D01*
G01X-269598Y-1894489D01*
G01X-268905Y-1892584D01*
G01X-268385Y-1891025D01*
G01X-267866Y-1889640D01*
G01X-266827Y-1886523D01*
G01X-266307Y-1885137D01*
G01X-265961Y-1883925D01*
G01X-265441Y-1882366D01*
G01X-264749Y-1880634D01*
G01X-264229Y-1879249D01*
G01X-263883Y-1878037D01*
G01X-263363Y-1876651D01*
G01X-262670Y-1874573D01*
G01X-261978Y-1872668D01*
G01X-260939Y-1869897D01*
G01X-259899Y-1866780D01*
G01X-259380Y-1865394D01*
G01X-259034Y-1864182D01*
G01X-258514Y-1862797D01*
G01X-257821Y-1860892D01*
G01X-257475Y-1859853D01*
G01X-258341Y-1859679D01*
G01X-262151Y-1859506D01*
G01X-264445Y-1859679D01*
G01X-265441Y-1860199D01*
G01X-266480Y-1862970D01*
G01X-268039Y-1867645D01*
G01X-268385Y-1869031D01*
G01X-269944Y-1873707D01*
G01X-270637Y-1875958D01*
G01X-271329Y-1877863D01*
G01X-272888Y-1882539D01*
G01X-273234Y-1883925D01*
G01X-274274Y-1887042D01*
G01X-274793Y-1888428D01*
G01X-275486Y-1890505D01*
G01X-275875Y-1891372D01*
G01X-276352Y-1891545D01*
G01X-276785Y-1891112D01*
G01X-277564Y-1888254D01*
G01X-278084Y-1886523D01*
G01X-279123Y-1883405D01*
G01X-280162Y-1879942D01*
G01X-282240Y-1873707D01*
G01X-283279Y-1870243D01*
G01X-284318Y-1867126D01*
G01X-284838Y-1865394D01*
G01X-285357Y-1863835D01*
G01X-285704Y-1862450D01*
G01X-286223Y-1860892D01*
G01X-286699Y-1860069D01*
G01X-287435Y-1859679D01*
G01X-291419Y-1859506D01*
G01X-294536Y-1859506D01*
G01X-294536Y-1860372D01*
G01X-294189Y-1861930D01*
G01X-292111Y-1868165D01*
G01X-291592Y-1869550D01*
G01X-291245Y-1870763D01*
G01X-290206Y-1873880D01*
G01X-289687Y-1875265D01*
G01X-288301Y-1879075D01*
G01X-287782Y-1880634D01*
G01X-287262Y-1882020D01*
G01X-285184Y-1888254D01*
G01X-284491Y-1889986D01*
G01X-283972Y-1891718D01*
G01X-283452Y-1893103D01*
G01X-282413Y-1896220D01*
G01X-281894Y-1897606D01*
G01X-281547Y-1898818D01*
G01X-280508Y-1901935D01*
G01X-280508Y-1903148D01*
G01X-281547Y-1905919D01*
G01X-281894Y-1907131D01*
G01X-282933Y-1910248D01*
G01X-283972Y-1913019D01*
G01X-285011Y-1916137D01*
G01X-285530Y-1917522D01*
G01X-286223Y-1919427D01*
G01X-287262Y-1922544D01*
G01X-287955Y-1924276D01*
G01X-288474Y-1925662D01*
G01X-288821Y-1926874D01*
G01X-289860Y-1929991D01*
G01X-290379Y-1931377D01*
G01X-291072Y-1933282D01*
G01X-291765Y-1935013D01*
G01X-292804Y-1938130D01*
G01X-293324Y-1939516D01*
G01X-293670Y-1940728D01*
G01X-294189Y-1942287D01*
G01X-294882Y-1944019D01*
G01X-295402Y-1945578D01*
G01X-295575Y-1946617D01*
G01X-295402Y-1946963D01*
G37*
G36*
G01X-246045Y-1946963D02*
G01X-242408Y-1947136D01*
G01X-239854Y-1946963D01*
G01X-238771Y-1946443D01*
G01X-238425Y-1902802D01*
G01X-238425Y-1859853D01*
G01X-239291Y-1859679D01*
G01X-242408Y-1859506D01*
G01X-244659Y-1859506D01*
G01X-245006Y-1860545D01*
G01X-245525Y-1862797D01*
G01X-245872Y-1865221D01*
G01X-246564Y-1868685D01*
G01X-247084Y-1871109D01*
G01X-248123Y-1876651D01*
G01X-248469Y-1878556D01*
G01X-248816Y-1880980D01*
G01X-249162Y-1882366D01*
G01X-249509Y-1884098D01*
G01X-249682Y-1885657D01*
G01X-249682Y-1886089D01*
G01X-249335Y-1886349D01*
G01X-247777Y-1886523D01*
G01X-246954Y-1886739D01*
G01X-246564Y-1887388D01*
G01X-246391Y-1917522D01*
G01X-246045Y-1946963D01*
G37*
G36*
G01X736257Y-831794D02*
G01X749419Y-832141D01*
G01X761888Y-831968D01*
G01X763274Y-831448D01*
G01X764486Y-830582D01*
G01X765352Y-829716D01*
G01X766045Y-828677D01*
G01X766564Y-827465D01*
G01X766911Y-815342D01*
G01X766911Y-803739D01*
G01X766045Y-803566D01*
G01X762235Y-803393D01*
G01X759291Y-803393D01*
G01X759117Y-804258D01*
G01X758944Y-814996D01*
G01X758944Y-824867D01*
G01X739548Y-824867D01*
G01X739548Y-788326D01*
G01X739678Y-760877D01*
G01X740067Y-751611D01*
G01X741106Y-751611D01*
G01X749766Y-751784D01*
G01X758425Y-751611D01*
G01X758814Y-753949D01*
G01X758944Y-761309D01*
G01X758944Y-771181D01*
G01X766564Y-771181D01*
G01X766737Y-770315D01*
G01X766911Y-759404D01*
G01X766564Y-748840D01*
G01X766045Y-747801D01*
G01X765525Y-746935D01*
G01X764313Y-745896D01*
G01X762754Y-745030D01*
G01X761542Y-744684D01*
G01X748726Y-744511D01*
G01X735911Y-744857D01*
G01X734872Y-745377D01*
G01X734006Y-745896D01*
G01X733140Y-746935D01*
G01X732274Y-748494D01*
G01X731928Y-788672D01*
G01X732274Y-828504D01*
G01X732967Y-829543D01*
G01X733833Y-830409D01*
G01X734699Y-831102D01*
G01X736257Y-831794D01*
G37*
G36*
G01X784921Y-831968D02*
G01X797217Y-832141D01*
G01X809513Y-831794D01*
G01X810726Y-831275D01*
G01X811938Y-830409D01*
G01X813150Y-828850D01*
G01X813843Y-826426D01*
G01X814016Y-803566D01*
G01X813843Y-781745D01*
G01X813323Y-780359D01*
G01X812457Y-779147D01*
G01X811591Y-778454D01*
G01X810552Y-777762D01*
G01X808647Y-777242D01*
G01X797910Y-777069D01*
G01X788385Y-777069D01*
G01X788212Y-776203D01*
G01X788039Y-773778D01*
G01X788212Y-771700D01*
G01X788558Y-762348D01*
G01X788905Y-756807D01*
G01X789078Y-753863D01*
G01X789078Y-751438D01*
G01X790290Y-751611D01*
G01X802066Y-751784D01*
G01X810076Y-751655D01*
G01X812977Y-751265D01*
G01X813323Y-747801D01*
G01X813323Y-744857D01*
G01X812457Y-744684D01*
G01X796698Y-744511D01*
G01X781804Y-744511D01*
G01X781285Y-747108D01*
G01X781111Y-750053D01*
G01X780938Y-752650D01*
G01X780592Y-772047D01*
G01X780419Y-778281D01*
G01X780419Y-783996D01*
G01X806050Y-783996D01*
G01X806050Y-824867D01*
G01X788039Y-824867D01*
G01X788039Y-814476D01*
G01X787909Y-806597D01*
G01X787519Y-803739D01*
G01X783709Y-803393D01*
G01X780419Y-803393D01*
G01X780246Y-804258D01*
G01X780072Y-816035D01*
G01X780246Y-827465D01*
G01X780765Y-828677D01*
G01X781804Y-830063D01*
G01X783363Y-831275D01*
G01X784921Y-831968D01*
G37*
G36*
G01X2009056Y-351966D02*
G01X2012520Y-352139D01*
G01X2014944Y-352009D01*
G01X2015984Y-351620D01*
G01X2016330Y-340190D01*
G01X2016330Y-329279D01*
G01X2022564Y-329279D01*
G01X2022738Y-328413D01*
G01X2022911Y-325123D01*
G01X2022911Y-322698D01*
G01X2022045Y-322525D01*
G01X2018754Y-322352D01*
G01X2016330Y-322352D01*
G01X2016330Y-291179D01*
G01X2015464Y-291006D01*
G01X2011827Y-290833D01*
G01X2009056Y-290833D01*
G01X2008883Y-291699D01*
G01X2008710Y-307458D01*
G01X2008710Y-322352D01*
G01X1992777Y-322352D01*
G01X1992950Y-321486D01*
G01X1993470Y-319927D01*
G01X1994855Y-316117D01*
G01X1995894Y-313000D01*
G01X1996414Y-311615D01*
G01X1996760Y-310402D01*
G01X1997280Y-309017D01*
G01X1997973Y-307112D01*
G01X1998665Y-305034D01*
G01X1999358Y-303129D01*
G01X2000051Y-301051D01*
G01X2000744Y-299146D01*
G01X2001263Y-297760D01*
G01X2001609Y-296548D01*
G01X2002649Y-293431D01*
G01X2003168Y-292045D01*
G01X2003861Y-290140D01*
G01X2004554Y-288408D01*
G01X2005593Y-285291D01*
G01X2006112Y-283906D01*
G01X2006459Y-282693D01*
G01X2008017Y-278017D01*
G01X2008710Y-276286D01*
G01X2009749Y-273168D01*
G01X2010442Y-271263D01*
G01X2011134Y-269185D01*
G01X2011827Y-267280D01*
G01X2012347Y-265722D01*
G01X2012520Y-264856D01*
G01X2009056Y-264509D01*
G01X2006372Y-264682D01*
G01X2005246Y-265202D01*
G01X2003861Y-269012D01*
G01X2003341Y-270397D01*
G01X2002995Y-271610D01*
G01X2001956Y-274727D01*
G01X2000397Y-278883D01*
G01X1999704Y-280962D01*
G01X1999012Y-282867D01*
G01X1998492Y-284252D01*
G01X1998146Y-285464D01*
G01X1997626Y-287023D01*
G01X1996934Y-288755D01*
G01X1995894Y-291872D01*
G01X1995202Y-293604D01*
G01X1994682Y-295336D01*
G01X1994163Y-296721D01*
G01X1993124Y-299838D01*
G01X1992604Y-301224D01*
G01X1992258Y-302436D01*
G01X1991738Y-303822D01*
G01X1991045Y-305727D01*
G01X1990353Y-307805D01*
G01X1989660Y-309710D01*
G01X1989140Y-311442D01*
G01X1987062Y-316983D01*
G01X1985504Y-321659D01*
G01X1984464Y-324430D01*
G01X1984118Y-327028D01*
G01X1984118Y-328933D01*
G01X1984984Y-329106D01*
G01X1997280Y-329279D01*
G01X2008710Y-329279D01*
G01X2008710Y-340536D01*
G01X2009056Y-351966D01*
G37*
G36*
G01X1917097Y-351966D02*
G01X1920560Y-352139D01*
G01X1923115Y-352009D01*
G01X1924197Y-351620D01*
G01X1924544Y-311442D01*
G01X1924673Y-281654D01*
G01X1925063Y-271610D01*
G01X1926102Y-271610D01*
G01X1935108Y-271783D01*
G01X1943940Y-271610D01*
G01X1944200Y-275506D01*
G01X1944286Y-287542D01*
G01X1944286Y-303648D01*
G01X1943074Y-303475D01*
G01X1936493Y-303302D01*
G01X1932337Y-303432D01*
G01X1930605Y-303822D01*
G01X1929912Y-305207D01*
G01X1930085Y-306939D01*
G01X1930605Y-308671D01*
G01X1932683Y-314212D01*
G01X1934242Y-318888D01*
G01X1934761Y-320274D01*
G01X1935108Y-321486D01*
G01X1935627Y-323045D01*
G01X1936320Y-324777D01*
G01X1938398Y-331011D01*
G01X1939091Y-332743D01*
G01X1939610Y-334475D01*
G01X1940649Y-337246D01*
G01X1940996Y-338458D01*
G01X1942035Y-341575D01*
G01X1942554Y-342961D01*
G01X1943247Y-344866D01*
G01X1944286Y-347983D01*
G01X1944979Y-349715D01*
G01X1945499Y-351100D01*
G01X1945931Y-351663D01*
G01X1946884Y-351966D01*
G01X1950694Y-352139D01*
G01X1953638Y-351793D01*
G01X1953638Y-350754D01*
G01X1952253Y-346944D01*
G01X1951214Y-344173D01*
G01X1950174Y-341056D01*
G01X1949655Y-339670D01*
G01X1949309Y-338458D01*
G01X1948789Y-337072D01*
G01X1948096Y-335167D01*
G01X1947404Y-333436D01*
G01X1946364Y-330318D01*
G01X1944286Y-324777D01*
G01X1943247Y-321659D01*
G01X1942554Y-319927D01*
G01X1942035Y-318196D01*
G01X1939957Y-312654D01*
G01X1939610Y-311442D01*
G01X1939610Y-310576D01*
G01X1940476Y-310229D01*
G01X1941689Y-310402D01*
G01X1943767Y-310576D01*
G01X1945845Y-310402D01*
G01X1947577Y-309883D01*
G01X1949309Y-309190D01*
G01X1950348Y-308497D01*
G01X1951214Y-307458D01*
G01X1951906Y-306073D01*
G01X1952253Y-304514D01*
G01X1952426Y-303129D01*
G01X1952599Y-287023D01*
G01X1952426Y-270917D01*
G01X1952079Y-269185D01*
G01X1951560Y-267627D01*
G01X1950867Y-266761D01*
G01X1949655Y-265722D01*
G01X1947750Y-264856D01*
G01X1931817Y-264509D01*
G01X1916924Y-264509D01*
G01X1916924Y-308151D01*
G01X1917097Y-351966D01*
G37*
G36*
G01X1966800Y-351966D02*
G01X1970437Y-352139D01*
G01X1972991Y-352009D01*
G01X1974074Y-351620D01*
G01X1974420Y-307978D01*
G01X1974420Y-264856D01*
G01X1973554Y-264682D01*
G01X1970437Y-264509D01*
G01X1968185Y-264509D01*
G01X1967839Y-265722D01*
G01X1967319Y-267800D01*
G01X1966973Y-270224D01*
G01X1966627Y-272302D01*
G01X1966280Y-273688D01*
G01X1965934Y-276112D01*
G01X1965414Y-278364D01*
G01X1965068Y-280096D01*
G01X1964895Y-281654D01*
G01X1964202Y-284772D01*
G01X1964029Y-286157D01*
G01X1963336Y-289274D01*
G01X1963163Y-290660D01*
G01X1963250Y-291093D01*
G01X1963856Y-291352D01*
G01X1965588Y-291526D01*
G01X1966454Y-291526D01*
G01X1966454Y-321659D01*
G01X1966800Y-351966D01*
G37*
G36*
G01X659699Y-1856102D02*
G01X658833Y-1855409D01*
G01X657967Y-1854543D01*
G01X657274Y-1853504D01*
G01X656928Y-1813673D01*
G01X657274Y-1773494D01*
G01X658140Y-1771935D01*
G01X659006Y-1770897D01*
G01X659872Y-1770377D01*
G01X660911Y-1769858D01*
G01X673726Y-1769511D01*
G01X686542Y-1769684D01*
G01X687754Y-1770030D01*
G01X689313Y-1770897D01*
G01X690525Y-1771935D01*
G01X691045Y-1772802D01*
G01X691564Y-1773840D01*
G01X691910Y-1784405D01*
G01X691737Y-1795315D01*
G01X691564Y-1796181D01*
G01X683944Y-1796181D01*
G01X683944Y-1786310D01*
G01X683814Y-1778949D01*
G01X683425Y-1776612D01*
G01X674765Y-1776785D01*
G01X666106Y-1776612D01*
G01X665067Y-1776612D01*
G01X664678Y-1785877D01*
G01X664548Y-1813326D01*
G01X664548Y-1849868D01*
G01X683944Y-1849868D01*
G01X683944Y-1839996D01*
G01X684117Y-1829259D01*
G01X684290Y-1828393D01*
G01X687235Y-1828393D01*
G01X691045Y-1828566D01*
G01X691910Y-1828739D01*
G01X691910Y-1840343D01*
G01X691564Y-1852465D01*
G01X691045Y-1853678D01*
G01X690352Y-1854717D01*
G01X689486Y-1855583D01*
G01X688274Y-1856448D01*
G01X686888Y-1856968D01*
G01X674419Y-1857141D01*
G01X661257Y-1856795D01*
G01X659699Y-1856102D01*
G37*
G36*
G01X708363Y-1856102D02*
G01X707324Y-1855409D01*
G01X706458Y-1854543D01*
G01X705765Y-1853504D01*
G01X705437Y-1815924D01*
G01X713039Y-1815924D01*
G01X713039Y-1832203D01*
G01X713212Y-1849002D01*
G01X713558Y-1849694D01*
G01X722910Y-1849868D01*
G01X722910Y-1849868D01*
G01X732089Y-1849868D01*
G01X732089Y-1815578D01*
G01X723430Y-1815578D01*
G01X713905Y-1815750D01*
G01X713039Y-1815924D01*
G01X705437Y-1815924D01*
G01X705419Y-1813845D01*
G01X705592Y-1774187D01*
G01X705938Y-1772975D01*
G01X706631Y-1771935D01*
G01X707497Y-1771070D01*
G01X708363Y-1770377D01*
G01X709575Y-1769858D01*
G01X722044Y-1769511D01*
G01X734686Y-1769684D01*
G01X736245Y-1770204D01*
G01X737457Y-1770897D01*
G01X738323Y-1771763D01*
G01X739016Y-1772628D01*
G01X739535Y-1773840D01*
G01X739882Y-1775226D01*
G01X740055Y-1783885D01*
G01X739882Y-1793583D01*
G01X739709Y-1795142D01*
G01X736591Y-1795142D01*
G01X732608Y-1794969D01*
G01X731742Y-1794795D01*
G01X731742Y-1785617D01*
G01X731656Y-1778776D01*
G01X731396Y-1776612D01*
G01X723083Y-1776785D01*
G01X714597Y-1776612D01*
G01X713558Y-1776612D01*
G01X713169Y-1780725D01*
G01X713039Y-1792718D01*
G01X713039Y-1808650D01*
G01X722910Y-1808650D01*
G01X733301Y-1808823D01*
G01X734686Y-1808997D01*
G01X736245Y-1809343D01*
G01X737804Y-1810382D01*
G01X739016Y-1811594D01*
G01X739709Y-1812807D01*
G01X740055Y-1832376D01*
G01X739709Y-1852292D01*
G01X739016Y-1854024D01*
G01X737977Y-1855409D01*
G01X736765Y-1856275D01*
G01X735552Y-1856795D01*
G01X722910Y-1857141D01*
G01X709921Y-1856795D01*
G01X708363Y-1856102D01*
G37*
G36*
G01X1013152Y-793073D02*
G01X969511Y-793073D01*
G01X969511Y-783895D01*
G01X976611Y-783895D01*
G01X976611Y-784934D01*
G01X985833Y-785323D01*
G01X1013152Y-785453D01*
G01X1049694Y-785280D01*
G01X1049867Y-779392D01*
G01X1049867Y-779392D01*
G01X1049694Y-772811D01*
G01X1049347Y-771425D01*
G01X1049001Y-770213D01*
G01X1048482Y-769174D01*
G01X1047962Y-768308D01*
G01X1047096Y-767442D01*
G01X1046057Y-766576D01*
G01X1044845Y-765884D01*
G01X1043286Y-765364D01*
G01X1013845Y-765018D01*
G01X984577Y-765191D01*
G01X983192Y-765537D01*
G01X981807Y-766057D01*
G01X980421Y-766750D01*
G01X979209Y-767615D01*
G01X978516Y-768481D01*
G01X977823Y-769520D01*
G01X977131Y-770906D01*
G01X976784Y-777487D01*
G01X976611Y-783895D01*
G01X969511Y-783895D01*
G01X969511Y-782163D01*
G01X969684Y-770733D01*
G01X970030Y-769347D01*
G01X970550Y-767442D01*
G01X971242Y-765884D01*
G01X971762Y-764671D01*
G01X972455Y-763632D01*
G01X973494Y-762420D01*
G01X974533Y-761381D01*
G01X975399Y-760688D01*
G01X976611Y-759649D01*
G01X977997Y-758783D01*
G01X979382Y-758264D01*
G01X980941Y-757744D01*
G01X982326Y-757398D01*
G01X983538Y-757225D01*
G01X1012806Y-757051D01*
G01X1042074Y-757225D01*
G01X1044498Y-757571D01*
G01X1045884Y-757917D01*
G01X1047442Y-758437D01*
G01X1048828Y-759130D01*
G01X1050387Y-759995D01*
G01X1051599Y-761035D01*
G01X1053331Y-762766D01*
G01X1054370Y-764152D01*
G01X1055409Y-765884D01*
G01X1056102Y-767269D01*
G01X1056621Y-769174D01*
G01X1056967Y-771079D01*
G01X1057141Y-782163D01*
G01X1056967Y-792900D01*
G01X1013152Y-793073D01*
G37*
G36*
G01X1055582Y-745968D02*
G01X1053504Y-745795D01*
G01X1051772Y-745275D01*
G01X1046230Y-742504D01*
G01X1043806Y-741465D01*
G01X1036878Y-738001D01*
G01X1035320Y-737309D01*
G01X1033934Y-736616D01*
G01X1032722Y-736096D01*
G01X1027527Y-733499D01*
G01X1025968Y-732806D01*
G01X1024756Y-732286D01*
G01X1016789Y-728303D01*
G01X1013672Y-726918D01*
G01X1009516Y-724840D01*
G01X1008303Y-724320D01*
G01X1006225Y-723281D01*
G01X1004667Y-722588D01*
G01X1001549Y-721030D01*
G01X1000337Y-720510D01*
G01X998952Y-719817D01*
G01X995704Y-719428D01*
G01X987348Y-719298D01*
G01X979209Y-719384D01*
G01X976611Y-719644D01*
G01X976784Y-727091D01*
G01X976611Y-735404D01*
G01X976438Y-736616D01*
G01X985097Y-736616D01*
G01X994968Y-736789D01*
G01X996181Y-736962D01*
G01X996181Y-744582D01*
G01X985097Y-744582D01*
G01X976568Y-744452D01*
G01X973147Y-744063D01*
G01X971935Y-743197D01*
G01X971069Y-742504D01*
G01X970377Y-741638D01*
G01X969857Y-740599D01*
G01X969511Y-728476D01*
G01X969684Y-716354D01*
G01X970030Y-715141D01*
G01X970550Y-714102D01*
G01X971242Y-713236D01*
G01X972108Y-712370D01*
G01X973147Y-711678D01*
G01X984404Y-711331D01*
G01X996354Y-711505D01*
G01X998086Y-711851D01*
G01X999298Y-712197D01*
G01X1000510Y-712717D01*
G01X1003627Y-714102D01*
G01X1006398Y-715488D01*
G01X1008823Y-716527D01*
G01X1015057Y-719644D01*
G01X1016616Y-720337D01*
G01X1019387Y-721722D01*
G01X1020946Y-722415D01*
G01X1023717Y-723800D01*
G01X1025275Y-724493D01*
G01X1026661Y-725186D01*
G01X1028219Y-725879D01*
G01X1033068Y-728303D01*
G01X1034281Y-728823D01*
G01X1035839Y-729515D01*
G01X1043113Y-733152D01*
G01X1046230Y-734538D01*
G01X1047616Y-735230D01*
G01X1049001Y-735750D01*
G01X1049867Y-735923D01*
G01X1049867Y-724666D01*
G01X1050040Y-712197D01*
G01X1050213Y-710985D01*
G01X1053157Y-710985D01*
G01X1056621Y-711331D01*
G01X1057011Y-715791D01*
G01X1057141Y-728476D01*
G01X1056794Y-745621D01*
G01X1055582Y-745968D01*
G37*
G36*
G01X1206848Y-926928D02*
G01X1250490Y-926928D01*
G01X1250490Y-937838D01*
G01X1250317Y-949268D01*
G01X1249971Y-950654D01*
G01X1249451Y-952559D01*
G01X1248758Y-954117D01*
G01X1248239Y-955330D01*
G01X1247546Y-956369D01*
G01X1246507Y-957581D01*
G01X1245468Y-958620D01*
G01X1244602Y-959313D01*
G01X1243390Y-960352D01*
G01X1242004Y-961218D01*
G01X1240619Y-961737D01*
G01X1239060Y-962257D01*
G01X1237675Y-962603D01*
G01X1236463Y-962776D01*
G01X1207195Y-962950D01*
G01X1177927Y-962776D01*
G01X1175503Y-962430D01*
G01X1174117Y-962084D01*
G01X1172558Y-961564D01*
G01X1171173Y-960871D01*
G01X1169614Y-960005D01*
G01X1168402Y-958966D01*
G01X1166670Y-957235D01*
G01X1165631Y-955849D01*
G01X1164592Y-954117D01*
G01X1163899Y-952732D01*
G01X1163380Y-950827D01*
G01X1163033Y-948922D01*
G01X1162904Y-940609D01*
G01X1170134Y-940609D01*
G01X1170307Y-947190D01*
G01X1170653Y-948575D01*
G01X1171000Y-949788D01*
G01X1171519Y-950827D01*
G01X1172039Y-951693D01*
G01X1172905Y-952559D01*
G01X1173944Y-953425D01*
G01X1175156Y-954117D01*
G01X1176715Y-954637D01*
G01X1206156Y-954983D01*
G01X1235423Y-954810D01*
G01X1236809Y-954464D01*
G01X1238194Y-953944D01*
G01X1239580Y-953251D01*
G01X1240792Y-952385D01*
G01X1241485Y-951520D01*
G01X1242178Y-950480D01*
G01X1242870Y-949095D01*
G01X1243217Y-942514D01*
G01X1243390Y-936106D01*
G01X1243390Y-935067D01*
G01X1234168Y-934678D01*
G01X1206848Y-934548D01*
G01X1170307Y-934721D01*
G01X1170134Y-940609D01*
G01X1170134Y-940609D01*
G01X1162904Y-940609D01*
G01X1162860Y-937838D01*
G01X1163033Y-927101D01*
G01X1206848Y-926928D01*
G37*
G36*
G01X1193340Y-977150D02*
G01X1223474Y-977150D01*
G01X1223474Y-976285D01*
G01X1223647Y-974553D01*
G01X1223863Y-973946D01*
G01X1224167Y-973860D01*
G01X1225552Y-974206D01*
G01X1227111Y-974553D01*
G01X1229535Y-974899D01*
G01X1230921Y-975245D01*
G01X1232999Y-975592D01*
G01X1236463Y-976285D01*
G01X1238541Y-976631D01*
G01X1240273Y-976977D01*
G01X1241658Y-977324D01*
G01X1244429Y-977670D01*
G01X1247546Y-978363D01*
G01X1248758Y-978536D01*
G01X1249971Y-978882D01*
G01X1250360Y-979661D01*
G01X1250490Y-981307D01*
G01X1250317Y-984251D01*
G01X1250144Y-985117D01*
G01X1207022Y-985117D01*
G01X1163380Y-984770D01*
G01X1162990Y-983688D01*
G01X1162860Y-981134D01*
G01X1163033Y-977497D01*
G01X1193340Y-977150D01*
G37*
G36*
G01X803677Y-1038621D02*
G01X804803Y-1039011D01*
G01X807141Y-1039141D01*
G01X809436Y-1039011D01*
G01X810431Y-1038621D01*
G01X810778Y-1027191D01*
G01X810778Y-1016281D01*
G01X817359Y-1016281D01*
G01X817359Y-1009700D01*
G01X816493Y-1009527D01*
G01X813202Y-1009353D01*
G01X810778Y-1009353D01*
G01X810778Y-977834D01*
G01X803504Y-977834D01*
G01X803331Y-979393D01*
G01X803158Y-994633D01*
G01X803331Y-1008834D01*
G01X801469Y-1009224D01*
G01X795538Y-1009353D01*
G01X789563Y-1009180D01*
G01X787571Y-1008661D01*
G01X787918Y-1007448D01*
G01X789996Y-1001214D01*
G01X790515Y-1000002D01*
G01X791035Y-998616D01*
G01X792074Y-995499D01*
G01X792594Y-994113D01*
G01X792940Y-992901D01*
G01X793979Y-989784D01*
G01X794499Y-988398D01*
G01X795191Y-986493D01*
G01X795884Y-984415D01*
G01X796577Y-982510D01*
G01X797096Y-980778D01*
G01X799174Y-975237D01*
G01X800733Y-970561D01*
G01X801253Y-969175D01*
G01X801599Y-967963D01*
G01X802119Y-966404D01*
G01X802811Y-964672D01*
G01X803850Y-961555D01*
G01X804370Y-960170D01*
G01X804716Y-958957D01*
G01X805236Y-957572D01*
G01X805929Y-955667D01*
G01X806621Y-953589D01*
G01X806968Y-952030D01*
G01X806102Y-951640D01*
G01X803504Y-951511D01*
G01X800040Y-951511D01*
G01X799694Y-952550D01*
G01X799001Y-954282D01*
G01X798482Y-955667D01*
G01X798135Y-956879D01*
G01X797096Y-959997D01*
G01X796577Y-961382D01*
G01X795884Y-963287D01*
G01X795191Y-965019D01*
G01X792074Y-974371D01*
G01X791381Y-976102D01*
G01X789476Y-981817D01*
G01X788957Y-983203D01*
G01X787571Y-987013D01*
G01X787052Y-988572D01*
G01X786532Y-989957D01*
G01X785493Y-993074D01*
G01X784974Y-994460D01*
G01X784627Y-995672D01*
G01X784108Y-997231D01*
G01X783415Y-998962D01*
G01X782895Y-1000348D01*
G01X782549Y-1001560D01*
G01X782029Y-1002946D01*
G01X781337Y-1005024D01*
G01X780644Y-1006929D01*
G01X780124Y-1008314D01*
G01X779778Y-1009527D01*
G01X778739Y-1012644D01*
G01X778566Y-1014549D01*
G01X778782Y-1015631D01*
G01X779432Y-1016107D01*
G01X791901Y-1016281D01*
G01X803504Y-1016281D01*
G01X803331Y-1017839D01*
G01X803158Y-1028750D01*
G01X803287Y-1035894D01*
G01X803677Y-1038621D01*
G37*
G36*
G01X739254Y-1038794D02*
G01X752415Y-1039141D01*
G01X764884Y-1038967D01*
G01X766270Y-1038448D01*
G01X767482Y-1037582D01*
G01X768348Y-1036716D01*
G01X769041Y-1035677D01*
G01X769560Y-1034465D01*
G01X769907Y-1022342D01*
G01X769907Y-1010739D01*
G01X769041Y-1010566D01*
G01X765231Y-1010392D01*
G01X762287Y-1010392D01*
G01X762114Y-1011258D01*
G01X761940Y-1021996D01*
G01X761940Y-1031867D01*
G01X742544Y-1031867D01*
G01X742544Y-995326D01*
G01X742674Y-967876D01*
G01X743064Y-958611D01*
G01X744103Y-958611D01*
G01X752762Y-958784D01*
G01X761421Y-958611D01*
G01X761811Y-960949D01*
G01X761940Y-968309D01*
G01X761940Y-978181D01*
G01X769560Y-978181D01*
G01X769734Y-977315D01*
G01X769907Y-966404D01*
G01X769560Y-955840D01*
G01X769041Y-954801D01*
G01X768521Y-953935D01*
G01X767309Y-952896D01*
G01X765750Y-952030D01*
G01X764538Y-951684D01*
G01X751723Y-951511D01*
G01X738907Y-951857D01*
G01X737868Y-952377D01*
G01X737002Y-952896D01*
G01X736136Y-953935D01*
G01X735270Y-955494D01*
G01X734924Y-995672D01*
G01X735270Y-1035504D01*
G01X735963Y-1036543D01*
G01X736829Y-1037409D01*
G01X737695Y-1038102D01*
G01X739254Y-1038794D01*
G37*
G36*
G01X36793Y151258D02*
G01X37140Y164939D01*
G01X36967Y177928D01*
G01X36620Y179140D01*
G01X35754Y180699D01*
G01X34369Y181911D01*
G01X33157Y182604D01*
G01X-8753Y182950D01*
G01X-50144Y182950D01*
G01X-50317Y182084D01*
G01X-50490Y178448D01*
G01X-50490Y175677D01*
G01X-49624Y175504D01*
G01X-9619Y175330D01*
G01X29520Y175330D01*
G01X29693Y174464D01*
G01X29866Y164074D01*
G01X29866Y154549D01*
G01X-50144Y154549D01*
G01X-50317Y153683D01*
G01X-50490Y149873D01*
G01X-50490Y146929D01*
G01X-8753Y146929D01*
G01X33503Y147275D01*
G01X34542Y147968D01*
G01X35408Y148834D01*
G01X36101Y149699D01*
G01X36793Y151258D01*
G37*
G36*
G01X36967Y195073D02*
G01X37140Y212218D01*
G01X37140Y229017D01*
G01X36274Y229190D01*
G01X32810Y229363D01*
G01X30213Y229363D01*
G01X30039Y228497D01*
G01X29866Y216028D01*
G01X29866Y204425D01*
G01X29173Y204598D01*
G01X27961Y205118D01*
G01X23805Y207196D01*
G01X20688Y208581D01*
G01X14453Y211699D01*
G01X12028Y212738D01*
G01X7872Y214816D01*
G01X6313Y215509D01*
G01X3543Y216894D01*
G01X1984Y217587D01*
G01X-787Y218972D01*
G01X-2346Y219665D01*
G01X-3731Y220358D01*
G01X-5290Y221050D01*
G01X-10832Y223821D01*
G01X-12390Y224514D01*
G01X-13776Y225207D01*
G01X-15334Y225899D01*
G01X-18105Y227285D01*
G01X-19837Y227978D01*
G01X-21915Y228670D01*
G01X-23647Y229190D01*
G01X-35077Y229363D01*
G01X-46507Y229017D01*
G01X-47719Y228324D01*
G01X-48758Y227458D01*
G01X-49451Y226592D01*
G01X-49971Y225380D01*
G01X-50317Y223994D01*
G01X-50490Y212045D01*
G01X-50144Y199922D01*
G01X-49278Y198364D01*
G01X-48066Y197151D01*
G01X-46680Y196459D01*
G01X-44775Y195939D01*
G01X-33865Y195766D01*
G01X-24167Y195766D01*
G01X-23993Y196632D01*
G01X-23820Y200615D01*
G01X-23820Y203732D01*
G01X-33518Y203732D01*
G01X-40835Y203862D01*
G01X-43390Y204252D01*
G01X-43390Y205291D01*
G01X-43217Y213084D01*
G01X-43390Y220877D01*
G01X-40835Y221267D01*
G01X-32826Y221397D01*
G01X-21569Y221050D01*
G01X-17412Y218972D01*
G01X-14295Y217587D01*
G01X-7368Y214123D01*
G01X-6156Y213604D01*
G01X-4077Y212564D01*
G01X-2865Y212045D01*
G01X252Y210486D01*
G01X1811Y209794D01*
G01X3889Y208754D01*
G01X5101Y208235D01*
G01X11682Y204944D01*
G01X12894Y204425D01*
G01X14453Y203732D01*
G01X19995Y200961D01*
G01X21553Y200269D01*
G01X22939Y199576D01*
G01X24498Y198883D01*
G01X27268Y197498D01*
G01X28827Y196805D01*
G01X31598Y195419D01*
G01X33157Y194900D01*
G01X35408Y194727D01*
G01X36967Y195073D01*
G37*
G36*
G01X-1076450Y-560631D02*
G01X-1066899Y-551569D01*
G01X-1058204Y-542630D01*
G01X-1057592Y-541283D01*
G01X-1057347Y-539813D01*
G01X-1057347Y-538589D01*
G01X-1057592Y-537364D01*
G01X-1058082Y-536140D01*
G01X-1066409Y-527323D01*
G01X-1074613Y-519118D01*
G01X-1075348Y-519608D01*
G01X-1078165Y-522179D01*
G01X-1080246Y-524261D01*
G01X-1079757Y-524996D01*
G01X-1072287Y-532711D01*
G01X-1065307Y-539691D01*
G01X-1079022Y-553406D01*
G01X-1104860Y-527567D01*
G01X-1124178Y-508066D01*
G01X-1130454Y-501239D01*
G01X-1129719Y-500504D01*
G01X-1123474Y-494504D01*
G01X-1117474Y-488259D01*
G01X-1115545Y-489636D01*
G01X-1110249Y-494749D01*
G01X-1103269Y-501729D01*
G01X-1097880Y-496341D01*
G01X-1098370Y-495606D01*
G01X-1105963Y-487769D01*
G01X-1113678Y-480544D01*
G01X-1114780Y-480176D01*
G01X-1115759Y-479931D01*
G01X-1117351Y-480054D01*
G01X-1119066Y-480544D01*
G01X-1120168Y-481156D01*
G01X-1129352Y-490095D01*
G01X-1138169Y-499402D01*
G01X-1138536Y-500504D01*
G01X-1138781Y-501484D01*
G01X-1138659Y-502831D01*
G01X-1138169Y-504546D01*
G01X-1110004Y-533201D01*
G01X-1081594Y-561121D01*
G01X-1080369Y-561366D01*
G01X-1079144Y-561366D01*
G01X-1078042Y-561243D01*
G01X-1076450Y-560631D01*
G37*
G36*
G01X-1042040Y-526220D02*
G01X-1032610Y-517281D01*
G01X-1023916Y-508342D01*
G01X-1023303Y-506995D01*
G01X-1023058Y-505525D01*
G01X-1023058Y-504301D01*
G01X-1023303Y-503076D01*
G01X-1023916Y-501729D01*
G01X-1033957Y-491197D01*
G01X-1044244Y-481156D01*
G01X-1045713Y-480421D01*
G01X-1047795Y-479809D01*
G01X-1049632Y-479931D01*
G01X-1050979Y-480054D01*
G01X-1052081Y-480176D01*
G01X-1053673Y-480544D01*
G01X-1057837Y-481278D01*
G01X-1059551Y-481523D01*
G01X-1060776Y-481768D01*
G01X-1062000Y-481768D01*
G01X-1062613Y-481156D01*
G01X-1061878Y-476747D01*
G01X-1061510Y-474911D01*
G01X-1060776Y-470502D01*
G01X-1060531Y-468788D01*
G01X-1060653Y-466951D01*
G01X-1061021Y-465604D01*
G01X-1061878Y-464012D01*
G01X-1070940Y-454705D01*
G01X-1080002Y-446133D01*
G01X-1081349Y-445765D01*
G01X-1082573Y-445766D01*
G01X-1083675Y-445888D01*
G01X-1084778Y-446255D01*
G01X-1085879Y-446868D01*
G01X-1094941Y-455685D01*
G01X-1103758Y-464992D01*
G01X-1104248Y-466706D01*
G01X-1104248Y-468665D01*
G01X-1103514Y-470625D01*
G01X-1095554Y-479074D01*
G01X-1088084Y-486544D01*
G01X-1082451Y-480911D01*
G01X-1096411Y-466951D01*
G01X-1095431Y-466216D01*
G01X-1088574Y-459603D01*
G01X-1082696Y-453725D01*
G01X-1074981Y-461440D01*
G01X-1069225Y-467379D01*
G01X-1067388Y-469767D01*
G01X-1067878Y-473196D01*
G01X-1068001Y-474298D01*
G01X-1068246Y-475523D01*
G01X-1068368Y-476870D01*
G01X-1068490Y-477972D01*
G01X-1068735Y-478952D01*
G01X-1068980Y-480421D01*
G01X-1069103Y-482013D01*
G01X-1069225Y-483115D01*
G01X-1069470Y-484095D01*
G01X-1069960Y-487034D01*
G01X-1069838Y-488136D01*
G01X-1069103Y-489116D01*
G01X-1068001Y-489238D01*
G01X-1066899Y-489116D01*
G01X-1063960Y-488626D01*
G01X-1062368Y-488503D01*
G01X-1060286Y-488136D01*
G01X-1051714Y-486912D01*
G01X-1050244Y-486912D01*
G01X-1047305Y-489299D01*
G01X-1040203Y-496218D01*
G01X-1031018Y-505403D01*
G01X-1044489Y-518873D01*
G01X-1045223Y-518383D01*
G01X-1052816Y-511036D01*
G01X-1059673Y-504178D01*
G01X-1060408Y-504668D01*
G01X-1063102Y-507117D01*
G01X-1065062Y-509076D01*
G01X-1064572Y-509811D01*
G01X-1056000Y-518628D01*
G01X-1047305Y-526833D01*
G01X-1046081Y-527078D01*
G01X-1044856Y-527078D01*
G01X-1043631Y-526833D01*
G01X-1042040Y-526220D01*
G37*
G36*
G01X-842744Y-41794D02*
G01X-829582Y-42140D01*
G01X-817113Y-41967D01*
G01X-815727Y-41447D01*
G01X-814515Y-40582D01*
G01X-813649Y-39716D01*
G01X-812956Y-38677D01*
G01X-812437Y-37464D01*
G01X-812091Y-25342D01*
G01X-812091Y-13738D01*
G01X-812956Y-13565D01*
G01X-816766Y-13392D01*
G01X-819711Y-13392D01*
G01X-819884Y-14258D01*
G01X-820057Y-24995D01*
G01X-820057Y-34867D01*
G01X-839453Y-34867D01*
G01X-839453Y1675D01*
G01X-839323Y29124D01*
G01X-838934Y38389D01*
G01X-837895Y38389D01*
G01X-829236Y38216D01*
G01X-820576Y38389D01*
G01X-820187Y36051D01*
G01X-820057Y28691D01*
G01X-820057Y18820D01*
G01X-812437Y18820D01*
G01X-812264Y19686D01*
G01X-812091Y30596D01*
G01X-812437Y41160D01*
G01X-812956Y42199D01*
G01X-813476Y43065D01*
G01X-814688Y44104D01*
G01X-816247Y44970D01*
G01X-817459Y45317D01*
G01X-830275Y45490D01*
G01X-843090Y45143D01*
G01X-844129Y44624D01*
G01X-844995Y44104D01*
G01X-845861Y43065D01*
G01X-846727Y41507D01*
G01X-847073Y1328D01*
G01X-846727Y-38503D01*
G01X-846034Y-39542D01*
G01X-845168Y-40408D01*
G01X-844302Y-41101D01*
G01X-842744Y-41794D01*
G37*
G36*
G01X-797543Y-41967D02*
G01X-793906Y-42140D01*
G01X-791352Y-42010D01*
G01X-790270Y-41621D01*
G01X-789923Y2021D01*
G01X-789923Y45143D01*
G01X-790789Y45317D01*
G01X-793733Y45490D01*
G01X-795379Y45360D01*
G01X-796158Y44970D01*
G01X-796504Y43758D01*
G01X-796677Y42546D01*
G01X-797370Y39428D01*
G01X-797716Y37004D01*
G01X-798409Y33887D01*
G01X-798756Y31462D01*
G01X-799102Y30077D01*
G01X-799795Y25920D01*
G01X-800141Y24535D01*
G01X-800487Y22110D01*
G01X-800834Y20552D01*
G01X-801180Y19166D01*
G01X-801094Y18863D01*
G01X-800487Y18647D01*
G01X-798756Y18473D01*
G01X-797890Y18473D01*
G01X-797890Y-11660D01*
G01X-797543Y-41967D01*
G37*
G36*
G01X-922898Y-1251964D02*
G01X-919434Y-1252137D01*
G01X-916880Y-1252008D01*
G01X-915797Y-1251618D01*
G01X-915451Y-1211440D01*
G01X-915321Y-1181652D01*
G01X-914931Y-1171608D01*
G01X-913892Y-1171608D01*
G01X-904887Y-1171781D01*
G01X-896055Y-1171608D01*
G01X-895795Y-1175504D01*
G01X-895708Y-1187541D01*
G01X-895708Y-1203647D01*
G01X-896920Y-1203473D01*
G01X-903501Y-1203300D01*
G01X-907658Y-1203430D01*
G01X-909390Y-1203820D01*
G01X-910082Y-1205205D01*
G01X-909909Y-1206937D01*
G01X-909390Y-1208669D01*
G01X-907311Y-1214211D01*
G01X-905753Y-1218887D01*
G01X-905233Y-1220272D01*
G01X-904887Y-1221484D01*
G01X-904367Y-1223043D01*
G01X-903675Y-1224775D01*
G01X-901596Y-1231009D01*
G01X-900904Y-1232741D01*
G01X-900384Y-1234473D01*
G01X-899345Y-1237244D01*
G01X-898999Y-1238456D01*
G01X-897960Y-1241573D01*
G01X-897440Y-1242959D01*
G01X-896747Y-1244864D01*
G01X-895708Y-1247981D01*
G01X-895015Y-1249713D01*
G01X-894496Y-1251098D01*
G01X-894063Y-1251661D01*
G01X-893110Y-1251964D01*
G01X-889300Y-1252137D01*
G01X-886356Y-1251791D01*
G01X-886356Y-1250752D01*
G01X-887742Y-1246942D01*
G01X-888781Y-1244171D01*
G01X-889820Y-1241054D01*
G01X-890340Y-1239668D01*
G01X-890686Y-1238456D01*
G01X-891205Y-1237071D01*
G01X-891898Y-1235166D01*
G01X-892591Y-1233434D01*
G01X-893630Y-1230317D01*
G01X-895708Y-1224775D01*
G01X-896747Y-1221657D01*
G01X-897440Y-1219926D01*
G01X-897960Y-1218194D01*
G01X-900038Y-1212652D01*
G01X-900384Y-1211440D01*
G01X-900384Y-1210574D01*
G01X-899518Y-1210227D01*
G01X-898306Y-1210401D01*
G01X-896228Y-1210574D01*
G01X-894150Y-1210401D01*
G01X-892418Y-1209881D01*
G01X-890686Y-1209188D01*
G01X-889647Y-1208496D01*
G01X-888781Y-1207457D01*
G01X-888088Y-1206071D01*
G01X-887742Y-1204512D01*
G01X-887569Y-1203127D01*
G01X-887395Y-1187021D01*
G01X-887569Y-1170915D01*
G01X-887915Y-1169183D01*
G01X-888435Y-1167625D01*
G01X-889127Y-1166759D01*
G01X-890340Y-1165720D01*
G01X-892245Y-1164854D01*
G01X-908177Y-1164507D01*
G01X-923071Y-1164507D01*
G01X-923071Y-1208149D01*
G01X-922898Y-1251964D01*
G37*
G36*
G01X-873195Y-1251964D02*
G01X-869558Y-1252137D01*
G01X-867003Y-1252008D01*
G01X-865921Y-1251618D01*
G01X-865575Y-1207976D01*
G01X-865575Y-1164854D01*
G01X-866440Y-1164681D01*
G01X-869558Y-1164507D01*
G01X-871809Y-1164507D01*
G01X-872155Y-1165720D01*
G01X-872675Y-1167798D01*
G01X-873021Y-1170222D01*
G01X-873368Y-1172301D01*
G01X-873714Y-1173686D01*
G01X-874060Y-1176111D01*
G01X-874580Y-1178362D01*
G01X-874926Y-1180094D01*
G01X-875100Y-1181652D01*
G01X-875792Y-1184770D01*
G01X-875965Y-1186155D01*
G01X-876658Y-1189272D01*
G01X-876831Y-1190658D01*
G01X-876745Y-1191091D01*
G01X-876139Y-1191351D01*
G01X-874407Y-1191524D01*
G01X-873541Y-1191524D01*
G01X-873541Y-1221657D01*
G01X-873195Y-1251964D01*
G37*
G04 Text End*

G04 PolygonModel Start*
G54D10*
G01X-675000Y477000D02*
G01X-675000Y548725D01*
G01X-725000Y477000D02*
G01X-625000Y477000D01*
G01X-710000Y445000D02*
G01X-640000Y445000D01*
G01X-695000Y413000D02*
G01X-655000Y413000D01*
G01X723000Y153000D02*
G01X723000Y203000D01*
G01X673000Y153000D02*
G01X773000Y153000D01*
G01X688000Y121000D02*
G01X758000Y121000D01*
G01X703000Y89000D02*
G01X743000Y89000D01*
G01X723000Y203000D02*
G01X798000Y203000D01*
G01X-911988Y230494D02*
G01X-795493Y114000D01*
G01X-623138Y114000D01*
G01X661986Y663505D02*
G01X619676Y621195D01*
G01X619676Y412129D01*
G01X630805Y401000D01*
G01X806657Y401000D01*
G01X-1916996Y-329665D02*
G01X-1742331Y-75000D01*
G01X-1474000Y-75000D01*
G54D11*
G01X-809493Y134716D02*
G01X-809493Y174493D01*
G54D12*
G01X775126Y-540246D02*
G01X719500Y-540246D01*
G01X719500Y-540246D02*
G01X719500Y-614414D01*
G01X719500Y-614414D02*
G01X775126Y-614414D01*
G01X775126Y-614414D02*
G01X775126Y-613398D01*
G01X775126Y-85332D02*
G01X719500Y-85332D01*
G01X719500Y-85332D02*
G01X719500Y-159500D01*
G01X719500Y-159500D02*
G01X775126Y-159500D01*
G01X775126Y-159500D02*
G01X775126Y-158484D01*
G01X1400220Y-14212D02*
G01X775126Y-14212D01*
G01X775126Y-14212D02*
G01X775126Y-689344D01*
G01X1400220Y-689344D02*
G01X775126Y-689344D01*
G54D13*
G01X724575Y-19795D02*
G03X724448Y20186I-127J19990D01*
G03X724321Y-19795I0J-19991D01*
G54D11*
G01X-318018Y-575956D02*
G01X-398015Y-575956D01*
G01X-261973Y-576002D02*
G01X-181976Y-576002D01*
G01X-318018Y-433988D02*
G01X-398015Y-433988D01*
G01X-261973Y-434036D02*
G01X-181976Y-434036D01*
G01X-428991Y-544974D02*
G01X-428991Y-464969D01*
G01X-150998Y-465022D02*
G01X-150998Y-545024D01*
G01X-181981Y-434036D02*
G02X-150998Y-465022I0J-30983D01*
G01X-150998Y-545019D02*
G02X-181981Y-576002I-30983J0D01*
G01X-398010Y-575956D02*
G02X-428991Y-544974I3J30983D01*
G01X-428991Y-464976D02*
G02X-398010Y-433988I30983J5D01*
G01X246042Y-1801978D02*
G01X246042Y-1721980D01*
G01X245996Y-1858023D02*
G01X245996Y-1938020D01*
G01X388010Y-1801978D02*
G01X388010Y-1721980D01*
G01X387962Y-1858023D02*
G01X387962Y-1938020D01*
G01X277025Y-1691005D02*
G01X357030Y-1691005D01*
G01X356976Y-1968998D02*
G01X276974Y-1968998D01*
G01X387962Y-1938015D02*
G02X356976Y-1968998I-30983J0D01*
G01X276979Y-1968998D02*
G02X245996Y-1938015I0J30983D01*
G01X246042Y-1721985D02*
G02X277025Y-1691005I30983J-3D01*
G01X357022Y-1691005D02*
G02X388010Y-1721985I5J-30983D01*
G01X-586265Y-898002D02*
G01X-586265Y-1487993D01*
G01X-586265Y-1487993D02*
G01X3726Y-1487993D01*
G01X3726Y-1487993D02*
G01X3726Y-898002D01*
G01X3726Y-898002D02*
G01X-586265Y-898002D01*
G54D14*
G01X-665919Y-1599398D02*
G03X-665792Y-1629400I127J-15001D01*
G03X-665665Y-1599398I0J15001D01*
G54D16*
G01X-511233Y-1392896D02*
G03X-511106Y-1432895I127J-20000D01*
G03X-510979Y-1392896I0J20000D01*
G54D12*
G01X1886060Y102620D02*
G01X1886060Y198508D01*
G01X1886060Y198508D02*
G01X1753940Y198508D01*
G01X1753940Y198508D02*
G01X1753940Y102620D01*
G01X1886060Y17378D02*
G01X1886060Y-78510D01*
G01X1886060Y-78510D02*
G01X1753940Y-78510D01*
G01X1753940Y-78510D02*
G01X1753940Y17378D01*
G54D11*
G01X2035259Y581087D02*
G01X2178255Y667166D01*
G01X2178255Y667166D02*
G01X1666720Y1541487D01*
G01X1666720Y1541487D02*
G01X1533198Y1464398D01*
G01X966242Y374516D02*
G01X1032233Y412616D01*
G01X1032233Y412616D02*
G01X1013183Y445612D01*
G01X1013183Y445612D02*
G01X1189159Y547212D01*
G01X1189159Y547212D02*
G01X1068509Y756184D01*
G01X1068509Y756184D02*
G01X892533Y654584D01*
G01X892533Y654584D02*
G01X879833Y676581D01*
G01X879833Y676581D02*
G01X813842Y638481D01*
G01X729590Y809809D02*
G01X784583Y841559D01*
G01X784583Y841559D02*
G01X765533Y874554D01*
G01X765533Y874554D02*
G01X941509Y976154D01*
G01X941509Y976154D02*
G01X878009Y1086140D01*
G01X878009Y1086140D02*
G01X961934Y1134579D01*
G01X1072490Y215888D02*
G01X1127483Y247638D01*
G01X1127483Y247638D02*
G01X1146533Y214643D01*
G01X1146533Y214643D02*
G01X1311511Y309893D01*
G01X1311511Y309893D02*
G01X1375011Y199908D01*
G01X1375011Y199908D02*
G01X1469934Y254697D01*
G01X1308078Y1334425D02*
G01X961934Y1134579D01*
G01X1816078Y454543D02*
G01X1469934Y254697D01*
G01X1195751Y1450861D02*
G01X1454759Y1600400D01*
G01X1862950Y300317D02*
G01X2113717Y445097D01*
G01X1533259Y1464434D02*
G01X1454759Y1600400D01*
G01X2113717Y445097D02*
G01X2035217Y581063D01*
G01X1274251Y1314895D02*
G01X1195751Y1450861D01*
G01X1862950Y300317D02*
G01X1784450Y436283D01*
G01X-1527248Y1460992D02*
G01X-1673293Y1541792D01*
G01X-1673293Y1541792D02*
G01X-2174709Y661628D01*
G01X-2174709Y661628D02*
G01X-2041187Y584539D01*
G01X-813844Y638482D02*
G01X-879835Y676582D01*
G01X-879835Y676582D02*
G01X-898885Y643587D01*
G01X-898885Y643587D02*
G01X-1074862Y745187D01*
G01X-1074862Y745187D02*
G01X-1195512Y536215D01*
G01X-1195512Y536215D02*
G01X-1019535Y434615D01*
G01X-1019535Y434615D02*
G01X-1032235Y412618D01*
G01X-1032235Y412618D02*
G01X-966244Y374518D01*
G01X-1072493Y215890D02*
G01X-1127485Y247640D01*
G01X-1127485Y247640D02*
G01X-1146535Y214644D01*
G01X-1146535Y214644D02*
G01X-1322512Y316244D01*
G01X-1322512Y316244D02*
G01X-1386012Y206259D01*
G01X-1386012Y206259D02*
G01X-1469924Y254720D01*
G01X-729593Y809810D02*
G01X-784585Y841560D01*
G01X-784585Y841560D02*
G01X-765535Y874556D01*
G01X-765535Y874556D02*
G01X-930513Y969806D01*
G01X-930513Y969806D02*
G01X-867013Y1079791D01*
G01X-867013Y1079791D02*
G01X-961924Y1134602D01*
G01X-1816067Y454566D02*
G01X-1469924Y254720D01*
G01X-1308067Y1334448D02*
G01X-961924Y1134602D01*
G01X-1860740Y299070D02*
G01X-2119749Y448609D01*
G01X-1197940Y1452154D02*
G01X-1448706Y1596934D01*
G01X-2041249Y584575D02*
G01X-2119749Y448609D01*
G01X-1448706Y1596934D02*
G01X-1527206Y1460968D01*
G01X-1782240Y435036D02*
G01X-1860740Y299070D01*
G01X-1197940Y1452154D02*
G01X-1276440Y1316188D01*
G01X-175260Y-1848496D02*
G01X-175260Y-1978493D01*
G01X175260Y-1975496D02*
G01X175260Y-1845499D01*
G01X71780Y-1976995D02*
G01X48108Y-1976995D01*
G01X-48108Y-1976995D02*
G01X-71780Y-1976995D01*
G01X71780Y-1846998D02*
G01X48108Y-1846998D01*
G01X-48108Y-1846998D02*
G01X-71780Y-1846998D01*
G01X575016Y-721044D02*
G01X655013Y-721044D01*
G01X518971Y-720998D02*
G01X438973Y-720998D01*
G01X575016Y-863012D02*
G01X655013Y-863012D01*
G01X518971Y-862964D02*
G01X438973Y-862964D01*
G01X685988Y-752027D02*
G01X685988Y-832032D01*
G01X407996Y-831978D02*
G01X407996Y-751976D01*
G01X438979Y-862964D02*
G02X407996Y-831978I0J30983D01*
G01X407996Y-751981D02*
G02X438979Y-720998I30983J0D01*
G01X655008Y-721044D02*
G02X685988Y-752027I-3J-30983D01*
G01X685988Y-832024D02*
G02X655008Y-863012I-30983J-5D01*
G54D12*
G01X1753936Y-362615D02*
G01X1753936Y-458503D01*
G01X1753936Y-458503D02*
G01X1886056Y-458503D01*
G01X1886056Y-458503D02*
G01X1886056Y-362615D01*
G01X1753936Y-277373D02*
G01X1753936Y-181486D01*
G01X1753936Y-181486D02*
G01X1886056Y-181486D01*
G01X1886056Y-181486D02*
G01X1886056Y-277373D01*
G54D11*
G01X464041Y-1791978D02*
G01X464041Y-1711980D01*
G01X463996Y-1848023D02*
G01X463996Y-1928020D01*
G01X606009Y-1791978D02*
G01X606009Y-1711980D01*
G01X605961Y-1848023D02*
G01X605961Y-1928020D01*
G01X495024Y-1681005D02*
G01X575029Y-1681005D01*
G01X574976Y-1958998D02*
G01X494973Y-1958998D01*
G01X605961Y-1928015D02*
G02X574976Y-1958998I-30983J0D01*
G01X494978Y-1958998D02*
G02X463996Y-1928015I0J30983D01*
G01X464041Y-1711985D02*
G02X495024Y-1681005I30983J-3D01*
G01X575021Y-1681005D02*
G02X606009Y-1711985I5J-30983D01*
G54D17*
G01X934995Y-925002D02*
G01X934995Y-935004D01*
G01X934995Y-935004D02*
G01X964989Y-965007D01*
G01X934995Y-855009D02*
G01X934995Y-844994D01*
G01X934995Y-844994D02*
G01X964989Y-814999D01*
G01X934995Y-855009D02*
G01X934995Y-925002D01*
G01X1264996Y-815012D02*
G01X1264996Y-963003D01*
G01X1079990Y-965007D02*
G01X964989Y-965007D01*
G01X1079990Y-814999D02*
G01X964989Y-814999D01*
G01X1139993Y-965007D02*
G01X1264996Y-965007D01*
G01X1139993Y-814999D02*
G01X1264996Y-814999D01*
G01X1122701Y-928101D02*
G01X1122701Y-851901D01*
G01X1122701Y-889360D02*
G01X1097301Y-889360D01*
G01X934995Y-1125002D02*
G01X934995Y-1135004D01*
G01X934995Y-1135004D02*
G01X964989Y-1165007D01*
G01X934995Y-1055010D02*
G01X934995Y-1044994D01*
G01X934995Y-1044994D02*
G01X964989Y-1014999D01*
G01X934995Y-1055010D02*
G01X934995Y-1125002D01*
G01X1264996Y-1015012D02*
G01X1264996Y-1163003D01*
G01X1079990Y-1165007D02*
G01X964989Y-1165007D01*
G01X1079990Y-1014999D02*
G01X964989Y-1014999D01*
G01X1139993Y-1165007D02*
G01X1264996Y-1165007D01*
G01X1139993Y-1014999D02*
G01X1264996Y-1014999D01*
G01X1122701Y-1128101D02*
G01X1122701Y-1051901D01*
G01X1122701Y-1089361D02*
G01X1097301Y-1089361D01*
G54D11*
G01X575016Y-927043D02*
G01X655013Y-927043D01*
G01X518971Y-926998D02*
G01X438973Y-926998D01*
G01X575016Y-1069012D02*
G01X655013Y-1069012D01*
G01X518971Y-1068963D02*
G01X438973Y-1068963D01*
G01X685988Y-958026D02*
G01X685988Y-1038031D01*
G01X407996Y-1037978D02*
G01X407996Y-957975D01*
G01X438979Y-1068963D02*
G02X407996Y-1037978I0J30983D01*
G01X407996Y-957981D02*
G02X438979Y-926998I30983J0D01*
G01X655008Y-927043D02*
G02X685988Y-958026I-3J-30983D01*
G01X685988Y-1038024D02*
G02X655008Y-1069012I-30983J-5D01*
G54D12*
G01X-177127Y1082621D02*
G01X177152Y1082621D01*
G01X177152Y1082621D02*
G01X177152Y97380D01*
G01X177152Y97380D02*
G01X-177127Y97380D01*
G01X-177127Y97380D02*
G01X-177127Y1082621D01*
G01X-1375552Y-689993D02*
G01X-1563392Y-504995D01*
G01X-1563392Y-504995D02*
G01X-1184603Y-126206D01*
G01X-1184603Y-126206D02*
G01X-987397Y-126206D01*
G01X-987397Y-126206D02*
G01X-896739Y-218749D01*
G01X-1274217Y-793293D02*
G01X-1086002Y-982457D01*
G01X-1086002Y-982457D02*
G01X-707261Y-603716D01*
G01X-707261Y-603716D02*
G01X-707261Y-406273D01*
G01X-707261Y-406273D02*
G01X-798777Y-314757D01*
G36*
G01X-1373368Y-630724D02*
G01X-1387369Y-616723D01*
G01X-1331366Y-560721D01*
G01X-1317366Y-574721D01*
G01X-1373368Y-630724D01*
G37*
G36*
G01X-980507Y-198824D02*
G01X-994507Y-184823D01*
G01X-1050510Y-240826D01*
G01X-1036510Y-254826D01*
G01X-980507Y-198824D01*
G37*
G36*
G01X-961841Y-259492D02*
G01X-1055178Y-166155D01*
G01X-1069178Y-180155D01*
G01X-975841Y-273493D01*
G01X-961841Y-259492D01*
G37*
G01X-898880Y90361D02*
G01X-1039881Y90361D01*
G01X-1039881Y-90360D02*
G01X-898880Y-90360D01*
G01X-883640Y-75120D02*
G01X-883640Y75121D01*
G01X-1261120Y90361D02*
G01X-1120119Y90361D01*
G01X-1120119Y-90360D02*
G01X-1261120Y-90360D01*
G01X-1276360Y-75120D02*
G01X-1276360Y75121D01*
G01X-898880Y-90360D02*
G03X-883640Y-75120I0J15240D01*
G01X-883640Y75121D02*
G03X-898880Y90361I-15240J0D01*
G01X-1261120Y-90360D02*
G02X-1276360Y-75120I0J15240D01*
G01X-1276360Y75121D02*
G02X-1261120Y90361I15240J0D01*
G01X-1091060Y-1250621D02*
G01X-1091060Y-1346509D01*
G01X-1091060Y-1346509D02*
G01X-958940Y-1346509D01*
G01X-958940Y-1346509D02*
G01X-958940Y-1250621D01*
G01X-1091060Y-1165379D02*
G01X-1091060Y-1069491D01*
G01X-1091060Y-1069491D02*
G01X-958940Y-1069491D01*
G01X-958940Y-1069491D02*
G01X-958940Y-1165379D01*

G04 Rect Start*
G54D11*
G01X-618901Y-290589D02*
G01X-618901Y-17003D01*
G01X325999Y-17003D01*
G01X325999Y-290589D01*
G01X-618901Y-290589D01*
G54D10*
G01X-794000Y114000D02*
G01X-794000Y246000D01*
G01X-623138Y246000D01*
G01X-623138Y114000D01*
G01X-794000Y114000D01*
G01X632074Y401000D02*
G01X632074Y538362D01*
G01X806657Y538362D01*
G01X806657Y401000D01*
G01X632074Y401000D01*
G04 Rect End*

G04 Circle Start*
G54D14*
G01X-116903Y1012504D02*
G03X-86881Y1012504I15011J0D01*
G03X-116903Y1012504I-15011J0D01*
G01X-301587Y1074886D02*
G03X-271564Y1074886I15011J0D01*
G03X-301587Y1074886I-15011J0D01*
G04 Circle End*

M02*

