G04 Layer: BottomPasteMaskLayer*
G04 EasyEDA Pro v2.2.32.3, 2025-06-04 17:09:26*
G04 Gerber Generator version 0.3*
G04 Scale: 100 percent, Rotated: No, Reflected: No*
G04 Dimensions in millimeters*
G04 Leading zeros omitted, absolute positions, 3 integers and 5 decimals*
%FSLAX35Y35*%
%MOMM*%
%AMRect*21,1,$1,$2,0,0,$3*%
%ADD10O,0.5684X1.95021*%
%ADD11R,0.8X0.9*%
%ADD12Rect,1.2X2.49999X300.0*%
%ADD13Rect,0.5X1.7X300.0*%
%ADD14Rect,1.2X2.49999X60.0*%
%ADD15Rect,0.5X1.7X60.0*%
%ADD16R,1.13254X1.37701*%
%ADD17R,0.41999X0.6*%
%ADD18R,0.41999X0.6*%
%ADD19R,0.8X0.9*%
%ADD20R,0.5X1.7*%
%ADD21R,1.2X2.49999*%
G75*


G04 PolygonModel Start*
G36*
G01X205900Y-434799D02*
G01X205900Y-407199D01*
G01X203499Y-404799D01*
G01X177086Y-404799D01*
G01X174688Y-407199D01*
G01X174688Y-434799D01*
G01X177086Y-437199D01*
G01X203499Y-437199D01*
G01X205900Y-434799D01*
G37*
G36*
G01X222100Y-434799D02*
G01X222100Y-407199D01*
G01X224500Y-404799D01*
G01X250913Y-404799D01*
G01X253311Y-407199D01*
G01X253311Y-434799D01*
G01X250913Y-437199D01*
G01X224500Y-437199D01*
G01X222100Y-434799D01*
G37*
G36*
G01X1864999Y179501D02*
G01X1864999Y99501D01*
G01X1859997Y94500D01*
G01X1837201Y94500D01*
G01X1837201Y131500D01*
G01X1804201Y131500D01*
G01X1804201Y94500D01*
G01X1779997Y94500D01*
G01X1774999Y99501D01*
G01X1774999Y179501D01*
G01X1779997Y184500D01*
G01X1859997Y184500D01*
G01X1864999Y179501D01*
G37*
G36*
G01X1775001Y-59503D02*
G01X1775001Y20497D01*
G01X1780003Y25498D01*
G01X1802799Y25498D01*
G01X1802799Y-11502D01*
G01X1835799Y-11502D01*
G01X1835799Y25498D01*
G01X1860002Y25498D01*
G01X1865001Y20497D01*
G01X1865001Y-59503D01*
G01X1860002Y-64502D01*
G01X1780003Y-64502D01*
G01X1775001Y-59503D01*
G37*
G36*
G01X1774997Y-439496D02*
G01X1774997Y-359496D01*
G01X1779999Y-354495D01*
G01X1802795Y-354495D01*
G01X1802795Y-391495D01*
G01X1835795Y-391495D01*
G01X1835795Y-354495D01*
G01X1859999Y-354495D01*
G01X1864997Y-359496D01*
G01X1864997Y-439496D01*
G01X1859999Y-444495D01*
G01X1779999Y-444495D01*
G01X1774997Y-439496D01*
G37*
G36*
G01X1864995Y-200492D02*
G01X1864995Y-280492D01*
G01X1859993Y-285493D01*
G01X1837197Y-285493D01*
G01X1837197Y-248493D01*
G01X1804197Y-248493D01*
G01X1804197Y-285493D01*
G01X1779994Y-285493D01*
G01X1774995Y-280492D01*
G01X1774995Y-200492D01*
G01X1779994Y-195494D01*
G01X1859993Y-195494D01*
G01X1864995Y-200492D01*
G37*
G36*
G01X490000Y-1799499D02*
G01X490000Y-1719499D01*
G01X495002Y-1714497D01*
G01X517798Y-1714497D01*
G01X517798Y-1751498D01*
G01X550798Y-1751498D01*
G01X550798Y-1714497D01*
G01X575001Y-1714497D01*
G01X580000Y-1719499D01*
G01X580000Y-1799499D01*
G01X575001Y-1804497D01*
G01X495002Y-1804497D01*
G01X490000Y-1799499D01*
G37*
G36*
G01X579998Y-1560495D02*
G01X579998Y-1640495D01*
G01X574996Y-1645496D01*
G01X552200Y-1645496D01*
G01X552200Y-1608496D01*
G01X519200Y-1608496D01*
G01X519200Y-1645496D01*
G01X494996Y-1645496D01*
G01X489998Y-1640495D01*
G01X489998Y-1560495D01*
G01X494996Y-1555496D01*
G01X574996Y-1555496D01*
G01X579998Y-1560495D01*
G37*
G36*
G01X990499Y-685002D02*
G01X1070498Y-685002D01*
G01X1075500Y-690003D01*
G01X1075500Y-712800D01*
G01X1038500Y-712800D01*
G01X1038500Y-745800D01*
G01X1075500Y-745800D01*
G01X1075500Y-770003D01*
G01X1070498Y-775002D01*
G01X990499Y-775002D01*
G01X985500Y-770003D01*
G01X985500Y-690003D01*
G01X990499Y-685002D01*
G37*
G36*
G01X1229502Y-774999D02*
G01X1149503Y-774999D01*
G01X1144501Y-769998D01*
G01X1144501Y-747202D01*
G01X1181502Y-747202D01*
G01X1181502Y-714202D01*
G01X1144501Y-714202D01*
G01X1144501Y-689998D01*
G01X1149503Y-685000D01*
G01X1229502Y-685000D01*
G01X1234501Y-689998D01*
G01X1234501Y-769998D01*
G01X1229502Y-774999D01*
G37*
G36*
G01X-200497Y-1159996D02*
G01X-280497Y-1159996D01*
G01X-285499Y-1154995D01*
G01X-285499Y-1132199D01*
G01X-248498Y-1132199D01*
G01X-248498Y-1099199D01*
G01X-285499Y-1099199D01*
G01X-285499Y-1074995D01*
G01X-280497Y-1069997D01*
G01X-200497Y-1069997D01*
G01X-195499Y-1074995D01*
G01X-195499Y-1154995D01*
G01X-200497Y-1159996D01*
G37*
G36*
G01X-439501Y-1069999D02*
G01X-359501Y-1069999D01*
G01X-354500Y-1075000D01*
G01X-354500Y-1097797D01*
G01X-391500Y-1097797D01*
G01X-391500Y-1130797D01*
G01X-354500Y-1130797D01*
G01X-354500Y-1155000D01*
G01X-359501Y-1159999D01*
G01X-439501Y-1159999D01*
G01X-444500Y-1155000D01*
G01X-444500Y-1075000D01*
G01X-439501Y-1069999D01*
G37*
G36*
G01X-195497Y-989997D02*
G01X-275497Y-989997D01*
G01X-280499Y-984995D01*
G01X-280499Y-962199D01*
G01X-243498Y-962199D01*
G01X-243498Y-929199D01*
G01X-280499Y-929199D01*
G01X-280499Y-904996D01*
G01X-275497Y-899997D01*
G01X-195497Y-899997D01*
G01X-190499Y-904996D01*
G01X-190499Y-984995D01*
G01X-195497Y-989997D01*
G37*
G36*
G01X-434501Y-899999D02*
G01X-354501Y-899999D01*
G01X-349500Y-905001D01*
G01X-349500Y-927797D01*
G01X-386500Y-927797D01*
G01X-386500Y-960797D01*
G01X-349500Y-960797D01*
G01X-349500Y-985001D01*
G01X-354501Y-989999D01*
G01X-434501Y-989999D01*
G01X-439500Y-985001D01*
G01X-439500Y-905001D01*
G01X-434501Y-899999D01*
G37*
G36*
G01X845001Y1080498D02*
G01X845001Y1160498D01*
G01X850003Y1165499D01*
G01X872799Y1165499D01*
G01X872799Y1128499D01*
G01X905799Y1128499D01*
G01X905799Y1165499D01*
G01X930002Y1165499D01*
G01X935001Y1160498D01*
G01X935001Y1080498D01*
G01X930002Y1075499D01*
G01X850003Y1075499D01*
G01X845001Y1080498D01*
G37*
G36*
G01X934999Y1319502D02*
G01X934999Y1239502D01*
G01X929997Y1234501D01*
G01X907201Y1234501D01*
G01X907201Y1271501D01*
G01X874201Y1271501D01*
G01X874201Y1234501D01*
G01X849998Y1234501D01*
G01X844999Y1239502D01*
G01X844999Y1319502D01*
G01X849998Y1324501D01*
G01X929997Y1324501D01*
G01X934999Y1319502D01*
G37*
G36*
G01X1129999Y1319502D02*
G01X1129999Y1239502D01*
G01X1124997Y1234501D01*
G01X1102201Y1234501D01*
G01X1102201Y1271501D01*
G01X1069201Y1271501D01*
G01X1069201Y1234501D01*
G01X1044998Y1234501D01*
G01X1039999Y1239502D01*
G01X1039999Y1319502D01*
G01X1044998Y1324501D01*
G01X1124997Y1324501D01*
G01X1129999Y1319502D01*
G37*
G36*
G01X1040001Y1080498D02*
G01X1040001Y1160498D01*
G01X1045003Y1165499D01*
G01X1067799Y1165499D01*
G01X1067799Y1128499D01*
G01X1100799Y1128499D01*
G01X1100799Y1165499D01*
G01X1125003Y1165499D01*
G01X1130001Y1160498D01*
G01X1130001Y1080498D01*
G01X1125003Y1075499D01*
G01X1045003Y1075499D01*
G01X1040001Y1080498D01*
G37*

G04 Pad Start*
G54D10*
G01X-190500Y270510D03*
G01X-63500Y270510D03*
G01X63500Y270510D03*
G01X190500Y270510D03*
G01X-190500Y-270510D03*
G01X-63500Y-270510D03*
G01X63500Y-270510D03*
G01X190500Y-270510D03*
G54D11*
G01X-971003Y880001D03*
G01X-830998Y880001D03*
G01X-1020003Y1140001D03*
G01X-879998Y1140001D03*
G54D12*
G01X1614217Y1247150D03*
G54D13*
G01X1524777Y722107D03*
G01X1474778Y808709D03*
G01X1424778Y895311D03*
G01X1374778Y981913D03*
G54D12*
G01X1874212Y796827D03*
G54D14*
G01X-1874210Y796837D03*
G54D15*
G01X-1374789Y981902D03*
G01X-1424789Y895300D03*
G01X-1474789Y808697D03*
G01X-1524788Y722095D03*
G54D14*
G01X-1614216Y1247161D03*
G54D16*
G01X-396622Y1370000D03*
G01X-203382Y1370000D03*
G54D17*
G01X-202004Y1184994D03*
G01X-267003Y1184994D03*
G01X-332001Y1184994D03*
G54D18*
G01X-332001Y995002D03*
G01X-267003Y995002D03*
G01X-202004Y995002D03*
G54D16*
G01X203379Y1370000D03*
G01X396619Y1370000D03*
G54D17*
G01X397999Y1184996D03*
G01X333000Y1184996D03*
G01X268001Y1184996D03*
G54D18*
G01X268001Y995004D03*
G01X333000Y995004D03*
G01X397999Y995004D03*
G54D11*
G01X1039998Y-545000D03*
G01X1180003Y-545000D03*
G54D19*
G01X-411997Y207000D03*
G01X-552002Y207000D03*
G01X-411998Y0D03*
G01X-552002Y0D03*
G01X-1009998Y0D03*
G01X-1150003Y0D03*
G54D20*
G01X-200000Y-1670008D03*
G01X-100000Y-1670008D03*
G01X200000Y-1670008D03*
G01X100000Y-1670008D03*
G01X0Y-1670008D03*
G54D21*
G01X-310007Y-2010012D03*
G01X310007Y-2009987D03*
G54D11*
G01X-1025000Y-1284997D03*
G01X-884996Y-1284997D03*
G04 Pad End*

M02*

